<svg width="227" height="207" viewBox="0 0 227 207" fill="none" xmlns="http://www.w3.org/2000/svg">
<path fill-rule="evenodd" clip-rule="evenodd" d="M52.1762 11.3395C52.181 10.9576 52.4527 10.6346 52.82 10.5741C54.6904 9.99499 56.4505 9.1165 58.3008 8.47566C59.2977 8.13782 60.2661 7.71717 61.1965 7.2179C61.8713 6.84929 62.6406 6.74077 63.3454 6.4256L63.5359 6.33417C64.3488 5.91672 65.262 5.74088 66.1094 5.37912C66.8243 5.07388 67.6293 5.0409 68.3721 4.75189C69.4573 4.34482 70.5619 3.99413 71.6815 3.70117C72.3768 3.42404 73.1156 3.27968 73.8614 3.27521C74.0616 3.2952 74.1814 3.17285 74.3386 3.12982C75.0091 2.92272 75.6913 2.75784 76.3814 2.63608C77.8486 2.42045 79.2949 2.06025 80.7631 1.86789C81.8288 1.72905 82.8808 1.52526 83.9399 1.3538C84.9591 1.18956 85.9814 1.04598 87.0068 0.923059C89.4061 0.626121 91.8204 0.473691 94.2371 0.466553C96.1289 0.484984 98.0182 0.613169 99.896 0.850494C101.425 0.97928 102.945 1.21258 104.444 1.54883C105.632 1.85737 106.871 1.99065 108.01 2.403C109.085 2.79217 110.187 3.1235 111.264 3.48223C113.757 4.31286 116.21 5.24299 118.624 6.27263C120.045 6.87725 121.463 7.51696 122.889 8.09638C124.562 8.77613 126.147 9.6457 127.817 10.3303C128.795 10.7322 129.755 11.2807 130.722 11.7532C131.658 12.2103 132.526 12.7992 133.49 13.196C134.437 13.6261 135.362 14.1054 136.263 14.6319C137.115 15.0927 138.13 15.3818 138.798 16.194C139.646 16.1364 140.143 16.8682 140.813 17.2006C141.482 17.5331 142.137 17.9155 142.813 18.1998C143.508 18.4926 144.21 18.8109 144.89 19.1206C146.271 19.7493 147.703 20.2388 149.077 20.8608C149.916 21.2398 150.805 21.3324 151.652 21.6273C153.278 22.183 154.954 22.5711 156.655 22.786C157.34 22.8587 158.01 23.0376 158.642 23.3168C159.117 23.541 159.56 23.2403 160.036 23.3734C160.806 23.589 161.61 23.6711 162.396 23.8249C162.638 23.9183 162.91 23.8704 163.108 23.6996L163.559 24.2282C163.841 24.2818 163.63 24.0153 163.778 23.9357C164.107 23.9677 164.469 23.9157 164.788 24.1713C165.088 24.4121 165.41 24.0993 165.757 24.2113C166.513 24.4517 167.403 23.9994 168.094 24.6574C168.848 24.4379 169.599 24.681 170.351 24.6851C170.715 24.6667 171.073 24.7813 171.362 25.0071L171.427 25.0611C171.692 25.3109 172.096 24.7266 172.336 25.2061C173.639 24.9445 174.792 25.6298 175.969 25.944C177.859 26.4488 179.796 26.8085 181.615 27.6464C182.525 28.0652 183.589 28.2296 184.523 28.6386C186.625 29.5572 188.791 30.3302 190.785 31.5082C191.609 31.9951 192.538 32.2937 193.358 32.789L194.305 33.3617C195.725 34.223 197.136 35.1001 198.491 36.0687C198.837 36.242 199.128 36.5112 199.331 36.8457C199.526 37.2696 200.04 37.096 200.379 37.357C200.783 37.6647 201.001 38.1429 201.492 38.3982C201.763 38.5389 202.06 38.9222 202.373 39.0861C203.391 39.6196 203.988 40.6874 205.018 41.1959C205.367 41.4484 205.657 41.7778 205.866 42.1599C206.684 43.2095 207.906 43.8379 208.631 44.9544L208.726 45.1098C209.082 45.7015 209.567 46.1996 210.142 46.5656L210.366 46.7036C210.532 46.8069 210.685 46.9158 210.718 47.0749C210.854 47.74 211.412 48.0792 211.776 48.553C212.165 49.0604 212.722 49.4232 213.066 50C213.355 50.6197 213.749 51.1817 214.23 51.66C215.136 52.3669 215.637 53.3569 216.263 54.2584C216.576 54.7085 217.105 55.0646 217.01 55.7743C216.961 56.1353 217.712 55.8715 217.647 56.3925L217.637 56.4514C217.56 56.8068 217.778 56.99 218.087 57.1553C218.37 57.3064 218.168 57.8631 218.506 57.9624C218.843 58.0618 219.231 58.3244 219.154 58.5014C218.963 58.9455 219.632 58.9331 219.449 59.2847C219.439 59.3269 219.449 59.3713 219.475 59.4051C220.269 60.317 220.483 61.5657 221.236 62.5227C221.666 63.1171 221.983 63.7895 222.17 64.5046C222.386 65.1539 222.654 65.7836 222.972 66.3874C223.476 67.4367 223.649 68.5955 224.16 69.6298C224.298 69.91 223.733 70.4071 224.419 70.5229C224.244 70.9555 224.664 71.1625 224.755 71.4859C224.784 71.776 224.769 72.069 224.711 72.3545C225.071 72.9064 225.299 73.5376 225.377 74.1969C225.688 75.5114 225.919 76.8449 226.067 78.1893L226.186 79.2966C226.342 80.7752 226.461 82.2611 226.163 83.743C226.086 84.1241 226.456 84.2599 226.422 84.6004C226.236 86.5825 226.247 88.5772 225.709 90.5315C225.484 91.3496 225.541 92.282 225.317 93.1229C224.892 94.7172 224.667 96.355 224.056 97.9159L223.944 98.1906C223.531 99.1627 223.253 100.239 222.855 101.245C222.603 101.937 206.049 183.412 149.826 162.634C123.164 152.781 99.0183 205.092 62.343 193.974C-41.4862 162.498 7.89038 31.697 49.7141 12.166C50.0347 12.081 50.3432 11.9539 50.6321 11.7878C51.062 11.421 51.6229 11.2581 52.1762 11.3395Z" fill="#4F2608"/>
<path fill-rule="evenodd" clip-rule="evenodd" d="M88.1187 161.066C86.6645 147.252 87.7013 129.872 92.9071 117.047C91.953 118.882 105.675 121.885 105.53 122.671C104.576 127.831 103.964 133.647 103.143 140.062C102.21 147.35 102.846 155.153 103.633 160.964C105.495 174.713 89.5716 174.867 88.1187 161.066Z" fill="white"/>
<path fill-rule="evenodd" clip-rule="evenodd" d="M89.7061 117.638C92.9544 107.532 100.683 99.046 110.285 95.043C115.165 93.0083 120.838 92.0769 117.962 92.7416C117.389 96.3676 121.006 99.5692 124.579 99.7421C128.151 99.915 131.473 97.9484 134.384 95.8136C132.473 92.3108 134.398 94.0356 137.176 98C137.271 98.2188 123.527 101.422 114.941 107.843C107.437 113.455 104.722 122.382 107.49 122.671C106.158 123.292 104.617 123.43 103.2 123.056C103.2 123.056 93.5207 120.21 89.7061 117.638Z" fill="white"/>
<path fill-rule="evenodd" clip-rule="evenodd" d="M89.7061 117.638C92.9544 107.532 100.683 99.046 110.285 95.043C112.056 94.3046 116.614 92.6518 119.116 91.2699C123.514 88.8405 122.478 86.7227 122.478 85.186C122.478 83.4726 129.923 81.3704 131.472 82.5653C132.555 83.4011 131.989 86.5081 132.617 89.1049C133.604 93.1788 135.559 97.036 136.344 96.4605C138.696 99.8633 148.849 102.503 157.277 111.955C160.904 116.022 161.893 120.722 163.189 124.309C164.32 127.444 166.482 129.592 167.06 130.417C167.104 130.516 153.428 137.175 153.428 137.175C153.428 137.175 156.918 157.467 152.243 160.964C144.738 166.576 103.496 182.374 106.264 182.664C105.489 183.025 102.156 154.495 102.72 140.969C103.125 131.261 106.121 122.828 105.529 122.671C105.529 122.671 93.5207 120.21 89.7061 117.638Z" fill="white"/>
<path fill-rule="evenodd" clip-rule="evenodd" d="M156.911 154.418C163.738 151.893 164.419 133.38 164.587 133.221C165.626 138.06 166.381 142.964 166.845 147.897C167.049 150.067 167.196 152.265 166.865 154.418C166.518 156.679 165.651 158.828 164.574 160.833C162.188 165.277 158.725 169.107 154.586 171.88C153.917 172.329 153.209 172.759 152.422 172.902C150.68 173.219 149.016 172.087 147.692 170.882C141.003 164.797 137.648 155.809 134.864 147.088C133.937 144.184 128.24 128.401 129.234 127.922C127.599 127.36 125.76 127.454 124.187 128.179C123.236 128.617 122.471 126.978 123.07 126.102C123.669 125.226 124.808 125.001 125.798 124.667C126.788 124.332 127.867 123.579 127.795 122.512C126.064 122.783 124.356 123.213 122.7 123.794C121.914 124.069 121.108 123.286 120.909 122.458C120.377 120.238 122.558 118.339 124.612 117.457C126.75 116.539 129.052 116.03 131.368 115.961C131.839 115.947 139.177 116.992 137.691 122.995C137.673 123.067 137.472 123.718 137.457 123.794C135.902 131.289 148.875 157.389 156.911 154.418Z" fill="white"/>
<path fill-rule="evenodd" clip-rule="evenodd" d="M126.025 116.378C125.278 115.978 125.659 114.822 126.087 114.076C127.472 111.666 128.353 108.954 128.656 106.173C130.727 105.891 132.897 106.487 134.553 107.794C134.823 108.007 135.09 108.254 135.197 108.585C135.335 109.012 135.176 109.474 135.02 109.894C134.247 111.967 133.475 114.04 132.702 116.112C134.024 116.113 127.591 117.298 126.025 116.378Z" fill="white"/>
<path fill-rule="evenodd" clip-rule="evenodd" d="M104.744 65.109C102.235 41.9417 99.5521 43.2353 96.5914 38.401C92.2154 31.2555 93.3609 21.8714 96.3287 13.9995C98.1878 9.06819 100.724 4.35469 104.214 0.466553C104.845 0.668367 105.061 1.52442 104.863 2.17208C104.664 2.81974 104.186 3.32808 103.802 3.88046C102.657 5.52635 102.323 7.73787 102.93 9.66255C103.796 12.4094 106.387 14.2839 109.105 15.0215C111.823 15.7592 114.688 15.5489 117.492 15.3333C120.246 15.1214 123 14.9096 125.754 14.6977C128.507 14.486 131.393 14.2968 133.91 15.4602C136.427 16.6236 138.371 19.6226 137.437 22.2903C137.15 23.1123 137.608 24.04 138.262 24.5984C138.916 25.1567 139.738 25.4524 140.496 25.8493C143.688 27.5217 145.675 31.0174 146.455 34.6096C147.236 38.2018 146.976 41.9353 146.712 45.6059C146.529 48.1657 146.345 50.7254 146.161 53.2852C146.034 55.0549 145.947 56.984 146.939 58.4371C148.133 60.1872 146.822 62.6004 145.274 64.0291C143.726 65.4578 141.774 66.7909 141.42 68.897C140.955 71.6629 132.618 84.1824 124.565 85.186C116.767 86.1577 105.87 75.504 104.744 65.109Z" fill="white"/>
<path fill-rule="evenodd" clip-rule="evenodd" d="M108.035 68.2396C110.3 68.3954 112.575 68.3895 114.839 68.2218C115.689 68.1588 116.694 67.9633 117.033 67.1602C117.441 66.1938 118.426 65.5149 119.452 65.4927C120.477 65.4706 121.489 66.1066 121.937 67.0545C122.417 68.0727 123.83 68.0197 124.907 67.7802C127.767 67.1443 130.581 66.2909 133.318 65.2292C134.558 64.7483 135.279 63.3522 135.386 61.9954C135.492 60.6385 135.102 59.2983 134.715 57.9961C131.269 58.8084 127.716 58.9896 124.184 59.1679C117.066 59.5271 109.948 59.8864 102.83 60.2456C103.279 62.28 103.729 64.3145 104.178 66.3489C104.276 66.7947 104.387 67.2643 104.696 67.5931C105.005 67.922 105.583 68.0297 105.883 67.692C104.95 65.4424 103.998 63.0157 104.482 60.6217C105.081 62.6878 105.68 64.7539 106.279 66.8199C106.39 67.2027 106.514 67.6071 106.808 67.8687C107.137 68.1608 107.602 68.2098 108.035 68.2396ZM134.588 57.3319C134.862 56.9971 134.652 56.3181 134.233 56.3924C124.13 58.1816 113.781 57.4481 103.551 58.1337C102.992 58.1712 102.253 58.4126 102.302 58.9862C103.888 59.5371 105.609 59.4413 107.281 59.3392C115.992 58.8072 124.704 58.2752 133.415 57.7432C133.84 57.7172 134.314 57.6668 134.588 57.3319Z" fill="#E7EAEE"/>
<path fill-rule="evenodd" clip-rule="evenodd" d="M128.224 126.626C128.224 128.777 132.327 140.603 131.472 137.676C131.569 138.82 132.268 140.882 131.306 141.468C130.693 141.843 129.919 141.724 129.219 141.586C123.63 140.483 118.135 138.884 112.814 136.814C111.878 136.449 110.854 135.979 110.477 135.027C109.886 133.533 111.231 132.029 112.442 131.003C115.101 128.752 117.76 126.502 120.418 124.251C120.615 124.085 120.839 123.909 121.093 123.927C121.347 123.946 121.563 124.291 121.383 124.476C118.53 126.876 128.224 124.475 128.224 126.626Z" fill="white"/>
<path fill-rule="evenodd" clip-rule="evenodd" d="M131.306 141.469C130.693 141.843 129.919 141.724 129.219 141.586C123.63 140.483 118.135 138.884 112.814 136.814C111.878 136.45 110.854 135.979 110.477 135.027C109.886 133.533 111.919 131.693 113.5 130.807C116.247 129.267 119.124 132.626 122.968 135.027C127.041 137.572 132.005 139.208 131.887 138.865" fill="#E07613"/>
<path fill-rule="evenodd" clip-rule="evenodd" d="M144.294 76.6432C144.074 76.6772 144.146 77.024 144.275 77.2105C145.62 79.1548 146.964 81.0991 148.309 83.0434C148.538 83.3738 148.758 83.858 148.476 84.1416C144.565 82.3601 141.398 78.926 139.878 74.8191C140.153 74.5007 140.618 74.9321 140.814 75.3073C142.149 77.8715 143.967 80.1694 146.138 82.0365C146.361 82.2278 146.695 82.4166 146.914 82.2208C144.824 79.7348 143.145 76.8862 141.968 73.8324C141.919 73.7042 141.869 73.5653 141.902 73.4317C141.967 73.1706 142.32 73.0908 142.553 73.2134C142.787 73.3359 142.927 73.5834 143.063 73.8138C144.241 75.8155 145.986 77.461 148.028 78.4968C148.228 78.0996 147.879 77.6561 147.569 77.3422C145.218 74.9596 143.496 71.9273 142.636 68.6519C142.463 67.9935 142.539 67.0088 143.202 66.9802C143.369 68.5344 143.794 70.059 144.453 71.4683C145.274 73.2231 146.443 74.7777 147.603 76.3176C148.539 77.5604 149.475 78.8032 150.411 80.0461C150.231 80.2881 149.864 80.2167 149.585 80.1126C147.603 79.3721 145.783 78.1784 144.294 76.6432Z" fill="#00160A"/>
<path fill-rule="evenodd" clip-rule="evenodd" d="M122.306 72.1091C125.072 72.1091 127.313 73.7764 127.313 75.8331C127.313 77.8899 125.619 79.7721 122.853 79.7721C120.088 79.7721 117.299 77.8899 117.299 75.8331C117.299 73.7764 119.541 72.1091 122.306 72.1091ZM122.306 73.1731C120.054 73.1731 118.002 74.4518 118.002 75.8331C118.002 77.2145 120.1 78.9961 122.352 78.9961C124.604 78.9961 126.277 77.2145 126.277 75.8331C126.277 74.4518 124.558 73.1731 122.306 73.1731Z" fill="#00160A"/>
<path fill-rule="evenodd" clip-rule="evenodd" d="M72.1775 117.075C72.1101 117.218 72.0736 117.376 72.0714 117.536C71.7758 117.382 71.4802 117.229 71.1846 117.075C72.2521 119.783 73.3196 122.491 74.3871 125.199C74.551 125.615 74.7214 126.041 75.0219 126.367C74.9961 125.55 74.7603 124.756 74.5265 123.975C73.8486 121.709 73.1707 119.443 72.4928 117.177C72.4404 117.061 72.2847 117.011 72.1775 117.075Z" fill="#E07613"/>
<path fill-rule="evenodd" clip-rule="evenodd" d="M76.9234 108.49C77.2624 109.024 77.2905 109.697 77.4583 110.311C77.8173 111.624 78.8086 112.642 79.4423 113.841C80.0759 115.04 80.236 116.764 79.1689 117.577C78.655 117.968 78.7511 118.764 78.8218 119.417C78.8926 120.07 78.7261 120.934 78.0925 121.025C77.7329 121.076 77.3865 120.817 77.2089 120.492C77.0312 120.167 76.9851 119.786 76.9357 119.417C76.6058 116.95 75.9802 114.525 75.0774 112.215C74.8516 111.636 74.6313 110.907 75.0447 110.451C75.5678 109.874 74.8809 108.803 75.3575 108.185C75.7431 107.685 76.5844 107.956 76.9234 108.49Z" fill="#E07613"/>
<path fill-rule="evenodd" clip-rule="evenodd" d="M118.409 106.913C118.649 106.346 118.889 105.779 119.128 105.211C119.422 104.517 119.961 103.688 120.675 103.874C120.889 103.93 121.071 104.077 121.214 104.25C121.942 105.136 121.608 106.529 120.927 107.455C120.461 108.089 119.853 108.613 119.164 108.976C118.744 109.196 118.221 108.788 118.125 108.313C118.029 107.838 118.221 107.358 118.409 106.913ZM120.267 106.928C120.484 106.652 120.706 106.366 120.802 106.026C120.898 105.685 120.836 105.272 120.564 105.055C119.668 105.912 119.016 107.035 118.708 108.252C118.928 108.459 119.264 108.203 119.452 107.964C119.724 107.619 119.995 107.273 120.267 106.928Z" fill="#E07613"/>
<path fill-rule="evenodd" clip-rule="evenodd" d="M104.237 108.269C105.324 107.4 107.137 107.93 107.711 109.215C108.285 110.501 107.592 112.181 106.334 112.757C106.004 112.908 105.646 112.993 105.285 113.006C104.621 113.029 103.922 112.777 103.523 112.232C103.108 111.665 103.081 110.886 103.213 110.189C103.35 109.456 103.664 108.727 104.237 108.269Z" fill="#E07613"/>
<path fill-rule="evenodd" clip-rule="evenodd" d="M129.716 54.619C128.832 55.4977 127.395 55.2271 126.208 54.8972C125.643 54.7405 125.079 54.5837 124.514 54.427C123.952 54.2707 123.26 54.1489 122.863 54.5875C122.495 54.9955 121.76 54.4345 121.867 53.8888C121.974 53.3431 122.559 53.0355 123.099 52.9776C124.999 52.7735 126.716 54.6302 128.602 54.3132C129.028 54.2415 129.647 54.1812 129.716 54.619L129.716 54.619Z" fill="#00160A"/>
<path fill-rule="evenodd" clip-rule="evenodd" d="M102.427 105.343C102.882 104.955 103.536 104.775 104.084 105.005C104.631 105.235 104.985 105.935 104.747 106.491C104.585 106.873 104.209 107.107 103.844 107.288C103.343 107.536 102.72 107.725 102.257 107.409C101.605 106.965 101.825 105.856 102.427 105.343M102.846 106.357C102.647 106.459 102.695 106.83 102.913 106.875C103.395 106.73 103.855 106.505 104.269 106.212C103.879 105.835 103.164 105.918 102.865 106.374L102.846 106.357Z" fill="#E07613"/>
<path fill-rule="evenodd" clip-rule="evenodd" d="M128.309 82.9617C127.536 83.1344 126.677 82.7765 126.24 82.0996C129.856 82.41 133.578 81.0915 136.239 78.5567C138.9 76.0219 140.46 72.3098 140.431 68.5823C140.224 68.6417 140.027 68.7322 139.845 68.85C139.436 68.6706 139.706 68.0342 140.02 67.7101L146.165 61.3741C147.228 60.2782 145.913 58.2141 144.406 58.2208C142.9 58.2274 141.693 59.5015 140.9 60.8168C139.993 62.3224 139.374 64.0106 139.089 65.7568L135.922 58.6585C135.549 59.3923 135.764 60.2053 135.983 61.0358C136.123 61.5633 136.264 62.0979 136.258 62.6237C136.23 64.8966 133.665 66.0767 131.537 66.7035L125.749 68.4091C124.217 68.8605 122.104 69.0529 121.48 67.5466C120.869 66.0705 118.423 66.0294 117.765 67.4842C117.142 68.8609 115.358 69.0863 113.88 69.0804C111.066 69.0692 108.252 68.9167 105.453 68.6235C105.023 68.5785 104.563 68.5164 104.244 68.2178C103.957 67.9498 103.842 67.5442 103.74 67.1602L101.901 60.2472C101.701 59.4936 101.505 58.6665 101.818 57.9544C102.131 57.2422 103.201 56.8771 103.659 57.5009C102.76 53.7807 102.607 49.8723 103.212 46.0901L104.358 57.4105L132.266 56.2057C132.873 56.1795 133.58 56.0956 133.895 55.5617C134.17 55.0937 134.01 54.4944 133.84 53.9759C133.158 51.8911 132.434 49.8206 131.669 47.7662C131.432 47.1314 131.173 46.4704 130.667 46.0324C129.592 45.102 127.979 45.5629 126.642 46.0096C121.354 47.7765 115.658 48.568 110.201 47.4693C104.744 46.3707 99.5523 43.2353 96.5917 38.401C92.2157 31.2555 93.3611 21.8714 96.3289 13.9995C98.188 9.06819 100.724 4.35469 104.214 0.466553C104.845 0.668367 105.061 1.52442 104.863 2.17208C104.714 2.65916 104.406 3.06744 104.1 3.47491L104.1 3.47495C103.998 3.60928 103.897 3.74352 103.802 3.88046C102.657 5.52635 102.323 7.73787 102.93 9.66255C103.796 12.4094 106.387 14.2839 109.105 15.0215C111.823 15.7592 114.689 15.5489 117.492 15.3333L125.754 14.6977C128.507 14.486 131.393 14.2968 133.91 15.4602C136.427 16.6236 138.371 19.6226 137.438 22.2903C137.15 23.1123 137.608 24.04 138.262 24.5984C138.734 25.0015 139.294 25.2677 139.854 25.5339C140.07 25.6364 140.285 25.7389 140.496 25.8493C143.688 27.5217 145.675 31.0174 146.455 34.6096C147.236 38.2018 146.976 41.9353 146.713 45.6059L146.161 53.2852C146.034 55.0549 145.947 56.984 146.939 58.4371C148.133 60.1872 146.822 62.6004 145.274 64.0291C145.009 64.274 144.732 64.5161 144.453 64.7597L144.453 64.7598C143.104 65.9376 141.714 67.152 141.42 68.897C140.577 73.914 138.482 79.3034 133.961 81.3919C133.344 81.677 132.699 81.8905 132.054 82.104C131.431 82.3103 130.808 82.5167 130.209 82.7878C129.643 83.0443 129.102 83.3575 128.561 83.6704L128.561 83.6705C127.777 84.1237 126.995 84.5761 126.14 84.8545C123.493 85.7171 120.604 84.7721 118.145 83.4457C112.486 80.3937 107.936 75.23 105.543 69.1437C106.467 69.1393 107.018 70.1637 107.414 71.0215C109.8 76.1887 113.938 80.4813 118.945 82.9834C121.924 84.4723 125.82 85.2077 128.309 82.9617ZM137.762 26.1572C137.486 26.0388 137.187 25.9282 136.895 25.9939C136.517 26.0791 136.287 26.4131 136.055 26.7506C135.947 26.9073 135.838 27.0647 135.714 27.1983C135.323 27.6199 134.356 27.5174 134.488 26.951C135.224 25.4456 135.971 23.9054 136.193 22.2362C136.414 20.5671 136.018 18.7156 134.781 17.6096C133.926 16.8449 132.782 16.5216 131.666 16.319C128.085 15.6695 124.433 16.034 120.799 16.3968L120.798 16.3968C120.027 16.4739 119.256 16.5508 118.486 16.618C114.094 17.0014 109.474 17.0199 105.524 15.0107C102.839 13.6451 101.24 10.3325 101.808 7.31105C97.0844 13.2175 94.9595 21.1131 95.5107 28.7354C95.6692 30.9272 96.0416 33.1183 96.8236 35.1641C98.7575 40.2231 103.165 44.0655 108.166 45.84C113.168 47.6145 118.695 47.4533 123.808 46.0507C128.921 44.6481 133.659 42.0577 138.073 39.0601C138.361 38.8649 138.734 39.2918 138.644 39.6336C138.555 39.9755 138.225 40.181 137.923 40.3514L130.266 44.6732C131.796 45.4986 132.623 47.226 133.273 48.8707C134.101 50.9662 134.807 53.113 135.384 55.2954L143.592 48.525C143.877 48.29 144.455 48.1741 144.467 48.5492L136.638 55.2355C136.243 55.573 135.807 56.0216 135.909 56.5388L143.355 50.241C144.15 49.5684 145 48.8019 145.162 47.7571C145.889 43.0742 146.593 38.1296 144.923 33.7085C143.651 30.3427 141.004 27.5513 137.762 26.1572ZM106.808 67.8685C107.136 68.1606 107.602 68.2096 108.035 68.2394C110.3 68.3952 112.575 68.3893 114.839 68.2216C115.689 68.1587 116.694 67.9631 117.033 67.16C117.441 66.1936 118.426 65.5147 119.452 65.4926C120.477 65.4704 121.489 66.1064 121.936 67.0543C122.417 68.0725 123.83 68.0195 124.907 67.7801C127.767 67.1441 130.58 66.2907 133.318 65.229C134.558 64.7481 135.279 63.352 135.386 61.9952C135.492 60.6384 135.102 59.2981 134.715 57.996C131.269 58.8082 127.716 58.9894 124.184 59.1677L102.83 60.2454L104.178 66.3487C104.276 66.7945 104.387 67.2641 104.696 67.5929C105.005 67.9218 105.583 68.0295 105.883 67.6918C104.95 65.4423 103.998 63.0155 104.481 60.6215L106.279 66.8197C106.39 67.2025 106.514 67.607 106.808 67.8685ZM133.415 57.743C133.84 57.7171 134.314 57.6666 134.588 57.3318C134.862 56.9969 134.652 56.3179 134.233 56.3922C127.767 57.5374 121.2 57.6491 114.628 57.7609C110.931 57.8238 107.234 57.8867 103.551 58.1335C102.992 58.171 102.253 58.4124 102.302 58.986C103.888 59.5369 105.609 59.4411 107.281 59.339L133.415 57.743ZM144.456 52.6336C144.853 52.2523 144.946 51.6519 145.017 51.0984L145.21 49.5803L136.694 56.8402C136.566 56.949 136.431 57.0699 136.395 57.236C136.356 57.4111 136.437 57.5882 136.516 57.7485L139.15 63.1121C139.697 59.1382 141.602 55.3756 144.456 52.6336ZM144.963 54.349C144.987 53.9383 144.996 53.4809 144.732 53.1713C143.413 54.7576 142.254 56.4844 141.28 58.315C141.16 58.5402 141.057 58.8563 141.248 59.0221C142.177 58.2239 143.256 57.6092 144.407 57.221C144.75 57.1053 144.83 56.6522 144.851 56.2818L144.963 54.349ZM110.285 95.043C100.683 99.0459 92.9548 107.532 89.7065 117.638C93.5211 120.21 103.201 123.056 103.201 123.056C104.618 123.43 106.158 123.292 107.49 122.671C101.556 122.05 95.7588 120.087 90.629 116.961C95.1066 105.497 105.137 96.4864 116.797 93.4553C117.779 95.5579 118.797 97.7123 120.453 99.3075C122.109 100.903 124.572 101.836 126.699 101.02C129.75 99.8492 132.66 98.2917 135.343 96.3941C136.408 98.5722 136.618 101.173 135.938 103.506L135.735 104.122C135.81 103.919 135.877 103.714 135.938 103.506L137.227 99.59L150.168 107.758C152.743 109.383 155.364 111.049 157.314 113.419C159.317 115.853 160.472 118.851 161.626 121.847C162.806 124.91 163.986 127.971 166.07 130.427C162.219 133.316 158.015 135.709 153.589 137.532L149.986 124.5L154.579 152.975C154.785 148.092 154.475 143.185 153.656 138.37C158.615 136.567 163.241 133.804 167.219 130.27C164.677 127.883 163.451 124.548 162.216 121.186C161.329 118.774 160.437 116.347 159.05 114.247C155.043 108.18 143.566 101.591 138.977 98.9568L138.977 98.9567C137.807 98.285 137.085 97.8704 137.048 97.7871C134.27 93.8227 132.592 89.0547 132.26 84.1824C131.715 88.1582 132.473 92.3108 134.384 95.8135C131.473 97.9484 128.152 99.9149 124.579 99.742C121.006 99.5692 117.39 96.3675 117.962 92.7415C120.838 92.0769 122.956 88.9529 122.565 85.9522C121.478 90.5735 116.587 92.5218 112.104 94.3073C111.486 94.5534 110.876 94.7965 110.285 95.043ZM88.1878 161.714C85.8644 162.249 83.0668 163.373 81.1872 165.654C79.8787 167.242 78.9841 168.475 78.2305 169.513C76.9841 171.231 76.1237 172.416 74.4151 173.797C75.3895 173.191 76.5206 174.521 76.5818 175.688C76.603 176.092 76.5676 176.506 76.5323 176.917C76.4658 177.692 76.4 178.46 76.7136 179.155C77.5275 178.641 78.3628 178.108 78.9236 177.317C79.4845 176.525 79.7103 175.403 79.2158 174.56C79.0468 174.272 79.2925 173.923 79.527 173.691C80.9744 172.255 82.6237 171.032 84.4093 170.071C84.665 170.842 84.5905 171.718 84.209 172.428L85.0853 173.472L83.083 178.622L88.1143 173.404C89.1156 172.366 90.4904 171.238 91.8182 171.793C92.4929 172.075 92.9206 172.715 93.3399 173.343C93.433 173.482 93.5257 173.621 93.6205 173.755C94.6429 175.199 96.1531 176.277 97.8304 176.761C97.8542 176.299 98.0888 175.855 98.4527 175.582C98.9531 176.417 99.7733 177.046 100.696 177.304L99.4333 171.849C99.3666 171.56 99.3032 171.242 99.4399 170.982C99.7834 170.329 100.777 170.791 101.242 171.365C101.707 171.94 102.396 172.66 103.024 172.288L102.518 170.523C102.347 169.927 102.626 168.932 103.148 169.252C103.319 169.357 103.382 169.574 103.431 169.771L104.395 173.631C105.601 172.227 105.465 170.003 104.569 168.362C104.433 168.114 104.32 167.85 104.201 167.572C103.531 166.014 102.67 164.008 96.6031 161.769C95.7116 161.44 94.7117 161.405 93.7119 161.369C93.212 161.352 92.712 161.334 92.2257 161.28C91.8545 161.239 90.6393 161.253 89.0874 161.53C90.8606 174.762 89.6026 174.769 88.1878 161.714ZM88.9464 160.466C89.415 160.408 89.893 160.379 90.3808 160.383C90.3007 160.383 106.602 159.645 106.637 172.05C106.64 173.25 105.948 174.724 104.779 174.677C107.268 181.109 110.165 187.378 113.446 193.431C110.349 194.453 107.033 194.789 103.792 194.41C99.4849 198.668 92.5131 199.823 87.0687 197.18C87.7951 198.431 85.5866 199.186 84.193 198.898L69.3972 195.837C68.2341 195.597 66.7851 195.018 66.8009 193.808C66.8127 192.909 67.6694 192.308 68.409 191.823C73.0398 188.787 76.6539 184.173 78.5399 178.889C77.8887 180.529 74.8763 179.822 74.9736 178.052C70.8674 176.456 66.7565 180.053 63.7988 183.339L46.9893 202.013L108.155 205.37C111.593 205.559 114.339 202.672 116.578 200.018L132.355 181.32L107.182 178.975C116.347 179.013 125.513 179.597 134.617 180.724C127.758 189.136 120.633 197.32 113.256 205.261C112.143 206.459 110.322 206.523 108.699 206.501C88.0307 206.222 67.3669 205.223 46.756 203.506C45.7356 203.04 46.3686 201.468 47.1195 200.631L62.4929 183.498C65.96 179.634 70.74 175.401 75.5946 177.182C76.1677 176.795 75.6847 176.282 75.1292 175.692C74.7569 175.296 74.3521 174.866 74.2109 174.416C74.0255 173.825 74.3749 173.214 74.7094 172.7C78.0797 167.515 82.3474 161.816 88.0714 160.613C86.6583 146.936 86.4154 132.669 91.5644 119.984C88.1134 133.126 87.2194 146.971 88.9464 160.466ZM136.869 128.34C136.86 127.295 137.021 126.226 137.18 125.17C137.519 122.919 137.848 120.73 136.506 118.979C135.327 117.44 133.257 116.961 131.35 116.912C127.918 116.825 124.263 117.707 121.84 120.204C121.551 120.502 121.438 121.3 121.755 121.228C122.482 121.063 123.083 120.721 123.673 120.385C124.198 120.086 124.714 119.792 125.304 119.63C126.558 119.286 127.995 119.383 129.018 120.204C126.458 119.726 121.524 121.229 121.84 122.511C122.071 123.451 123.509 122.887 124.779 122.388C125.242 122.206 125.682 122.033 126.033 121.945C127.173 121.66 128.88 121.786 128.897 122.99C128.908 123.718 128.2 124.209 127.578 124.558C127.103 124.824 126.445 125.085 125.786 125.345C124.469 125.865 123.151 126.386 123.303 126.957C123.515 127.756 124.53 127.424 125.666 127.052C126.552 126.761 127.513 126.446 128.224 126.626C129.801 127.025 130.483 128.891 130.917 130.499L131.143 131.336L131.143 131.336C133.413 139.753 135.692 148.199 139.086 156.205C141.436 161.746 144.446 167.214 149.133 170.87C149.682 171.299 150.283 171.713 150.969 171.793C151.635 171.871 152.294 171.623 152.908 171.346C157.752 169.165 161.562 164.956 164.013 160.142C164.993 158.217 165.782 156.164 166.076 154.013C166.34 152.084 166.203 150.123 166.017 148.184C165.627 144.103 165.028 140.043 164.223 136.026C164.029 135.057 163.879 133.891 164.588 133.221C165.627 138.06 166.381 142.964 166.845 147.897C167.049 150.067 167.196 152.265 166.866 154.418C166.519 156.679 165.652 158.828 164.575 160.833C162.188 165.277 158.726 170.171 154.587 172.944C153.917 173.393 153.21 173.823 152.422 173.966C150.681 174.283 149.017 173.151 147.693 171.946C141.003 165.861 137.649 155.809 134.865 147.088C133.938 144.184 133.047 141.268 132.193 138.34C132.289 139.485 132.268 140.882 131.306 141.468C130.693 141.843 129.919 141.724 129.219 141.586C123.63 140.483 118.135 138.884 112.814 136.814C111.878 136.449 110.853 135.979 110.477 135.027C109.886 133.533 111.23 132.029 112.442 131.003L120.418 124.251C120.615 124.085 120.839 123.909 121.093 123.927C121.347 123.946 121.563 124.291 121.383 124.476L112.824 131.677C111.854 132.494 110.785 133.794 111.428 134.9C111.712 135.388 112.254 135.64 112.765 135.856C117.856 138.007 123.218 139.404 128.604 140.575C129.277 140.721 129.99 140.862 130.641 140.636C131.293 140.409 131.83 139.672 131.599 139.006L128.817 130.962C128.449 129.898 128.24 128.401 129.235 127.922C127.6 127.36 125.76 127.454 124.187 128.179C123.236 128.617 122.472 126.978 123.07 126.102C123.573 125.366 124.458 125.089 125.315 124.822C125.478 124.771 125.64 124.72 125.799 124.667C126.789 124.332 127.867 123.579 127.795 122.511C126.064 122.783 124.357 123.213 122.7 123.794C121.914 124.069 121.109 123.286 120.91 122.458C120.377 120.238 122.558 118.339 124.613 117.457C126.75 116.539 129.053 116.029 131.369 115.961C131.839 115.947 132.112 115.422 132.285 114.972L134.546 109.11L129.561 107.668L126.025 116.378C125.278 115.978 125.659 114.822 126.087 114.076C127.471 111.666 128.353 108.954 128.656 106.173C130.726 105.891 132.897 106.487 134.553 107.794C134.822 108.007 135.09 108.254 135.197 108.585C135.334 109.012 135.176 109.474 135.02 109.894L132.702 116.112C134.774 116.114 136.788 117.46 137.628 119.406C138.358 121.098 138.212 122.973 138.066 124.851V124.851V124.851V124.851C138.006 125.62 137.946 126.388 137.946 127.145C137.946 132.065 140.511 136.551 142.996 140.757L145.621 145.2C146.469 146.636 147.322 148.079 148.382 149.358C150.399 151.791 153.152 153.57 156.16 154.384C153.52 154.569 150.952 153.224 149.035 151.35C147.119 149.475 145.748 147.102 144.403 144.761L140.227 137.499C138.627 134.716 136.894 131.571 136.869 128.34ZM129.635 129.228C129.573 129.048 129.494 128.848 129.321 128.777C129.032 129.242 129.156 129.85 129.303 130.381C129.879 132.459 130.659 134.477 131.629 136.394C131.249 133.937 130.44 131.575 129.635 129.228ZM129.429 106.829C130.692 107.488 132.1 107.853 133.516 107.887C132.299 107.122 130.853 106.748 129.429 106.829ZM131.859 137.554C131.791 137.752 131.944 137.995 132.147 138.013C132.088 137.482 131.926 136.964 131.674 136.496C131.573 136.837 131.632 137.223 131.829 137.515L131.859 137.554ZM150.702 180.725C150.429 180.622 150.433 180.229 150.488 179.935L151.328 175.429C151.381 175.145 151.5 174.797 151.78 174.777C152.133 174.751 152.257 175.246 152.242 175.609C152.178 177.161 151.879 178.703 151.359 180.163C151.249 180.47 151.001 180.838 150.702 180.725ZM74.5399 195.189C72.2329 195.495 69.6367 195.723 67.8151 194.231C67.7018 194.138 67.5894 194.034 67.5336 193.897C67.2983 193.32 68.1238 192.957 68.7175 192.815C70.7785 192.321 72.3062 190.594 73.5873 188.877C76.4833 184.996 78.8438 180.698 80.5783 176.147C80.6131 176.056 80.6478 175.964 80.6827 175.872C81.3137 174.208 81.9797 172.452 83.4067 171.446C83.9842 174.004 83.3985 176.802 81.8505 178.883C82.0963 179.359 82.7394 179.493 83.2365 179.321C83.7337 179.149 84.1178 178.751 84.4823 178.366L88.5075 174.117C89.4527 173.119 90.951 172.064 92.0255 172.929C92.3764 173.211 92.5659 173.632 92.7554 174.053C92.8277 174.213 92.9 174.374 92.9812 174.527C93.914 176.282 95.8468 176.867 97.8039 177.458C98.7199 177.735 99.6412 178.014 100.468 178.415C100.753 178.553 101.162 178.678 101.327 178.404C101.382 178.312 101.387 178.197 101.39 178.089C101.438 175.937 100.956 173.771 99.9993 171.846C101.726 172.711 103.609 173.748 104.247 175.6C106.326 181.631 108.859 187.501 111.816 193.14C108.282 193.788 104.612 193.678 101.112 192.818C101.043 193.705 101.767 194.581 102.636 194.661C100.909 195.189 99.1917 195.749 97.4852 196.34L98.7864 197.439C94.3477 197.719 89.8656 197.342 85.5237 196.324C85.6055 197.047 85.7519 197.763 85.9605 198.46C82.7472 197.878 79.5782 197.033 76.4938 195.935L77.0044 194.863L74.5399 195.189Z" fill="#00160A"/>
<path fill-rule="evenodd" clip-rule="evenodd" d="M103.74 103.626C103.406 103.772 102.976 103.781 102.721 103.516C102.405 103.189 102.511 102.636 102.708 102.222C102.882 101.854 103.125 101.5 103.481 101.318C103.837 101.135 104.323 101.176 104.569 101.497C104.72 101.694 104.76 101.961 104.739 102.211C104.689 102.821 104.289 103.388 103.74 103.626Z" fill="#E07613"/>
<path fill-rule="evenodd" clip-rule="evenodd" d="M112.672 54.7518C112.158 54.9835 111.698 54.3301 111.167 54.1395C110.614 53.9406 110.026 54.272 109.524 54.5839C108.468 55.2402 107.392 55.8633 106.299 56.4519C106.075 56.5727 105.831 56.6956 105.58 56.6619C105.329 56.6282 105.094 56.3612 105.186 56.1189C105.238 55.9829 105.37 55.9003 105.493 55.8276C106.414 55.2851 107.334 54.7427 108.254 54.2003C109.442 53.4998 110.812 52.7752 112.12 53.1945C112.454 53.3017 112.783 53.5009 112.936 53.8245C113.089 54.1482 112.993 54.6074 112.672 54.7518V54.7518Z" fill="#00160A"/>
<path fill-rule="evenodd" clip-rule="evenodd" d="M114.944 74.8172C114.631 75.5971 114.155 76.5022 113.335 76.5423C112.601 76.5782 112.028 75.8486 111.855 75.1157C111.614 74.0947 111.993 72.8765 112.906 72.4023C113.819 71.9281 115.16 72.5364 115.234 73.5841C115.264 74.0099 115.103 74.4225 114.944 74.8172H114.944Z" fill="#E07613"/>
<path fill-rule="evenodd" clip-rule="evenodd" d="M131.005 74.1582L131.013 74.3233C131.061 75.1294 131.234 76.0398 131.943 76.3447C132.62 76.636 133.402 76.152 133.809 75.5239C134.375 74.649 134.424 73.3712 133.725 72.605C133.025 71.8388 131.562 71.9392 131.144 72.8978C130.973 73.2873 130.988 73.7317 131.005 74.1582Z" fill="#E07613"/>
<path fill-rule="evenodd" clip-rule="evenodd" d="M132.42 59.3076C132.634 59.2496 132.9 59.2469 133.033 59.4286C133.122 59.5496 133.121 59.7144 133.113 59.8657C133.078 60.5286 132.801 61.3621 132.155 61.377C131.658 61.3884 131.286 60.8021 131.387 60.3022C131.488 59.8023 131.939 59.4379 132.42 59.3076V59.3076Z" fill="#E07613"/>
<path fill-rule="evenodd" clip-rule="evenodd" d="M131.329 64.7525C131.013 64.1774 131.653 63.5556 132.21 63.2251C132.672 62.9507 133.399 62.7549 133.622 63.253C133.776 63.5956 133.522 63.9755 133.282 64.2612C133.023 64.5693 132.749 64.8875 132.381 65.0373C132.013 65.1872 131.523 65.1067 131.329 64.7525L131.329 64.7525Z" fill="#E07613"/>
<path fill-rule="evenodd" clip-rule="evenodd" d="M126.914 62.056C126.83 62.2803 126.738 62.5124 126.561 62.6698C126.316 62.8879 125.953 62.9164 125.641 62.8285C125.009 62.6506 124.527 61.9942 124.567 61.322C124.607 60.6498 125.189 60.048 125.845 60.0349C126.501 60.0218 127.116 60.63 127.099 61.3032C127.092 61.5632 127.004 61.813 126.914 62.056Z" fill="#00160A"/>
<path fill-rule="evenodd" clip-rule="evenodd" d="M111.093 63.0641C110.366 62.9869 109.825 62.1289 110.053 61.416C110.281 60.7031 111.212 60.3421 111.842 60.7227C112.472 61.1032 112.617 62.1147 112.121 62.6657C111.863 62.9521 111.471 63.1042 111.093 63.0641H111.093Z" fill="#00160A"/>
<path fill-rule="evenodd" clip-rule="evenodd" d="M119.654 73.4206L121.095 73.1448L121.112 73.3761C121.221 74.9943 120.965 75.7533 120.343 75.6529C119.71 75.5509 119.476 74.8447 119.639 73.5344L119.654 73.4206ZM120.773 73.5609L120.13 73.7455C120.044 74.6714 120.147 75.1694 120.437 75.2397C120.728 75.31 120.839 74.7504 120.773 73.5609Z" fill="#00160A"/>
<path fill-rule="evenodd" clip-rule="evenodd" d="M122.566 73.0907L124.494 72.8186L124.517 73.042C124.665 74.6414 124.321 75.3917 123.488 75.2926C122.639 75.1917 122.325 74.4923 122.548 73.1944L122.566 73.0907ZM122.883 73.2606C122.755 74.0402 122.893 74.8825 123.329 74.9417C123.764 75.0008 124.081 74.4615 123.981 73.4599L123.818 73.4155C123.692 73.3824 123.591 73.3589 123.515 73.345L123.412 73.328C123.28 73.3075 123.104 73.285 122.883 73.2606Z" fill="#00160A"/>
<path fill-rule="evenodd" clip-rule="evenodd" d="M100.795 139.024C100.336 139.723 99.8771 140.422 99.418 141.121C99.1387 141.117 99.1218 140.693 99.2013 140.418C99.6299 138.935 100.058 137.453 100.487 135.97C100.185 135.832 99.9063 136.199 99.7662 136.506C98.3517 139.614 96.9321 142.735 95.9711 146.02C95.0101 149.306 94.5177 152.786 94.9987 156.18C95.3121 155.428 95.6256 154.676 95.9391 153.924C96.437 152.73 96.9369 151.532 97.5813 150.414C98.2831 149.196 99.1507 148.084 99.8226 146.848C100.495 145.613 100.971 144.2 100.79 142.797C100.519 143.185 100.248 143.572 99.9771 143.959C99.2103 142.427 101.276 140.674 100.795 139.024Z" fill="#E07613"/>
<path fill-rule="evenodd" clip-rule="evenodd" d="M80.9957 137.367C81.6917 137.377 81.0905 135.884 81.7168 135.572C82.1138 135.374 82.479 135.893 82.6279 136.319C83.6317 139.194 84.2198 142.222 84.3672 145.273C84.5341 148.727 86.8407 152.081 85.9031 155.402C85.8367 155.638 85.748 155.878 85.5704 156.041C84.9329 156.627 84.0065 155.774 83.6011 155C82.2104 152.346 81.263 149.448 80.8128 146.469C80.7136 145.813 80.6329 145.136 80.322 144.554C80.0605 144.065 79.652 143.674 79.3659 143.2C78.8021 142.265 78.7643 141.105 78.743 140.006C78.704 137.997 78.665 135.988 78.6261 133.978C78.6119 133.248 78.7825 132.285 79.4889 132.201C80.2477 133.829 80.7581 135.578 80.9957 137.367Z" fill="#E07613"/>
<path fill-rule="evenodd" clip-rule="evenodd" d="M67.8187 194.351C69.6338 195.843 72.2272 195.604 74.5319 195.289C75.3526 195.177 76.1733 195.065 76.9941 194.953C76.8231 195.313 76.6521 195.672 76.4811 196.032C79.5584 197.123 82.721 197.961 85.9283 198.534C85.722 197.835 85.5777 197.116 85.498 196.39C89.8314 197.398 94.3065 197.761 98.7401 197.464C98.308 197.097 97.8758 196.731 97.4437 196.365C99.1496 195.765 100.866 195.196 102.592 194.66C101.725 194.583 101.004 193.706 101.075 192.815C104.568 193.666 108.233 193.764 111.764 193.101C108.827 187.448 106.314 181.562 104.254 175.514C103.622 173.656 101.744 172.621 100.022 171.758C100.972 173.688 101.448 175.861 101.394 178.023C101.391 178.132 101.385 178.246 101.33 178.339C101.165 178.615 100.757 178.491 100.472 178.353C97.8863 177.099 94.3665 177.058 93.0061 174.475C92.7138 173.92 92.5391 173.264 92.0561 172.874C90.9854 172.009 89.4862 173.074 88.5395 174.079C87.1956 175.506 85.8518 176.933 84.5079 178.36C84.1427 178.748 83.758 179.149 83.2611 179.324C82.7641 179.498 82.1223 179.366 81.8781 178.889C83.4298 176.794 84.0225 173.981 83.4529 171.416C81.946 172.486 81.2833 174.394 80.6152 176.146C78.8703 180.722 76.501 185.047 73.5981 188.954C72.3139 190.683 70.7834 192.423 68.7238 192.926C68.1305 193.07 67.3051 193.438 67.5385 194.017C67.5938 194.154 67.7058 194.258 67.8187 194.351Z" fill="white"/>
<path fill-rule="evenodd" clip-rule="evenodd" d="M103.313 160.711C101.859 146.897 101.553 132.455 106.759 119.63C103.243 133.02 102.381 147.139 104.242 160.876C106.104 174.625 104.766 174.513 103.313 160.711Z" fill="#00160A"/>
<path fill-rule="evenodd" clip-rule="evenodd" d="M87.3578 124.05C87.441 123.127 87.5593 122.208 87.7122 121.294C87.7933 120.81 88.4879 120.689 88.8682 120.986C89.2486 121.284 89.3824 121.801 89.486 122.28C91.0801 129.654 91.1604 137.37 89.7202 144.778C89.5841 145.477 89.2297 146.347 88.536 146.306C87.93 146.27 87.6268 145.552 87.4613 144.952C86.1434 140.177 84.9676 135.359 83.9361 130.51C83.6697 129.257 83.4114 127.98 83.5193 126.703C83.6272 125.425 84.1551 124.126 85.1776 123.39C85.5719 123.107 86.0596 122.912 86.5321 123.006C87.0047 123.101 87.4238 123.56 87.3578 124.05" fill="#E07613"/>
<path fill-rule="evenodd" clip-rule="evenodd" d="M101.146 171.57C101.658 172.477 103.367 172.797 103.132 172.232C102.896 171.667 102.822 171.192 102.587 170.628C102.348 170.056 102.509 169.028 103.063 169.28C103.244 169.362 103.332 169.571 103.404 169.761C103.872 171.003 103.899 172.351 104.367 173.593C106.11 172.038 105.024 168.266 103.945 166.745C102.866 165.224 102.492 162.973 95.1028 161.261C93.7205 160.941 92.1233 160.95 90.6587 160.975C89.6953 160.991 83.2793 162.109 80.2226 166.245C77.1659 170.381 76.8862 171.304 74.4277 173.864C75.3458 173.593 76.3446 174.427 76.541 175.582C76.7374 176.738 75.9415 178.324 76.541 179.322C79.9153 178.512 79.3667 175.603 79.572 175.341C80.8389 173.724 81.8914 171.173 83.9879 171.105C84.3309 171.84 84.1914 172.677 84.0639 173.481C84.3938 173.79 83.3965 177.087 82.9351 178.884C84.3943 176.935 86.5875 175.901 88.0467 173.952C88.918 172.788 90.1488 171.488 91.529 171.87C92.3858 172.107 92.891 173.284 93.4943 173.952C94.6754 175.261 96.0849 176.492 97.8029 176.758C97.7728 176.295 98.2051 176.117 98.5338 175.799C99.1268 176.566 99.8716 177.289 100.816 177.428C100.187 175.669 100.249 173.797 99.6202 172.038C99.5205 171.76 99.4206 171.45 99.5258 171.173C99.79 170.478 100.634 170.662 101.146 171.57Z" fill="#E07613"/>
<path fill-rule="evenodd" clip-rule="evenodd" d="M169.47 66.4021C170.337 66.3806 170.998 66.5555 172.247 67.0683C172.247 67.0683 174.523 68.1739 174.442 68.4554C174.36 68.7369 173.066 68.5604 172.601 68.3659L172.014 68.119C170.924 67.6657 170.342 67.4866 169.719 67.4665L169.639 67.4645L169.635 67.5005L169.631 67.5428C169.618 67.7599 169.664 68.0466 169.732 68.2114C169.859 68.5181 170.01 68.8199 170.181 69.1143L170.293 69.3007L170.423 69.3163C172.093 69.5323 173.708 70.1971 174.759 71.1529L174.853 71.2406C176.026 72.3634 176.535 73.1709 176.27 73.8003C175.977 74.4954 175.15 74.4401 174.09 73.9881C172.556 73.334 170.943 72.0372 169.803 70.4476L169.711 70.3175L169.682 70.3159C169.485 70.3052 169.288 70.3019 169.093 70.3063L168.946 70.311C166.849 70.4001 165.371 71.3369 164.961 73.018C164.823 73.5823 164.907 74.168 165.166 74.7387L165.217 74.8462L165.236 74.8471C167.161 74.927 168.979 75.5066 169.986 76.4459L170.064 76.5208C170.606 77.0601 170.949 77.5136 171.096 77.9011C171.296 78.4251 171.149 78.921 170.672 79.1378C170.106 79.3959 169.102 79.1769 167.984 78.6436C166.571 77.9692 165.38 77.0283 164.646 75.9518L164.613 75.9031L164.51 75.9053C164.415 75.9078 164.32 75.9117 164.225 75.9169L164.083 75.9259C161.803 76.0866 160.135 76.9967 159.708 78.4328C159.549 78.9686 159.678 79.7036 160.017 80.4707L160.035 80.5106L160.131 80.5086C161.239 80.4942 162.36 80.8681 163.354 81.684L163.517 81.8198C163.639 81.9188 163.865 82.0961 163.843 82.0788L163.986 82.1961C164.625 82.7356 164.886 83.1778 164.586 83.7896C163.826 85.3437 162.099 84.8125 160.567 83.1552C160.162 82.7173 159.804 82.2406 159.508 81.7493L159.448 81.6473L159.366 81.6643C158.573 81.8385 157.812 82.2616 157.158 82.9039L157.077 82.9854C155.743 84.3529 155.411 86.1145 156.297 87.4992L156.358 87.5919L156.412 87.6171C156.72 87.7633 157.057 87.9458 157.457 88.1774L157.867 88.4185L158.351 88.7056C158.403 88.7356 158.446 88.7644 158.486 88.797C158.611 88.9001 158.69 89.0023 158.7 89.2139C158.718 89.588 158.479 89.7453 158.233 89.7788C158.169 89.7875 158.113 89.7855 158.05 89.7778C157.917 89.7614 157.719 89.7089 157.491 89.6335C156.944 89.4527 156.444 89.2212 156.19 88.9864C156.015 88.8241 155.857 88.6548 155.715 88.4796L155.699 88.4594L155.694 88.4579C155.435 88.3499 155.194 88.2728 154.941 88.2139L154.865 88.1967C154.036 88.0174 153.151 88.0714 151.833 88.3169C149.755 88.7042 148.767 90.733 149.126 92.4151L149.134 92.454L149.166 92.466C149.516 92.5992 149.873 92.8065 150.36 93.13L150.789 93.417C151.262 93.729 151.581 94.0379 151.764 94.4556C151.991 94.9721 151.597 95.8363 150.923 95.641C149.622 95.2637 148.777 94.432 148.349 93.4307L148.312 93.341L148.294 93.3381C146.215 93.0351 143.439 94.1191 141.74 95.8164L141.641 95.917C140.962 96.6226 140.556 97.3173 140.446 97.9748L140.441 98.0045L140.551 97.9963C141.026 97.9645 141.453 97.9747 141.801 98.0313L141.903 98.0497C143.486 98.3646 144.463 98.7184 144.935 99.1514C145.541 99.7085 145.388 100.399 144.765 100.87C144.02 101.433 142.254 101.921 141.787 101.673C140.551 101.017 139.808 100.184 139.518 99.2701L139.497 99.2026L139.477 99.2067C138.813 99.3307 138.106 99.5216 137.444 99.7696L137.303 99.8236C135.439 100.554 134.436 101.616 134.17 102.742C133.85 104.1 136.872 106.854 136.638 107.024C136.405 107.194 135.422 106.29 134.94 105.821L134.857 105.741C133.494 104.419 133.036 103.754 133.139 102.642C133.293 100.983 134.741 99.6886 136.934 98.8295C137.708 98.5264 138.547 98.2953 139.34 98.151L139.385 98.1425L139.389 98.0924C139.467 97.1543 139.959 96.177 140.829 95.2484L140.904 95.169C142.68 93.3242 145.542 92.1038 147.918 92.2332L148.041 92.2412L148.033 92.1659C147.841 90.0922 149.094 87.8175 151.52 87.2958L151.648 87.27L151.999 87.2073C153.14 87.013 153.999 86.9666 154.83 87.1076L154.972 87.134L154.952 87.0721C154.456 85.4904 154.953 83.7117 156.262 82.3188L156.345 82.2323C157.098 81.4609 157.987 80.9312 158.924 80.6783L158.969 80.6663L158.943 80.6008C158.621 79.7557 158.512 78.9222 158.691 78.2175L158.718 78.1222C159.287 76.2077 161.279 75.0922 163.87 74.8753L164.012 74.8644L164.082 74.8597L164.061 74.8021C163.847 74.1756 163.792 73.5225 163.932 72.8635L163.956 72.7594C164.493 70.5571 166.391 69.3547 168.903 69.2479L169.064 69.2428L169.045 69.2061C168.972 69.0632 168.904 68.919 168.841 68.7735L168.779 68.6276C168.646 68.3081 168.574 67.8551 168.598 67.4738C168.635 66.8807 168.9 66.4163 169.47 66.4021ZM141.706 99.0942C141.437 99.0409 141.083 99.0282 140.677 99.0527L140.551 99.0611L140.566 99.0992C140.794 99.6534 141.282 100.163 142.048 100.608L142.186 100.686L142.243 100.682L142.321 100.672C142.487 100.649 142.699 100.604 142.921 100.543C143.432 100.401 143.898 100.204 144.151 100.012L144.184 99.9873L144.238 99.9396L144.213 99.9179C143.909 99.6673 143.125 99.3853 141.845 99.1223L141.706 99.0942ZM160.661 81.6044L160.675 81.6246C160.868 81.9 161.083 82.1687 161.318 82.4226C162.406 83.5998 163.325 83.9008 163.64 83.3509L163.646 83.3398C163.643 83.34 163.64 83.3386 163.636 83.335L163.618 83.3117C163.555 83.2215 163.446 83.1144 163.274 82.9726L163.175 82.8928L162.902 82.6775L162.789 82.5837C162.17 82.0527 161.489 81.7393 160.798 81.6245L160.661 81.6044ZM166.024 75.9801L166.057 76.0155C166.666 76.6546 167.482 77.2306 168.421 77.6787C169.097 78.0012 169.717 78.174 170.049 78.1886L170.086 78.1893L170.067 78.1544C169.955 77.9572 169.741 77.6897 169.425 77.367L169.343 77.2852C168.713 76.6583 167.537 76.1974 166.193 76.0033L166.024 75.9801ZM171.214 70.5437L171.313 70.6554C172.253 71.6999 173.401 72.5422 174.487 73.0055C174.738 73.1125 174.962 73.1854 175.142 73.2224L175.197 73.2321L175.162 73.1747C174.975 72.8779 174.635 72.487 174.147 72.0188C173.463 71.364 172.428 70.8504 171.289 70.5621L171.214 70.5437Z" fill="#E07613"/>
<path fill-rule="evenodd" clip-rule="evenodd" d="M136.896 25.9939C136.342 26.1187 136.106 26.7767 135.715 27.1983C135.323 27.6199 134.357 27.5174 134.488 26.951C135.224 25.4456 135.971 23.9054 136.193 22.2362C136.414 20.5671 136.019 18.7156 134.781 17.6096C133.926 16.8449 132.783 16.5216 131.666 16.319C127.325 15.5316 122.879 16.2345 118.487 16.618C114.094 17.0014 109.475 17.0199 105.524 15.0106C102.839 13.6451 101.24 10.3324 101.808 7.31104C97.0847 13.2175 94.9598 21.1131 95.511 28.7354C95.6695 30.9272 96.0418 33.1183 96.8239 35.1641C98.7578 40.2231 103.165 44.0655 108.167 45.84C113.169 47.6145 118.696 47.4533 123.808 46.0507C128.921 44.6481 133.659 42.0577 138.073 39.0601C138.361 38.8649 138.734 39.2918 138.645 39.6336C138.555 39.9754 138.225 40.1809 137.923 40.3514C135.371 41.792 132.818 43.2326 130.266 44.6732C131.796 45.4986 132.623 47.226 133.273 48.8707C134.102 50.9662 134.807 53.1129 135.385 55.2954C138.12 53.0386 140.856 50.7818 143.592 48.525C143.877 48.29 144.455 48.1741 144.467 48.5491C141.858 50.7779 139.248 53.0067 136.639 55.2355C136.243 55.573 135.807 56.0216 135.909 56.5388C138.391 54.4396 140.873 52.3403 143.355 50.241C144.15 49.5684 145 48.8019 145.162 47.7571C145.89 43.0741 146.593 38.1296 144.923 33.7085C143.652 30.3427 141.004 27.5513 137.762 26.1572C137.487 26.0388 137.187 25.9282 136.896 25.9939Z" fill="white"/>
<path fill-rule="evenodd" clip-rule="evenodd" d="M119.132 66.8241C119.371 66.8371 119.553 67.0458 119.541 67.2903L119.525 67.5731C119.454 68.7652 119.346 69.5284 119.179 69.9188C119.011 70.3092 119.388 70.3038 119.516 70.2725C119.643 70.2411 121.063 68.6948 121.229 68.8705C121.396 69.0462 121.391 69.3268 121.22 69.4974L121.04 69.6756C120.31 70.3906 119.837 70.7646 119.516 70.8438C119.233 70.9134 118.706 71.0821 118.639 70.7019C118.512 69.9749 118.996 69.187 119.117 68.2071C119.195 67.5723 119.002 66.8282 119.088 66.824L119.132 66.8241Z" fill="#00160A"/>
</svg>
