<svg width="199" height="226" viewBox="0 0 199 226" fill="none" xmlns="http://www.w3.org/2000/svg">
<path d="M88.86 0H0.290039V0.119995H0.0700684C0.0700684 0.119995 0.460089 61.39 22.5901 107.27C28.0901 96.88 37.1601 85.94 42.0901 80.99C36.1701 63.75 32.94 45.16 31.38 28.05H31.6901V27.91H90.41C138.9 27.91 163.3 56.75 163.3 112.85C163.3 168.95 138.9 197.78 90.41 197.78H31.6901V196.34C35.5201 162.72 45.5501 122.96 62.6901 108.69C72.3701 100.62 83.1201 96.86 91.6901 96.86C114.97 96.86 124.49 111.38 124.49 111.38C124.49 111.38 116.49 126.72 93.8401 126.43C72.6001 126.16 65.1901 114.55 65.1901 114.55C63.2195 116.742 61.4208 119.082 59.8101 121.55C59.8101 121.55 56.07 127.97 55 130.22C53.62 133.11 51.74 138.76 51.74 138.76C94.49 166.99 119.38 149.83 127.98 146.07C143.22 139.41 153.74 125.94 153.53 111.92C153.26 93.92 139.01 83.92 127.18 77.51C100.92 63.18 64.8001 68.91 47.0601 84.51C2.58006 123.6 0 225.66 0 225.66H88.8C162.33 225.66 198.46 183.2 198.46 112.84C198.46 42.48 162.39 0 88.86 0Z" fill="white"/>
</svg>
