<svg width="211" height="218" viewBox="0 0 211 218" fill="none" xmlns="http://www.w3.org/2000/svg">
<g clip-path="url(#clip0_305_525)">
<path fill-rule="evenodd" clip-rule="evenodd" d="M54.1742 203.901C53.8688 204.099 53.4743 204.034 53.2394 203.746C51.8283 202.425 50.2358 201.358 48.7859 200.087C48.0106 199.399 47.1842 198.779 46.3147 198.233C45.679 197.841 45.2014 197.229 44.5928 196.783L44.4233 196.665C43.6785 196.179 43.0743 195.477 42.3562 194.931C41.7502 194.471 41.3145 193.788 40.7073 193.294C39.8321 192.565 38.9919 191.79 38.1898 190.97C37.6161 190.512 37.1257 189.945 36.7426 189.299C36.6566 189.114 36.4986 189.074 36.3845 188.96C35.879 188.486 35.4011 187.98 34.9533 187.444C34.0357 186.281 33.014 185.213 32.1143 184.037C31.4619 183.183 30.7649 182.375 30.09 181.544C29.4411 180.744 28.807 179.931 28.1877 179.103C26.7312 177.172 25.3818 175.152 24.1464 173.052C23.1984 171.396 22.3386 169.683 21.5714 167.923C20.8953 166.524 20.3073 165.078 19.8111 163.595C19.4514 162.397 18.9267 161.248 18.6741 160.038C18.4358 158.897 18.1376 157.761 17.8745 156.635C17.2646 154.024 16.7541 151.396 16.3427 148.75C16.0989 147.193 15.8848 145.619 15.6188 144.071C15.3067 142.255 15.1899 140.415 14.8832 138.599C14.7045 137.535 14.651 136.408 14.5339 135.317C14.4202 134.26 14.4456 133.192 14.2701 132.143C14.1292 131.091 14.0384 130.031 13.998 128.969C13.9298 127.983 13.6426 126.946 13.9472 125.935C13.4697 125.227 13.7974 124.407 13.7203 123.648C13.6432 122.889 13.6133 122.116 13.4953 121.378C13.3734 120.617 13.2689 119.838 13.1686 119.082C12.9645 117.547 12.6243 116.041 12.4184 114.516C12.2921 113.585 11.9133 112.762 11.716 111.868C11.3293 110.158 10.7844 108.494 10.0893 106.9C9.79849 106.265 9.59952 105.587 9.49923 104.889C9.43556 104.357 8.97163 104.131 8.83507 103.646C8.61423 102.862 8.26996 102.118 7.99206 101.352C7.94301 101.092 7.7665 100.881 7.53034 100.799L7.72021 100.127C7.61909 99.8524 7.51542 100.178 7.37675 100.091C7.23497 99.7879 7.00914 99.4997 7.04954 99.0867C7.08824 98.6985 6.6761 98.5836 6.58823 98.2221C6.39431 97.4368 5.58282 96.9021 5.75289 95.9516C5.19525 95.4119 5.00616 94.6299 4.62648 93.9727C4.4265 93.6654 4.33533 93.2932 4.36752 92.9223L4.37715 92.8368C4.4405 92.474 3.77153 92.4321 4.02988 91.9694C3.15928 90.9737 3.11607 89.607 2.76615 88.4156C2.20523 86.5038 1.50474 84.627 1.24394 82.6002C1.11319 81.5863 0.702219 80.5731 0.55092 79.5429C0.210257 77.227 -0.278788 74.9323 -0.359247 72.5723C-0.39205 71.5974 -0.628177 70.6302 -0.652399 69.6543L-0.680135 68.5264C-0.719381 66.8344 -0.741765 65.1414 -0.662827 63.4491C-0.701051 63.0567 -0.635655 62.6607 -0.474052 62.306C-0.236533 61.9125 -0.636174 61.5565 -0.601577 61.1233C-0.562859 60.609 -0.29475 60.1655 -0.342085 59.6028C-0.368162 59.2929 -0.215093 58.8315 -0.244479 58.472C-0.339602 57.3029 0.204066 56.2182 0.0832023 55.0521C0.10591 54.6145 0.219692 54.1878 0.416256 53.8031C0.851694 52.4777 0.696881 51.0112 1.30068 49.7507C1.58887 49.1272 1.73732 48.4413 1.73516 47.7473L1.73052 47.479C1.72831 47.2803 1.73665 47.089 1.84616 46.9762C2.30443 46.5054 2.28968 45.8401 2.48038 45.2725C2.68454 44.6645 2.68914 43.9878 2.97142 43.3825C3.31594 42.8027 3.56136 42.1621 3.69624 41.4905C3.79597 40.3273 4.3262 39.3666 4.72261 38.344C4.92041 37.833 4.93356 37.1837 5.54531 36.8912C5.85648 36.7424 5.26491 36.2283 5.71126 36.0087L5.76314 35.9864C6.08417 35.865 6.11844 35.578 6.09239 35.2216C6.06855 34.8957 6.61263 34.7762 6.51974 34.4299C6.42686 34.0836 6.43785 33.6069 6.61752 33.5803C7.06698 33.5112 6.71646 32.935 7.08873 32.9084C7.12716 32.8946 7.15744 32.8626 7.17071 32.8216C7.48998 31.6472 8.37202 30.8001 8.74759 29.637C9.00027 28.9479 9.37255 28.3161 9.84481 27.7747C10.2497 27.2425 10.6127 26.6753 10.93 26.079C11.5059 25.0844 12.3369 24.3195 12.8976 23.3272C13.0496 23.0588 13.7311 23.2866 13.474 22.6282C13.9062 22.5513 13.857 22.0768 14.067 21.8259C14.2824 21.6469 14.5223 21.5045 14.7783 21.4038C15.0331 20.7983 15.4178 20.2655 15.9012 19.8485C16.7852 18.8807 17.7257 17.9736 18.7169 17.1326L19.5348 16.4426C20.6279 15.5229 21.7463 14.6325 23.0734 14.1067C23.4147 13.9715 23.3345 13.578 23.6217 13.4271C25.2889 12.5393 26.8655 11.4728 28.6894 10.9056C29.4527 10.6676 30.1632 10.1239 30.9445 9.87388C32.5127 9.37147 34.005 8.64731 35.6628 8.38376C36.6442 8.22832 37.6391 7.8999 38.6397 7.71389C40.7064 7.26526 42.8161 7.08424 44.9233 7.17474L46.2178 7.26339C47.3685 7.34247 48.5188 7.4324 49.6643 7.61378C50.2065 7.69975 50.6938 7.98037 51.1986 8.00735C51.6903 8.03299 52.1718 8.16718 52.6126 8.40149C52.9619 8.58071 53.3285 8.30089 53.6941 8.5574C53.9644 8.81803 54.3357 8.91942 54.6875 8.8326L54.7575 8.81272C54.9644 8.73183 55.2979 9.01638 55.5725 9.13932C55.979 9.28007 56.3706 9.46564 56.7412 9.69303C57.0227 9.90267 57.4942 9.48861 57.6223 10.0474C58.0633 9.79832 58.3923 10.1444 58.7538 10.2948L58.8033 10.3141C59.1667 10.4451 59.5135 10.6292 59.8676 10.7898L61.0481 11.3254C61.3779 11.5374 61.7372 11.6919 62.1124 11.7832C62.8104 11.8268 63.3631 12.285 64.0358 12.4242C64.7787 12.6402 65.4937 12.9536 66.1646 13.3573C66.7701 13.6658 67.4649 13.5153 68.0684 13.8934C68.6357 14.3062 69.2771 14.5884 69.9519 14.7222C70.6441 14.7953 71.2221 15.2702 71.8402 15.3106L71.9566 15.3129C72.7473 15.2953 73.2781 15.8987 73.9683 15.9798C75.4733 16.1564 76.8743 16.8379 78.3477 17.045C80.2064 17.3061 82.0229 17.8124 83.9036 17.9782C85.1258 18.086 86.3567 18.1525 87.5802 18.2608C88.806 18.3182 90.0341 18.2641 91.2513 18.0993C92.7757 17.9372 94.2853 17.6439 95.7655 17.2221C97.2604 16.8158 98.68 16.1717 100.162 15.7421C100.838 15.546 101.465 15.2216 102.152 15.0461C102.891 14.8572 103.563 14.3598 104.303 14.1679C106.154 13.6877 107.854 12.6756 109.764 12.4162C111.966 11.3894 114.374 11.2101 116.659 10.521C117.722 10.1994 118.861 10.1759 119.972 10.0291L120.21 9.99556C122.177 9.70242 124.158 9.62254 126.139 9.5226C127.956 9.4467 129.777 9.49876 131.588 9.67844C132.892 9.79611 134.191 9.98145 135.496 10.0729C136.026 10.1104 136.47 10.5982 137.034 10.3575C138.12 10.9052 139.386 10.7272 140.462 11.3177C141.259 11.2205 141.921 11.6521 142.581 12.0028C143.084 12.2715 143.643 12.0159 144.138 12.3653C144.582 12.7301 145.108 12.9634 145.663 13.0415C146.601 13.0639 147.338 13.5728 148.139 13.9194C150.001 14.7252 151.85 15.5654 153.686 16.4399C154.288 16.7269 155.005 16.7952 155.459 17.4118C155.857 17.9529 156.65 17.8102 157.027 18.4315C157.164 18.6577 157.442 18.3221 157.674 18.5171C158.124 18.8974 158.796 18.829 159.176 19.4335C159.458 19.8809 160.151 19.7448 160.457 20.2785L160.496 20.3555C160.666 20.7329 161.391 20.0554 161.443 20.8345C162.144 21.0269 162.664 21.5524 163.25 21.9557C163.735 22.2889 164.376 22.2731 164.768 22.8508C165.102 23.3432 165.915 23.1803 166.161 23.8703C167.013 24.0387 167.53 24.8417 168.314 25.1751C168.904 25.4651 169.454 25.8383 169.95 26.2846C170.747 26.9323 171.562 27.5548 172.387 28.1548C172.682 28.3756 172.966 28.6136 173.237 28.8679C173.389 29.0064 173.391 29.2499 173.625 29.3531C175.102 30.0074 176.237 31.2103 177.411 32.2969C178.092 32.8524 178.73 33.4651 179.318 34.1291L179.513 34.3523C179.681 34.5722 180.078 34.7397 180.21 35.0264C180.58 35.8246 181.25 36.3072 181.839 36.8557L181.936 36.9478C182.269 37.2521 182.558 37.6064 182.795 37.9996C182.84 38.0745 182.84 38.2185 182.896 38.2451C183.942 38.7406 184.436 39.8309 185.16 40.6649C185.862 41.4714 186.423 42.4171 187.141 43.2017C188.59 44.7839 203.205 69.5763 204.652 73.6523L205.066 74.8188C205.479 75.9872 205.884 77.1618 206.24 78.349L206.542 79.3597C206.844 80.3721 207.137 81.39 207.376 82.4141L207.697 83.7815C208.334 86.5173 208.947 89.2615 209.395 92.0463C209.795 94.531 210.053 97.0285 210.318 99.5292C210.486 101.135 210.589 102.735 210.632 104.346C210.702 106.922 210.717 109.497 210.68 112.073C210.641 114.498 210.117 116.867 210.2 119.287C209.657 120.662 209.981 122.221 209.395 123.586C209.538 124.341 209.189 125.031 209.049 125.723C208.906 126.437 208.932 127.218 208.544 127.896C208.366 128.204 208.585 128.655 208.364 129.03C208.14 129.335 208.055 129.73 208.132 130.109C207.639 130.248 208.125 130.695 207.883 130.979C207.622 131.288 207.464 131.68 207.435 132.095C207.417 133.033 206.787 133.783 206.737 134.624C206.688 135.484 206.181 136.125 206.058 136.881L206.039 137.024C205.943 138.029 205.157 138.651 204.98 139.585C204.964 139.667 204.771 139.709 204.658 139.772C204.655 139.989 204.881 139.982 205.008 140.175C204.724 140.358 204.464 140.583 204.237 140.842C204.035 141.217 203.87 141.615 203.745 142.027L204.23 143.012C203.916 143.465 203.923 143.931 203.549 144.262C203.386 144.407 203.376 144.94 203.3 145.296C203.2 145.763 202.589 145.937 202.664 146.334C202.698 146.782 202.589 147.229 202.355 147.602C200.916 151.268 199.463 154.927 197.995 158.58C197.839 158.972 197.831 159.5 197.322 159.651C197.742 160.315 196.904 160.361 196.817 160.808C196.682 161.216 196.465 161.587 196.181 161.895C195.752 162.491 195.588 163.299 195.284 164.004C195.15 164.518 194.883 164.981 194.514 165.339C194.144 165.627 194.089 166.239 193.774 166.681C193.344 167.207 192.982 167.791 192.697 168.418C192.566 168.883 192.315 169.299 191.973 169.619C191.676 169.866 191.78 170.514 191.259 170.645C190.983 171.473 190.393 172.069 189.917 172.751L189.83 172.88C188.646 174.642 187.364 176.326 185.992 177.925C184.848 179.272 183.726 180.639 182.571 181.974C182.195 182.405 181.802 182.83 181.401 183.231C179.994 184.715 178.511 186.116 176.959 187.426C175.552 188.547 174.191 189.739 172.733 190.798C171.958 191.361 171.278 192.103 170.515 192.713C168.717 194.152 166.886 195.537 164.989 196.821C163.368 198.021 161.642 199.05 159.835 199.894C159.348 200.097 158.917 200.449 158.44 200.686C157.875 200.893 157.324 201.142 156.792 201.432C156.154 201.88 155.426 202.103 154.789 202.509C154.295 202.824 153.647 202.469 153.223 203.123C152.914 203.599 152.108 203.252 151.726 203.804C150.949 203.685 150.456 204.418 149.711 204.549L149.613 204.563C148.838 204.64 148.101 205.16 147.349 205.485C146.613 205.857 145.854 206.177 145.078 206.441C143.639 206.833 142.326 207.596 140.914 208.014C139.567 208.412 138.296 209.127 136.882 209.224C136.549 209.247 136.558 209.56 136.317 209.648C136.065 209.739 135.829 209.603 135.596 209.719C134.64 210.156 133.653 210.511 132.644 210.78C131.226 211.211 129.792 211.601 128.381 212.044C126.188 212.693 123.965 213.218 121.721 213.616C120.263 213.901 118.795 214.13 117.332 214.375L115.292 214.72C114.272 214.891 113.251 215.058 112.229 215.205C110.929 215.392 109.619 215.485 108.317 215.655C107.286 215.788 106.258 215.968 105.232 216.148C103.813 216.396 102.383 216.59 100.968 216.828C98.9608 217.154 96.9386 217.359 94.9103 217.443C93.8839 217.518 92.854 217.523 91.827 217.458C91.2548 217.405 90.6802 217.39 90.1065 217.414L89.8198 217.429C88.485 217.525 87.2092 217.236 85.9076 217.117C85.5075 217.079 85.1385 216.949 84.7641 216.872L84.6032 216.842C84.2805 216.79 83.9705 216.713 83.6571 216.641L83.4212 216.588C82.3083 216.346 81.2345 215.897 80.0922 215.811L79.8771 215.799C79.7955 215.799 79.715 215.778 79.6422 215.738C78.5262 215.064 77.214 215.013 76.0573 214.446L75.8549 214.34C74.7817 213.744 73.4933 213.751 72.4361 213.069C71.6269 213.21 71.0259 212.558 70.3057 212.419C68.4454 212.058 66.8164 211.073 65.103 210.32L64.8791 210.224C63.091 209.467 61.3358 208.621 59.5621 207.826C58.3476 207.188 57.1839 206.446 56.0826 205.606C55.8521 205.372 55.5942 205.171 55.3155 205.007C54.8058 204.827 54.3912 204.426 54.1742 203.901Z" fill="#4F2608"/>
<path fill-rule="evenodd" clip-rule="evenodd" d="M80.0792 96.8009C78.8267 102.3 75.7055 106.587 70.8643 110.057C72.1012 106.223 73.7 101.736 74.9369 97.9021C73.7451 100.518 71.5965 103.083 69.2051 104.478C70.7117 98.7071 73.8711 94.1186 73.8711 86.8042C73.8711 84.174 71.2028 82.1425 71.3071 81.0727C71.4126 79.9907 71.9522 79.0227 72.3715 78.0312C74.7182 72.4829 80.9229 99.0762 80.0792 96.8009Z" fill="white"/>
<path fill-rule="evenodd" clip-rule="evenodd" d="M175.735 48.75C175.678 48.7436 175.62 48.7362 175.563 48.7278C175.631 48.6419 175.688 48.6476 175.735 48.75ZM137.865 131.358C137.628 131.576 137.391 131.792 137.155 132.008C136.96 132.008 136.18 130.595 135.096 128.63C134.098 126.82 132.842 124.542 131.546 122.469C130.413 120.658 129.175 119.026 128.286 117.855C127.479 116.791 126.961 116.109 127.075 116.02C129.576 114.097 132.182 112.31 134.787 110.525C138.995 107.642 143.198 104.761 146.94 101.312C156.935 92.0999 163.891 80.5285 168.055 70.5993C171.567 62.2235 173.462 55.6039 174.519 51.9116C175.039 50.0966 175.356 48.989 175.563 48.7278C173.378 48.4071 171.437 46.6088 170.847 44.334C170.242 41.9997 171.1 39.3132 172.914 37.8604C174.941 36.2361 175.601 33.3151 175.804 30.6157C175.846 30.0594 175.875 29.498 175.905 28.9358C176.017 26.7704 176.131 24.5923 176.967 22.6367C177.294 21.8719 177.856 21.0752 178.642 21.0563C179.898 21.026 180.349 22.8003 180.399 24.1415L180.624 30.1537C181.154 29.1463 182.71 29.3966 183.346 30.3311C183.982 31.2656 183.967 32.518 183.925 33.6726C184.221 31.1097 185.18 28.6379 186.667 26.6025C187.134 25.9637 187.836 25.3074 188.559 25.552C189.323 25.8106 189.511 26.8581 189.538 27.7143C189.767 35.1427 187.686 42.6316 183.701 48.7231C182.932 49.8988 182.515 51.2607 182.24 52.6746C182.342 53.665 182.387 54.7326 182.275 55.6236C180.99 65.7908 178.855 75.835 175.902 85.5972C174.145 91.4051 172.048 97.2127 168.524 102.016C166.665 104.549 164.446 106.75 162.228 108.928C155.429 115.602 147.169 123.157 139.858 129.844C138.868 130.75 137.895 131.64 136.945 132.51C136.895 132.51 137.227 132.109 137.865 131.358Z" fill="white"/>
<path d="M64.0032 164.912C64.5783 166.661 66.0247 168.896 66.0247 168.896C66.0247 168.896 55.9585 184.097 52.1238 192.781C48.5599 200.852 44.9614 219.54 33.9199 208.32C39.1784 192.419 44.4724 176.434 52.1238 161.681C55.6037 154.972 58.6438 152.59 58.6438 152.59C58.6438 152.59 61.9912 158.793 64.0032 164.912Z" fill="white"/>
<path fill-rule="evenodd" clip-rule="evenodd" d="M75.0337 74.7265C74.2881 75.4089 74.9291 76.7425 75.746 77.3244C76.5628 77.9064 77.6238 78.3473 77.904 79.352C76.6591 79.4334 75.535 78.3084 74.2955 78.4571C72.925 78.6215 72.1163 80.367 72.3796 81.812C72.6429 83.257 73.6544 84.4056 74.6991 85.3667C76.3271 86.8645 78.1482 88.1229 80.0948 89.0955C80.8075 89.4516 81.5981 90.5279 80.8946 90.9043C80.2401 90.5044 79.5856 90.1045 78.9311 89.7047C80.0241 93.3353 81.152 97.0396 83.2865 100.098C85.421 103.156 88.7833 105.505 92.3501 105.285C93.0376 105.243 94.0323 105.401 93.9676 106.133C93.5051 106.247 93.0426 106.362 92.5801 106.477C94.0089 107.775 96.0471 108.092 97.8972 107.758C99.7473 107.424 101.456 106.512 103.114 105.574C106.439 103.692 109.759 101.594 112.175 98.5137C113.834 96.4001 115.004 93.8988 115.967 91.3409C119.016 83.2466 120.111 74.3237 119.118 65.6642C119.068 65.2292 118.822 64.6531 118.431 64.7883C108.968 68.0634 98.3 67.1619 89.4374 62.3379C87.5199 61.2943 85.6142 60.0013 84.5077 58.0307C88.6098 60.7304 93.0819 62.7883 97.7372 64.1182C102.301 65.4219 107.096 66.0251 111.768 65.2745C116.439 64.5239 120.987 62.3466 124.239 58.6886C128.671 53.703 130.296 46.3953 129.663 39.5559C129.029 32.7165 126.359 26.2682 123.14 20.3164C122.216 24.3796 118.935 27.4829 115.272 28.9645C111.609 30.4462 107.589 30.5351 103.676 30.3305C99.7635 30.1259 95.8384 29.6469 91.9404 30.0604C89.5267 30.3165 86.9856 31.0118 85.3625 32.9357C82.8916 35.8646 83.4361 40.3717 84.1327 44.2423C83.0469 43.6299 82.4482 42.1731 82.7615 40.9057C78.4257 41.7593 75.2703 46.0694 74.1618 50.6243C73.0532 55.1791 73.5911 59.9829 74.1361 64.6528C74.3674 66.635 74.5987 68.6172 74.83 70.5994C74.9713 71.8097 75.1493 73.107 75.9304 73.9971C78.3892 76.7987 80.1102 80.3302 80.8477 84.0875C83.4971 79.2516 85.3403 73.9142 86.2653 68.3999C86.4737 67.158 86.6531 65.8595 87.3223 64.8196C87.9916 63.7797 89.3279 63.1005 90.385 63.6649C86.1721 70.5304 85.9832 79.8376 80.776 85.8761C79.9219 83.5827 79.0679 81.2893 78.2138 78.9959C77.5622 77.2461 76.7157 75.2943 75.0337 74.7265Z" fill="white"/>
<path fill-rule="evenodd" clip-rule="evenodd" d="M137.08 142.888C133.737 145.44 130.293 147.84 126.759 150.079C125.984 155.855 124.18 166.957 122.789 176.314C122.157 180.569 122.157 184.19 121.616 187.166C120.516 193.218 115.898 196.436 110.346 196.143C77.8531 194.428 77.3686 212.84 76.1225 200.946C74.8764 189.053 74.3129 177.077 74.4361 165.11C71.9273 167.086 69.4186 169.062 66.9098 171.037C66.1026 169.743 59.0514 157.583 59.4097 153.151C59.8003 148.32 64.8142 141.305 70.5394 135.781C74.1062 132.341 78.2748 129.834 80.7771 127.708C81.7885 126.849 87.0569 121.757 88.2787 116.784C89.5572 111.579 86.818 106.49 89.2113 105.809C91.1003 105.271 92.3074 106.866 94.429 107.882C96.0601 108.662 98.7518 107.275 99.3825 108.378C100.013 109.482 99.1765 113.842 100.774 115.518C103.736 118.624 109.85 119.145 110.346 119.088C116.963 118.338 123.887 115.119 125.884 115.92C132.748 118.672 137.962 132.49 139.076 137.232C139.331 138.314 139.54 139.482 139.162 140.521C138.789 141.545 137.917 142.249 137.08 142.888Z" fill="white"/>
<path fill-rule="evenodd" clip-rule="evenodd" d="M129.068 118.324C128.862 118.04 128.662 117.79 128.475 117.57C127.566 116.506 126.921 116.139 127.076 116.02C133.615 110.99 140.881 106.896 146.94 101.312C156.935 92.1 163.891 80.5286 168.055 70.5995C171.242 63.0009 166.71 80.4332 156.147 97.2053C147.46 110.999 129.423 118.813 129.068 118.324Z" fill="#E7EAEE"/>
<path fill-rule="evenodd" clip-rule="evenodd" d="M137.08 142.888C137.917 142.249 138.789 141.545 139.162 140.521C139.54 139.482 139.331 138.313 139.076 137.232C137.165 129.101 132.927 121.611 127.075 116.02C151.41 103.124 169.829 78.1542 175.863 49.8787C170.601 65.9638 163.541 81.6468 152.918 94.3632C142.295 107.08 127.786 116.655 111.914 118.456C108.383 118.856 104.445 118.737 101.794 116.215C99.1425 113.693 99.2246 108.045 102.599 106.864C108.946 104.643 114.018 99.1481 116.884 92.7085C119.75 86.2689 120.569 78.959 120.196 71.8408C120.027 68.5997 119.858 64.7474 122.284 62.79C128.422 57.8372 131.359 49.2189 131.011 41.0142C130.662 32.8095 127.379 25.0075 123.019 18.24C121.557 23.0391 117.808 26.9729 113.288 28.4516C109.499 29.6912 105.524 29.2529 101.535 28.8129C99.5897 28.5984 97.641 28.3835 95.7086 28.3625C89.8129 28.2985 82.8123 31.3972 82.1564 37.6515C81.9417 39.6989 80.2082 40.8814 78.496 42.0494C77.9393 42.4292 77.3847 42.8074 76.8854 43.2134C72.3487 46.9022 71.9436 53.9902 72.6504 60.0307C72.7524 60.9018 72.8679 61.7807 72.984 62.6636C73.6727 67.9026 74.3801 73.2831 72.3719 78.0312C72.2829 78.2416 72.1885 78.451 72.094 78.6606C71.7431 79.4387 71.3906 80.2204 71.3075 81.0727C71.0689 83.5194 72.8982 85.1583 74.7804 86.8446C75.7795 87.7396 76.7934 88.648 77.521 89.6977C79.3185 92.2911 79.2772 95.9346 78.1829 98.9416C77.0886 101.949 75.0918 104.465 73.1302 106.919C75.2244 102.509 76.3013 97.5539 76.2399 92.6103L70.659 102.614C72.6151 97.608 73.7202 92.2247 73.9043 86.8042L69.3844 104.116C71.7758 102.722 73.7454 100.518 74.9372 97.9021L71.2265 109.405C75.4326 106.478 78.6262 101.931 80.0795 96.801C80.9232 99.0762 82.3564 101.099 84.1778 102.585C90.4958 107.739 90.0113 119.729 83.301 124.284C69.9702 133.332 59.7752 146.929 52.1238 161.681C44.4724 176.434 39.1784 192.419 33.9199 208.32C41.4963 189.614 49.7211 171.208 58.5719 153.151C60.6348 159.454 63.4434 165.479 66.9099 171.037L74.4362 165.11C74.313 177.077 74.8765 189.053 76.1226 200.946C77.6032 201.114 77.9539 198.797 77.7206 197.227C75.486 182.198 75.1506 166.848 76.7261 151.724C75.2388 152.738 75.2103 154.85 75.1835 156.827C75.1785 157.202 75.1735 157.571 75.1587 157.927C74.9548 162.829 71.5303 167.384 67.0917 168.657C64.8025 165.563 62.4785 162.404 61.1758 158.715C59.8731 155.025 59.7314 150.653 61.7046 147.32C67.0043 138.368 74.6354 131.006 83.5139 126.281C87.4636 130.379 92.1471 133.668 97.236 135.917C98.8536 136.632 100.716 137.238 102.31 136.465C103.411 135.93 104.166 134.83 104.823 133.745C107.31 129.636 109.122 125.063 110.154 120.296C114.923 119.573 119.644 118.495 124.273 117.072C126.146 116.497 127.945 118.12 129.211 119.702C133.138 124.609 136.043 130.442 137.658 136.66C137.987 137.928 138.255 139.321 137.757 140.524C137.356 141.491 136.526 142.165 135.718 142.777C132.693 145.064 129.494 147.089 126.162 148.825C126.513 144.964 125.59 140.985 123.591 137.745C126.741 146.775 125.075 156.352 123.393 166.029C122.108 173.42 120.812 180.869 121.646 188.176L126.76 150.079C130.293 147.84 133.737 145.44 137.08 142.888ZM75.0337 74.7265C76.7157 75.2943 77.5622 77.2461 78.2138 78.9959L80.776 85.8761C83.6806 82.5078 85.0238 78.1224 86.3749 73.7111C87.446 70.2141 88.5221 66.7008 90.385 63.6649C89.3279 63.1005 87.9916 63.7797 87.3223 64.8196C86.6979 65.7899 86.4999 66.9852 86.307 68.1496C86.2931 68.2332 86.2793 68.3167 86.2653 68.3999C85.3403 73.9142 83.4971 79.2516 80.8477 84.0875C80.1102 80.3302 78.3892 76.7987 75.9304 73.9971C75.1493 73.107 74.9713 71.8097 74.83 70.5994L74.1361 64.6529C73.5911 59.9829 73.0532 55.1791 74.1618 50.6243C75.2703 46.0694 78.4257 41.7593 82.7615 40.9057C82.4482 42.1731 83.0469 43.6299 84.1327 44.2423C83.4361 40.3717 82.8916 35.8646 85.3625 32.9357C86.9856 31.0118 89.5267 30.3165 91.9404 30.0604C94.9224 29.7441 97.9203 29.9501 100.916 30.156C101.837 30.2192 102.757 30.2824 103.676 30.3305C107.589 30.5351 111.609 30.4462 115.272 28.9645C118.935 27.4829 122.216 24.3796 123.14 20.3164C126.359 26.2682 129.029 32.7165 129.663 39.5559C130.296 46.3953 128.671 53.703 124.239 58.6886C120.987 62.3466 116.439 64.5239 111.768 65.2745C107.096 66.0251 102.301 65.4219 97.7372 64.1182C93.0819 62.7883 88.6098 60.7304 84.5077 58.0307C85.6142 60.0013 87.5199 61.2943 89.4374 62.3379C98.3 67.1619 108.968 68.0634 118.431 64.7883C118.822 64.6531 119.068 65.2292 119.118 65.6642C120.111 74.3237 119.016 83.2466 115.967 91.3409C115.004 93.8988 113.834 96.4001 112.175 98.5137C109.759 101.594 106.439 103.692 103.114 105.574C101.456 106.512 99.7473 107.424 97.8972 107.758C96.0471 108.092 94.0089 107.775 92.5801 106.477L93.9676 106.133C94.0323 105.401 93.0376 105.243 92.3501 105.285C88.7833 105.505 85.421 103.156 83.2865 100.098C81.152 97.0396 80.0241 93.3353 78.9311 89.7047L80.8946 90.9043C81.5981 90.5279 80.8075 89.4516 80.0948 89.0955C78.1482 88.1229 76.3271 86.8645 74.6991 85.3667C73.6544 84.4056 72.6429 83.257 72.3796 81.812C72.1163 80.367 72.925 78.6215 74.2955 78.4571C74.9309 78.3809 75.5359 78.6393 76.1424 78.8984C76.7191 79.1447 77.2972 79.3916 77.904 79.352C77.685 78.5667 76.989 78.1259 76.3054 77.6929C76.1144 77.5719 75.9244 77.4515 75.746 77.3244C74.9291 76.7425 74.2881 75.4089 75.0337 74.7265ZM91.9358 107.419C93.7238 108.855 96.118 109.395 98.2977 108.853C97.2793 111.623 98.5614 114.897 100.704 116.8C102.846 118.703 105.663 119.489 108.415 119.958C108.334 125.176 106.574 130.347 103.498 134.403C102.594 135.596 100.847 135.337 99.4755 134.88C94.0445 133.074 89.0198 129.891 84.9316 125.669C85.2845 125.122 85.8478 124.813 86.4134 124.504C86.9337 124.219 87.4557 123.933 87.8175 123.46C88.1454 123.03 88.3079 122.487 88.4516 121.955C89.8622 116.731 90.1244 111.158 89.2113 105.809C90.0707 105.823 90.7732 106.427 91.4597 107.018C91.6187 107.155 91.7768 107.291 91.9358 107.419ZM175.126 39.1617C173.719 40.0088 172.132 41.1603 172.096 42.8857C172.066 44.3591 173.129 45.3468 174.226 46.3653C175 47.0843 175.79 47.8186 176.224 48.75C173.969 48.5009 171.941 46.6683 171.336 44.334C170.731 41.9997 171.588 39.3132 173.402 37.8604C175.43 36.2361 176.09 33.3151 176.293 30.6157C176.335 30.0594 176.364 29.4981 176.393 28.9359V28.9358C176.506 26.7704 176.62 24.5923 177.455 22.6367C177.782 21.8719 178.344 21.0752 179.131 21.0563C180.387 21.026 180.837 22.8003 180.887 24.1415L181.113 30.1537C181.643 29.1463 183.198 29.3966 183.834 30.3311C184.47 31.2656 184.455 32.518 184.414 33.6726C184.71 31.1097 185.668 28.6379 187.156 26.6025C187.622 25.9637 188.324 25.3074 189.047 25.552C189.811 25.8106 190 26.8581 190.026 27.7143C190.255 35.1427 188.175 42.6316 184.189 48.7231C182.92 50.664 182.611 53.1127 182.314 55.4644L182.294 55.6237C181.01 65.7909 178.874 75.8351 175.922 85.5973C174.165 91.4052 172.068 97.2128 168.543 102.016C166.684 104.549 164.466 106.751 162.247 108.928C154.528 116.506 146.686 123.942 138.726 131.232C138.05 131.232 138.361 130.059 138.872 129.586C140.599 127.989 142.338 126.404 144.077 124.819L144.078 124.818C151.385 118.156 158.697 111.49 165.176 103.925C167.064 101.72 168.887 99.4287 170.316 96.8594C171.69 94.3863 172.679 91.6927 173.598 88.9889C177.637 77.1028 180.453 64.7426 181.98 52.2027C182.089 51.3025 182.179 50.3276 181.755 49.5414C187.052 43.4431 189.686 34.8058 188.768 26.5432C186.705 27.5582 186.256 30.0212 185.793 32.5572C185.405 34.6825 185.008 36.859 183.644 38.2775L183.44 32.2745C183.421 31.6982 183.338 31.0109 182.853 30.757C182.053 30.3382 181.363 31.5436 181.282 32.4912C181.201 33.4388 181.045 34.6849 180.167 34.8417C180.455 30.4737 180.212 26.066 179.446 21.7643C177.481 23.7215 177.434 26.916 177.392 29.8271C177.389 30.0067 177.387 30.1852 177.383 30.3624C177.331 33.4097 176.591 37.0465 173.916 38.1052C174.561 38.6414 175.287 38.1023 176.03 37.5517C176.35 37.3138 176.674 37.0738 176.995 36.9173C178.776 36.0492 180.816 38.4485 180.318 40.4716C179.82 42.4946 177.696 43.6455 175.739 43.6367C176.149 42.9057 176.951 42.463 177.722 42.0375C178.738 41.4763 179.7 40.9452 179.639 39.8224C179.585 38.8461 178.597 38.1754 177.681 38.1818C176.766 38.1883 175.924 38.6817 175.126 39.1617ZM90.5662 74.2569C90.59 73.8978 91.0771 73.8449 91.4284 73.8599C92.51 73.9059 93.5684 73.5667 94.5942 73.2128L94.7393 73.1627C95.7181 72.8242 96.7107 72.481 97.7417 72.45C98.8237 72.4174 99.9783 72.7889 100.626 73.6762C100.712 73.7931 100.791 73.9313 100.772 74.076C100.74 74.3235 100.434 74.4423 100.197 74.3798C100.014 74.3312 99.8602 74.2117 99.7075 74.0928C99.6641 74.059 99.6207 74.0253 99.5768 73.9932C98.3784 73.1193 96.7218 73.4964 95.3435 74.0236C95.2396 74.0633 95.1351 74.1038 95.0301 74.1445L95.0289 74.1449C93.7416 74.6434 92.3788 75.1711 91.0761 74.7708C90.8287 74.6947 90.5487 74.5207 90.5662 74.2569ZM102.815 91.4366C103.638 91.4783 104.529 91.4995 105.2 90.9867C106.136 90.2713 106.253 88.835 106.149 87.6056C106.087 86.8776 105.979 86.1545 105.872 85.4317C105.724 84.438 105.576 83.4449 105.548 82.4403C105.499 80.705 105.869 78.8491 107.027 77.6377C107.09 77.2164 106.571 76.9147 106.198 77.0617C105.826 77.2087 105.604 77.615 105.441 78.0045C104.332 80.6644 104.606 83.6759 104.873 86.6127L104.873 86.6141C104.914 87.0603 104.954 87.5046 104.99 87.9458C105.047 88.6595 105.04 89.5001 104.511 89.9348C104.116 90.2584 103.6 90.223 103.087 90.1878C102.919 90.1763 102.752 90.1648 102.589 90.166C102.248 90.1685 101.834 90.3056 101.771 90.6656C101.682 91.1747 102.334 91.4121 102.815 91.4366ZM100.729 77.3812C101.116 77.3223 101.445 77.7734 101.433 78.1988C101.422 78.6242 101.171 78.9968 100.894 79.2971C99.8904 80.3849 98.4381 80.8873 97.0225 80.8958C95.607 80.9044 94.2187 80.4595 92.9111 79.8692C92.6283 79.7416 92.3399 79.6008 92.1306 79.3576C91.9213 79.1143 91.8091 78.742 91.937 78.4392C92.065 78.1364 92.4832 78.001 92.6956 78.2411C93.66 79.3316 95.158 79.6134 96.548 79.6388C97.8048 79.6617 99.2392 79.416 99.9323 78.274C99.9712 78.2099 100.009 78.1421 100.048 78.0736C100.224 77.7589 100.408 77.43 100.729 77.3812ZM117.495 79.0429C115.928 80.4958 113.504 80.9489 111.517 80.1604C110.968 79.9426 110.431 79.6166 110.137 79.1049C110.022 78.9049 109.949 78.66 110.031 78.4447C110.164 78.0965 110.642 78.0046 110.99 78.1395C111.253 78.2412 111.466 78.4298 111.679 78.6179C111.748 78.6792 111.817 78.7405 111.888 78.7987C113.138 79.8258 115.106 79.8554 116.387 78.8662L116.425 78.8368L116.469 78.8021C116.674 78.6404 116.887 78.4716 117.144 78.4673C117.435 78.4625 117.708 78.8453 117.495 79.0429ZM65.0382 168.896C64.443 169.273 64.0192 169.887 63.6169 170.487C59.4893 176.648 55.8452 183.176 52.7351 189.98C49.593 196.855 47.0012 203.997 44.4135 211.13C44.1941 211.734 43.9788 212.435 44.2703 213.003C44.6735 213.791 45.833 213.753 46.463 213.158C47.0929 212.563 47.3312 211.641 47.5481 210.774C51.1643 196.329 57.1721 182.602 64.9135 170.132C65.1498 169.751 65.3684 169.187 65.0382 168.896ZM99.0676 100.185C99.0973 100.898 98.305 101.306 97.6508 101.312C96.9398 101.318 96.1771 101.039 95.7911 100.387C95.4051 99.7349 95.5894 98.6904 96.2573 98.4238L91.645 96.524C91.2571 96.3642 90.8467 96.2017 90.4377 96.2759C90.3431 96.2931 90.25 96.3228 90.1571 96.3525L90.157 96.3525L90.157 96.3525L90.1569 96.3525C90.0004 96.4025 89.8446 96.4523 89.6833 96.4415C89.4262 96.4243 89.159 96.1369 89.2766 95.8868C89.3207 95.793 89.4062 95.7326 89.488 95.6766L91.1794 94.518C91.3713 94.3865 91.5823 94.2498 91.8077 94.275C92.0331 94.3001 92.2404 94.5781 92.1283 94.7931C91.796 95.43 92.624 96.0225 93.2739 96.2066C95.4574 96.8252 97.6585 97.447 99.911 97.5821C102.163 97.7173 104.499 97.3339 106.431 96.0633C107.024 95.673 107.761 95.1921 108.349 95.5914C108.123 96.2999 107.456 96.6926 106.805 97.0765C106.076 97.5064 105.365 97.9251 105.312 98.7634C105.257 99.6286 104.547 100.386 103.754 100.426C102.96 100.467 102.189 99.7854 102.06 98.9295C102.04 98.7943 101.89 98.7412 101.766 98.7178C101.196 98.6098 100.593 98.5536 100.05 98.7725C99.506 98.9915 99.0413 99.5533 99.0676 100.185ZM98.2327 98.6502C97.9789 98.3094 97.4464 98.3604 97.1625 98.6716C96.8785 98.9829 96.8062 99.4624 96.8496 99.8991C97.1859 100.105 97.6364 100.061 97.9335 99.7924C98.2307 99.5241 98.355 99.0493 98.2327 98.6502ZM104.273 98.907C104.314 98.7341 104.419 98.5806 104.56 98.4888C104.385 98.1578 103.927 98.2876 103.614 98.4592C103.448 98.5502 103.262 98.6719 103.239 98.873C103.212 99.12 103.475 99.3098 103.701 99.2801C103.927 99.2503 104.113 99.0779 104.284 98.9131L104.273 98.907ZM113.808 75.2957L113.808 75.2958L113.808 75.2958C114.023 75.355 114.239 75.4142 114.458 75.4576C115.595 75.6826 116.822 75.4571 117.79 74.8455C118.048 74.6827 117.809 74.2578 117.501 74.2262C117.264 74.2018 117.043 74.3056 116.824 74.4085C116.76 74.4386 116.696 74.4687 116.631 74.4954C115.806 74.8394 114.884 74.6415 113.967 74.4444C113.009 74.2389 112.057 74.0343 111.222 74.4472C110.921 74.5962 110.64 74.8661 110.655 75.1894C110.67 75.5127 111.148 75.7623 111.369 75.5173C111.725 75.124 112.331 75.024 112.872 75.0882C113.19 75.1261 113.499 75.2109 113.808 75.2957Z" fill="#00160A"/>
<path fill-rule="evenodd" clip-rule="evenodd" d="M98.2975 108.853C97.6577 109.012 96.9994 109.078 96.3434 109.056C94.7645 109.001 92.9697 114.851 96.3434 121.523C99.6585 128.08 105.903 130.702 106.711 128.627C107.778 125.884 108.369 122.928 108.415 119.958C105.662 119.489 102.846 118.703 100.704 116.8C98.5611 114.897 97.2791 111.623 98.2975 108.853Z" fill="#E7EAEE"/>
<ellipse cx="86.3031" cy="91.808" rx="1.97599" ry="2.112" fill="#CE9786"/>
<ellipse cx="111.332" cy="92.5119" rx="1.976" ry="2.11199" fill="#CE9786"/>
<path fill-rule="evenodd" clip-rule="evenodd" d="M89.941 168.342C90.6578 167.491 92.0933 167.88 93.1805 168.161C96.076 168.909 99.6104 167.98 101.792 165.897C103.987 163.8 107.957 166.214 110.82 164.903C112.546 164.112 113.958 161.994 115.685 162.512C117.804 163.147 120.437 162.584 122.187 161.146L122.192 160.726L122.207 159.798C120.465 161.38 117.69 162.025 115.477 161.361C113.75 160.843 112.338 162.961 110.612 163.752C107.749 165.063 103.779 162.65 101.584 164.746C99.4458 166.788 96.0086 167.721 93.1467 167.053L92.5758 166.909C91.5573 166.655 90.3653 166.44 89.7328 167.192C87.7376 169.562 83.8238 170.585 80.9612 169.484L81.305 170.685L81.4745 170.742C84.3043 171.662 88.0158 170.63 89.941 168.342ZM87.2498 154.543C88.0061 153.743 89.4117 154.15 90.4769 154.445C93.3142 155.23 96.8732 154.422 99.1483 152.474C101.438 150.515 105.256 152.923 108.168 151.732C109.924 151.014 111.436 149.015 113.125 149.552C115.196 150.212 122.914 146.005 122.914 146.005C120.976 145.976 115.27 149.106 113.13 148.49L112.978 148.444C111.289 147.906 109.777 149.905 108.021 150.623C105.109 151.814 101.291 149.406 99.0013 151.366C96.7717 153.274 93.309 154.089 90.501 153.381L89.9414 153.23C88.9429 152.962 87.7701 152.728 87.1028 153.434C84.9977 155.661 79.32 154.779 78.2708 155.427C78.2708 155.427 85.2186 156.692 87.2498 154.543Z" fill="#CE9786"/>
<path fill-rule="evenodd" clip-rule="evenodd" d="M89.3483 194.519C90.0651 193.668 91.5006 194.057 92.5877 194.338C95.4832 195.086 99.0176 194.157 101.199 192.074C103.394 189.977 107.364 192.391 110.228 191.08C111.954 190.289 113.366 188.171 115.093 188.688C117.211 189.324 119.845 188.761 121.594 187.323L121.599 186.903L121.614 185.975C119.872 187.557 117.097 188.201 114.884 187.538C113.157 187.02 111.745 189.138 110.019 189.929C107.156 191.24 103.186 188.827 100.991 190.923C98.853 192.965 95.4158 193.898 92.5539 193.23L91.983 193.086C90.9645 192.832 89.7725 192.617 89.14 193.369C87.1448 195.739 83.231 196.762 80.3684 195.661L80.7122 196.862L80.8817 196.919C83.7115 197.839 87.4231 196.807 89.3483 194.519ZM86.657 180.72C87.4133 179.92 88.8189 180.327 89.8842 180.622C92.7214 181.407 96.2804 180.599 98.5555 178.651C100.845 176.692 104.663 179.1 107.575 177.909C109.331 177.191 110.843 175.192 112.532 175.729C114.603 176.389 122.321 172.182 122.321 172.182C120.384 172.153 114.678 175.283 112.537 174.667L112.385 174.621C110.696 174.083 109.184 176.082 107.428 176.8C104.516 177.991 100.698 175.583 98.4085 177.543C96.1789 179.451 92.7162 180.266 89.9082 179.558L89.3487 179.407C88.3502 179.139 87.1773 178.905 86.51 179.611C84.405 181.838 78.7273 180.956 77.678 181.604C77.678 181.604 84.6259 182.869 86.657 180.72Z" fill="#CE9786"/>
<path fill-rule="evenodd" clip-rule="evenodd" d="M83.3868 45.4579C85.2914 46.7114 92.2727 32.9357 102.669 32.9357C124.702 32.9357 126.359 26.2682 123.14 20.3164C122.216 24.3796 118.935 27.4829 115.272 28.9645C111.609 30.4462 107.589 30.5351 103.676 30.3305C99.7635 30.1259 95.8384 29.6469 91.9404 30.0604C89.5267 30.3165 86.9856 31.0118 85.3624 32.9357C82.8915 35.8646 83.4361 40.3717 84.1326 44.2423C83.0469 43.6299 82.4481 42.1731 82.7614 40.9057C78.4257 41.7593 75.2703 46.0694 74.1617 50.6243C73.0532 55.1791 73.5911 59.9829 74.1361 64.6528C74.3674 66.635 74.5987 68.6172 74.83 70.5994C74.83 70.5994 75.817 54.6313 77.1558 50.6243C78.9783 45.1694 83.8121 46.2153 83.3868 45.4579Z" fill="#E7EAEE"/>
</g>
<defs>
<clipPath id="clip0_305_525">
<rect width="211" height="218" fill="white"/>
</clipPath>
</defs>
</svg>
