<svg width="282" height="240" viewBox="0 0 282 240" fill="none" xmlns="http://www.w3.org/2000/svg">
<path fill-rule="evenodd" clip-rule="evenodd" d="M81.7013 161.757C43.7407 170.543 22.0218 158.276 16.5446 124.955C8.32868 74.9743 36.1603 22.466 74.3482 17.4325C112.536 12.3989 128.59 26.7572 155.43 44.7878C182.27 62.8184 260.062 105.243 268.9 112.443C277.739 119.643 296.649 147.779 258.825 165.601C233.609 177.482 202.239 175.244 164.716 158.888C151.525 153.162 139.513 150.132 128.68 149.797C117.846 149.463 102.187 153.449 81.7013 161.757Z" fill="#4F2608"/>
<path d="M124.973 98.3027C128.385 100.514 129.757 103.374 129.089 106.884C125.893 111.639 124.295 115.758 124.295 119.238C124.295 122.719 124.055 127.247 123.574 132.821L97.0151 133.378L96.9589 133.345C96.2491 133.358 95.5513 133.37 94.8656 133.378C88.9545 133.455 83.7103 134.232 83.4629 134.27C81.5275 134.568 78.0395 131.003 77.0715 129.795C75.5162 127.854 74.7769 125.558 74.4482 123.058C74.1382 120.7 74.5755 118.507 75.4341 116.406C76.4373 113.95 78.0077 111.825 79.9986 109.953C82.1819 107.966 84.5329 106.344 87.1685 105.148C87.2708 105.101 89.1623 104.177 89.2531 104.189C89.3138 104.197 92.3379 105.159 96.5436 107.11C101.317 103.741 106.48 100.176 112.033 96.416C117.248 95.4627 121.561 96.0916 124.973 98.3027Z" fill="white"/>
<path fill-rule="evenodd" clip-rule="evenodd" d="M90.6062 155.692C94.7823 156.546 97.2999 154.919 98.1589 150.811C99.4475 144.649 91.6622 145.75 89.2795 142.579C86.8967 139.408 92.1817 138.772 98.1589 140.676C104.142 140.415 105.868 140.755 106.212 139.117C106.556 137.479 103.439 136.447 95.1134 136.717C86.7881 136.987 88.0126 136.999 88.6461 143.905C89.0683 148.509 89.7217 152.438 90.6062 155.692Z" fill="white"/>
<path d="M194.393 168.851C191.183 166.215 188.923 164.557 187.711 163.497C184.818 160.965 181.853 158.512 178.934 156.009C178.334 155.494 177.751 154.941 177.257 154.327C176.638 153.558 176.779 153.027 177.757 152.652C178.53 152.357 179.373 152.221 180.198 152.09C182.655 151.7 185.117 151.335 187.581 150.985C188.663 150.831 189.755 150.741 190.84 150.607C191.034 150.583 191.219 150.487 191.409 150.424C191.315 150.272 191.243 150.1 191.123 149.972C190.173 148.953 189.213 147.942 188.256 146.929C188.172 146.839 188.082 146.755 187.995 146.669C188.131 146.636 188.266 146.592 188.404 146.572C190.926 146.203 193.448 145.831 195.972 145.47C197.629 145.233 199.286 144.988 200.948 144.794C202.65 144.596 204.356 144.435 206.063 144.295C207.59 144.17 209.123 144.117 210.649 143.991C211.627 143.91 212.596 143.719 213.574 143.64C214.797 143.542 216.026 143.526 217.251 143.443C218.78 143.339 220.306 143.186 221.835 143.085C223.121 143 224.411 142.977 225.697 142.89C226.734 142.821 227.766 142.669 228.803 142.607C229.816 142.546 230.834 142.552 231.85 142.529C234.48 142.468 237.11 142.393 239.74 142.35C241.349 142.324 242.973 142.225 244.564 142.395C245.394 142.484 246.342 142.909 246.934 143.489C248.428 144.954 249.753 146.591 251.143 148.162C251.994 149.126 252.848 150.088 253.686 151.063C255.453 153.118 257.206 155.184 258.975 157.237C259.524 157.875 260.111 158.48 260.663 159.116C260.821 159.299 260.914 159.537 261.036 159.75C260.862 159.609 260.344 159.168 260.517 159.324C277.574 174.732 205.74 178.007 194.393 168.851Z" fill="white"/>
<path d="M0.0885055 111.919C0.146656 110.333 0.196092 108.746 0.258132 107.16C0.278177 106.647 0.336559 106.136 0.368428 105.624C0.633054 101.371 1.14199 97.145 2.23823 93.0217C3.11303 89.7314 4.26816 86.5309 5.6721 83.4048C7.27355 79.8389 9.22057 76.4858 11.464 73.2975C12.6069 71.6731 13.8553 70.1077 15.1836 68.6271C16.7817 66.8458 18.4238 65.082 20.2148 63.4954C22.2595 61.6841 24.4569 60.0332 26.6635 58.413C27.1548 58.0523 28.0233 57.8764 28.6096 58.027C29.6392 58.2915 29.7881 59.1801 29.0005 59.8587C27.2124 61.3995 26.3615 63.3666 26.2304 65.651C26.158 66.9129 26.2771 68.1853 26.2065 69.4473C25.974 73.6076 27.1975 77.4371 29.0095 81.0902C30.7419 84.5827 33.2644 87.4588 36.8839 89.1391C38.9607 90.1032 41.1817 90.7798 43.3688 91.493C45.2686 92.1126 47.2152 92.5909 49.1352 93.1514C51.0188 93.7012 52.8742 94.1999 54.87 93.5392C55.8938 93.2002 56.662 94.1094 56.2699 95.0945C54.7873 98.8201 53.524 102.687 50.9197 105.828C49.3575 107.712 47.5501 109.456 45.6167 110.969C42.7782 113.19 39.5144 114.774 36.2543 116.334C33.0745 117.855 29.9663 119.524 26.7725 121.015C23.1744 122.695 19.5282 124.276 15.8795 125.847C12.9359 127.114 9.96433 128.32 6.98974 129.515C6.27846 129.801 5.51657 130.001 4.75853 130.126C3.99901 130.251 2.33043 129.069 2.03235 128.287C1.2759 126.304 0.7617 124.264 0.549348 122.15C0.420118 120.864 0.246174 119.582 0.0461582 118.298C9.34763e-09 118.207 -1.24635e-08 118.116 0.0461577 117.979C0.123087 116.22 0.155352 114.506 0.176785 112.792C0.177375 112.745 0.0615431 112.696 0 112.648C0 112.436 0 112.223 0 111.965C0.0307653 111.919 0.0884651 111.92 0.0885055 111.919Z" fill="white"/>
<path fill-rule="evenodd" clip-rule="evenodd" d="M123.256 132.765L179.149 131.351H181.442C184.784 133.823 188.451 134.888 192.443 134.547C198.43 134.035 203.717 127.474 204.952 118.326C205.134 117.613 205.575 117.441 206.276 117.812C207.047 119.305 208.416 119.956 210.382 119.766C211.236 119.674 211.711 119.873 212.193 120.793C212.675 121.713 215.223 122.87 216.82 121.941C218.417 121.012 225.78 109.171 225.78 107.179C225.78 105.186 226.193 100.835 226.518 100.554C226.843 100.273 227.454 100.501 228.641 100.127C229.827 99.7539 230.843 100.126 234.648 90.2093C238.452 80.2931 244.274 65.4692 244.894 55.0892C245.514 44.7092 238.129 48.3779 234.648 52.7095C231.166 57.041 221.461 68.1939 212.479 74.2504C211.38 75.0655 210.483 75.4487 209.787 75.3999C209.371 72.8222 207.663 71.8617 204.666 72.5186C203.501 72.7264 202.547 71.812 201.805 69.7753C199.884 59.2018 195.502 51.5509 188.662 46.8224C178.402 39.7298 160.918 35.6765 156.712 50.5062C153.907 60.3926 155.593 72.4039 161.77 86.5401L159.198 88.75C149.079 92.2253 140.813 96.5155 134.4 101.621C124.779 109.278 124.595 116.748 124.085 122.909C123.744 127.017 123.468 130.302 123.256 132.765Z" fill="white"/>
<path d="M102.574 90.0682C102.659 89.2648 102.698 88.4564 102.792 87.6542C102.797 87.6111 103.207 87.5188 103.326 87.5995C104.426 88.3498 105.514 89.1188 106.58 89.9162C106.869 90.1324 106.892 90.3472 107.023 89.7818C107.228 88.8979 108.494 88.6511 109.253 89.2793C110.992 90.7196 111.87 92.6564 112.507 94.7624C113.059 96.5892 112.84 98.4459 112.894 100.292C112.928 101.476 114.046 102.37 115.218 102.417C116.086 102.453 116.998 102.83 117.778 103.258C119.666 104.291 120.879 105.923 121.476 107.977C122.118 110.19 121.52 112.159 120.229 113.998C119.054 115.67 117.984 117.421 116.279 118.647C115.336 119.326 114.25 119.888 113.511 120.745C112.718 121.665 111.808 122.265 110.728 122.678C108.069 123.697 105.163 122.376 103.86 120.174C102.485 117.269 97.5747 119.636 95.6722 115.351C94.7121 113.936 94.3382 112.75 94.5453 112.632C94.7982 112.487 94.4485 112.121 94.0011 111.655C92.0473 109.617 90.3119 107.41 89.1246 104.826C88.9371 104.418 88.7438 103.998 88.6618 103.563C88.6115 103.296 88.6865 102.914 88.861 102.73C88.9708 102.614 89.4075 102.697 89.6284 102.817C89.9595 102.997 90.2219 103.297 90.5276 103.528C91.0487 103.921 91.338 103.754 91.1968 103.14C90.7957 101.397 91.1644 99.7429 91.7819 98.1437C92.1148 97.2815 92.6566 96.4946 93.1594 95.7087C93.2072 95.634 93.6909 95.7471 93.9014 95.8821C94.2918 96.1327 94.6298 96.464 94.9896 96.7617C95.0138 96.2853 95.0214 95.8073 95.0685 95.3331C95.0964 95.0514 95.1662 94.7694 95.2522 94.4985C95.6833 93.1411 95.9145 93.0724 97.0556 93.9236C97.2087 94.0378 97.3919 94.1121 97.5611 94.2049C97.5843 94.0321 97.6149 93.8599 97.6296 93.6864C97.7555 92.1946 97.4548 90.841 96.3563 89.7333C96.3433 89.7201 96.5817 89.3308 96.7188 89.3201C98.301 89.1966 99.8835 89.1315 101.331 89.9709C101.627 90.1424 101.922 90.3152 102.263 90.533C102.401 90.4088 102.555 90.2456 102.574 90.0682Z" fill="white"/>
<path fill-rule="evenodd" clip-rule="evenodd" d="M126.036 35.1922C121.363 39.0372 119.244 44.6038 119.679 51.8919C120.331 62.8241 133.14 70.6127 139.336 67.316C145.532 64.0194 152.373 59.217 153.19 48.9946C153.537 58.7219 154.564 63.4561 141.355 70.5105C128.146 77.5649 114.337 66.6189 112.339 62.1073C110.342 57.5957 105.534 47.6359 115.293 36.0811C116.628 34.553 120.209 34.2566 126.036 35.1922Z" fill="white"/>
<path fill-rule="evenodd" clip-rule="evenodd" d="M237.367 163.102C238.497 162.979 239.538 162.88 240.572 162.728C242.919 162.382 245.262 162.001 247.609 161.651C249.006 161.442 250.423 161.341 251.8 161.046C252.766 160.839 253.642 160.973 254.531 161.264C254.674 161.311 254.784 161.459 254.909 161.56C254.759 161.643 254.616 161.782 254.457 161.802C252.394 162.06 250.325 162.276 248.264 162.556C246.192 162.837 244.131 163.193 242.061 163.487C240.618 163.692 239.167 163.837 237.722 164.028C236.969 164.128 236.224 164.289 235.471 164.389C234.405 164.53 233.333 164.624 232.267 164.766C231.016 164.934 229.771 165.141 228.521 165.313C227.516 165.451 226.506 165.551 225.501 165.688C224.221 165.861 222.943 166.059 221.664 166.237C220.719 166.368 219.773 166.487 218.828 166.607C217.832 166.733 216.831 166.832 215.84 166.985C215.239 167.077 214.687 167.073 214.509 166.387C214.346 165.762 214.668 165.272 215.281 165.137C216.121 164.952 216.984 164.851 217.842 164.77C218.861 164.675 219.885 164.634 220.907 164.579C222.166 164.512 223.426 164.477 224.683 164.387C226.02 164.291 227.353 164.139 228.689 164.026C230.261 163.894 231.835 163.798 233.405 163.647C234.221 163.569 235.028 163.406 235.84 163.288C236.317 163.218 236.796 163.163 237.367 163.102Z" fill="#E7EAEE"/>
<path fill-rule="evenodd" clip-rule="evenodd" d="M212.848 154.46C213.979 154.399 215.018 154.356 216.055 154.273C217.156 154.184 218.253 154.037 219.354 153.952C220.59 153.857 221.831 153.818 223.067 153.727C224.47 153.623 225.87 153.477 227.272 153.37C228.309 153.291 229.35 153.263 230.387 153.18C231.687 153.077 232.984 152.928 234.284 152.825C235.321 152.742 236.363 152.716 237.399 152.634C238.77 152.525 240.135 152.323 241.507 152.277C243.071 152.225 244.643 151.741 246.206 152.277C246.393 152.341 246.562 152.454 246.739 152.543C246.57 152.575 246.403 152.618 246.233 152.636C245.047 152.761 243.859 152.868 242.674 153.006C241.235 153.174 239.802 153.393 238.361 153.539C237.307 153.646 236.241 153.639 235.186 153.739C233.74 153.875 232.3 154.082 230.854 154.226C229.805 154.331 228.749 154.375 227.698 154.462C226.326 154.575 224.956 154.698 223.586 154.825C222.337 154.941 221.088 155.057 219.842 155.191C218.25 155.362 216.662 155.573 215.069 155.729C213.557 155.877 212.039 155.96 210.527 156.105C209.475 156.206 208.431 156.398 207.378 156.48C206.968 156.512 206.51 156.424 206.133 156.258C205.864 156.139 205.694 155.799 205.479 155.558C205.751 155.374 206.01 155.056 206.298 155.028C208.043 154.863 209.795 154.769 211.543 154.637C211.95 154.607 212.352 154.52 212.848 154.46Z" fill="#E7EAEE"/>
<path fill-rule="evenodd" clip-rule="evenodd" d="M116.686 177.436C116.591 177.511 116.542 177.569 116.494 177.568C116.062 177.555 115.631 177.532 115.199 177.512C115.612 177.23 115.988 176.796 116.442 176.692C118.23 176.286 119.84 175.569 121.332 174.512C123.281 173.131 124.484 171.32 124.922 169.006C124.989 168.649 124.888 168.49 124.455 168.492C123.837 168.495 123.217 168.395 122.599 168.325C121.39 168.189 120.428 167.341 120.322 166.329C120.254 165.68 121.235 164.321 121.96 163.971C123.646 163.155 125.519 164.765 125.998 166.16C126.191 166.721 126.283 166.518 126.537 166.287C127.741 165.195 128.135 163.793 128.039 162.253C127.937 160.607 127.206 159.283 125.768 158.357C125.27 158.036 125.079 157.579 125.465 156.996C125.886 156.36 127.055 156.317 127.512 156.88C128.13 157.64 128.671 158.516 129.012 159.427C129.838 161.637 129.627 163.785 128.237 165.762C128.137 165.904 128.055 166.067 127.927 166.177C126.836 167.118 126.248 168.289 125.804 169.668C124.488 173.759 121.468 176.174 117.374 177.383C117.177 177.441 116.947 177.39 116.686 177.436ZM122.254 165.064C121.464 165.528 121.249 166.862 121.997 167.094C122.861 167.362 123.859 167.214 124.799 167.223C124.839 167.223 124.907 166.989 124.92 166.86C125.042 165.605 123.858 164.74 122.254 165.064Z" fill="#FFB61D"/>
<path fill-rule="evenodd" clip-rule="evenodd" d="M226.969 158.459C229.577 158.213 232.092 157.948 234.61 157.728C236.394 157.572 238.186 157.492 239.971 157.347C241.073 157.257 242.171 157.112 243.269 156.983C244.785 156.804 246.302 156.47 247.815 156.487C248.678 156.497 249.681 156.775 250.27 157.643C250.315 157.71 250.366 157.774 250.415 157.839C250.301 157.861 250.179 157.922 250.074 157.9C248.101 157.485 246.16 157.887 244.202 158.066C242.837 158.191 241.449 158.042 240.075 158.104C238.696 158.165 237.323 158.341 235.946 158.458C234.425 158.586 232.902 158.686 231.384 158.835C230.569 158.915 229.763 159.095 228.949 159.191C227.738 159.334 226.522 159.425 225.312 159.57C223.928 159.735 222.542 159.9 221.167 160.127C219.533 160.397 217.914 160.756 216.281 161.034C214.663 161.309 213.042 161.603 211.41 161.745C210.667 161.81 209.88 161.581 209.137 161.391C208.566 161.245 208.695 160.845 209.059 160.583C209.353 160.372 209.713 160.188 210.066 160.133C211.128 159.968 212.2 159.87 213.269 159.75C214.398 159.624 215.527 159.484 216.659 159.385C218.271 159.244 219.887 159.152 221.498 159.006C222.477 158.917 223.448 158.75 224.427 158.648C225.241 158.563 226.06 158.52 226.969 158.459Z" fill="#E7EAEE"/>
<path fill-rule="evenodd" clip-rule="evenodd" d="M209.671 150.838C211.823 150.594 213.881 150.337 215.943 150.111C217.283 149.965 218.629 149.88 219.969 149.734C220.751 149.649 221.526 149.489 222.306 149.378C222.842 149.302 223.383 149.259 223.92 149.191C225.563 148.982 227.203 148.743 228.849 148.562C230.523 148.378 232.205 148.265 233.88 148.09C235.415 147.93 236.941 147.681 238.479 147.572C239.031 147.533 239.614 147.759 240.162 147.929C240.345 147.986 240.464 148.245 240.612 148.411C240.402 148.48 240.195 148.594 239.982 148.61C238.785 148.695 237.586 148.738 236.39 148.832C235.127 148.931 233.867 149.059 232.608 149.196C231.643 149.3 230.682 149.445 229.718 149.556C228.561 149.688 227.399 149.778 226.245 149.929C224.551 150.151 222.864 150.419 221.171 150.653C219.339 150.907 217.5 151.117 215.671 151.395C214.091 151.635 212.525 151.958 210.949 152.22C208.877 152.564 206.799 152.875 204.727 153.221C203.971 153.347 203.511 152.919 203.443 152.322C203.381 151.782 203.86 151.585 204.473 151.544C206.082 151.438 207.683 151.207 209.286 151.015C209.389 151.002 209.482 150.899 209.671 150.838Z" fill="#E7EAEE"/>
<path fill-rule="evenodd" clip-rule="evenodd" d="M233.71 170.001C231.702 170.25 229.786 170.494 227.872 170.751C227.057 170.861 226.246 171.071 225.432 171.081C225.167 171.084 224.641 170.544 224.682 170.347C224.765 169.948 225.11 169.353 225.425 169.299C226.766 169.068 228.136 169.009 229.495 168.878C230.72 168.76 231.945 168.625 233.17 168.507C234.529 168.377 235.888 168.251 237.248 168.134C238.771 168.002 240.294 167.874 241.818 167.761C242.862 167.684 243.91 167.653 244.953 167.566C246.18 167.463 247.403 167.308 248.629 167.202C249.611 167.117 250.598 167.096 251.579 167.004C252.591 166.909 253.598 166.76 254.607 166.639C254.729 166.624 254.863 166.607 254.976 166.642C255.366 166.761 255.749 166.902 256.135 167.035C255.795 167.151 255.463 167.329 255.113 167.374C253.047 167.644 250.975 167.875 248.907 168.135C247.531 168.307 246.16 168.524 244.783 168.687C243.52 168.837 242.249 168.924 240.985 169.074C240.32 169.153 239.667 169.348 239.002 169.421C237.585 169.576 236.163 169.68 234.745 169.819C234.428 169.85 234.116 169.939 233.71 170.001Z" fill="#E7EAEE"/>
<path fill-rule="evenodd" clip-rule="evenodd" d="M79.9986 109.953C82.1819 107.966 84.5329 106.344 87.1685 105.148C87.2708 105.101 87.3755 104.989 87.4663 105.001C87.8623 105.055 88.2535 105.144 88.6464 105.22C88.362 105.413 88.0974 105.648 87.7902 105.792C84.7408 107.227 81.9006 108.968 79.5902 111.462C77.3446 113.886 75.7347 116.607 75.3795 120.003C75.053 123.125 75.452 126.045 77.2308 128.679C78.1855 130.092 79.4744 131.147 81.0407 131.847C81.1651 131.902 81.2823 131.974 81.4028 132.038C81.2629 132.066 81.1238 132.1 80.9829 132.122C79.0475 132.42 78.0395 131.003 77.0715 129.795C75.5162 127.854 74.7769 125.558 74.4482 123.058C74.1382 120.7 74.5755 118.507 75.4341 116.406C76.4373 113.95 78.0077 111.825 79.9986 109.953Z" fill="#00160A"/>
<path fill-rule="evenodd" clip-rule="evenodd" d="M201.092 150.291C200.763 149.572 201.24 148.777 201.996 148.784C203.289 148.796 204.581 148.882 205.872 148.947C206.861 148.996 207.849 149.061 208.837 149.118C208.956 149.125 209.106 149.089 209.188 149.144C209.463 149.328 209.714 149.545 209.974 149.749C209.723 149.871 209.479 150.081 209.22 150.1C208.42 150.159 207.606 150.216 206.81 150.145C205.401 150.018 204.069 150.332 202.768 150.728C202.059 150.943 201.612 150.719 201.092 150.291Z" fill="#E7EAEE"/>
<path fill-rule="evenodd" clip-rule="evenodd" d="M14.4405 91.1065C14.2562 92.2173 14.0522 93.2338 13.8948 94.2573C13.7951 94.906 13.7727 95.566 13.7015 96.2194C13.5854 97.2856 13.3811 98.3484 13.35 99.4166C13.2744 102.003 13.2982 104.592 13.2426 107.18C13.189 109.675 13.6733 112.09 14.2592 114.494C14.373 114.961 14.4074 115.511 14.6864 115.859C15.1145 116.394 14.717 116.653 14.4164 116.735C14.1293 116.813 13.5691 116.673 13.454 116.458C13.1385 115.87 12.9248 115.205 12.7955 114.546C12.4678 112.876 12.0706 111.203 11.9554 109.515C11.7994 107.23 11.9076 104.928 11.8536 102.635C11.7881 99.8557 12.2006 97.1265 12.5852 94.3863C13.22 89.8633 14.1277 85.4041 15.5672 81.0635C15.741 80.5394 16.1312 80.0334 16.5466 79.6539C17.0541 79.1902 17.8358 79.614 17.9476 80.3136C18.08 81.1411 17.7001 81.7747 17.242 82.4005C15.8629 84.2844 15.1735 86.4324 14.8092 88.7022C14.6855 89.4731 14.5634 90.2442 14.4405 91.1065Z" fill="#E7EAEE"/>
<path fill-rule="evenodd" clip-rule="evenodd" d="M23.7393 110.83C23.6743 111.398 24.7037 112.079 23.556 112.294C23.2457 112.352 22.5666 111.736 22.4238 111.318C21.9913 110.054 21.5726 108.748 21.4563 107.434C21.2958 105.62 21.4161 103.783 21.4161 101.956C21.4161 101.744 21.4161 101.532 21.4161 101.32C21.4161 98.4434 21.4293 95.5666 21.4072 92.6901C21.4013 91.9276 21.2217 91.164 21.2441 90.4041C21.2606 89.845 21.3774 89.2454 21.6365 88.7503C21.8217 88.3964 22.3001 88.0045 22.6793 87.9736C22.9399 87.9524 23.4628 88.4976 23.5053 88.8306C23.6165 89.7022 23.5717 90.5991 23.5061 91.4805C23.4551 92.1649 23.213 92.8376 23.1715 93.5216C23.0676 95.2307 23.0222 96.9432 22.9667 98.6546C22.8948 100.87 22.6914 103.093 22.8161 105.299C22.9192 107.123 23.4166 108.926 23.7393 110.83Z" fill="#E7EAEE"/>
<path fill-rule="evenodd" clip-rule="evenodd" d="M32.5237 107.139C30.7797 104.461 29.4798 101.634 28.6664 98.599C28.5024 97.987 28.645 97.2111 28.8761 96.6014C28.9872 96.3086 29.7585 95.98 30.0083 96.1105C30.3471 96.2875 30.6167 96.8735 30.6635 97.3121C30.844 99.0051 30.9602 100.681 31.5226 102.328C32.2059 104.33 33.378 106.001 34.5132 107.717C34.7495 108.074 35.4563 108.427 34.9578 108.88C34.4611 109.332 33.9563 108.808 33.5818 108.394C33.2297 108.004 32.9051 107.588 32.5237 107.139Z" fill="#E7EAEE"/>
<path fill-rule="evenodd" clip-rule="evenodd" d="M40.5271 101.402C39.4782 100.389 38.428 99.4655 37.4889 98.4357C37.0005 97.9001 37.0921 97.2194 37.6791 96.7083C38.2646 96.1987 38.6308 96.6744 38.9681 97.0622C40.2441 98.5296 41.5022 100.013 42.7614 101.496C42.8327 101.58 42.9083 101.792 42.8902 101.804C42.6844 101.946 42.4183 102.207 42.2494 102.156C41.6727 101.98 41.1285 101.693 40.5271 101.402Z" fill="#E7EAEE"/>
<path fill-rule="evenodd" clip-rule="evenodd" d="M95.7817 224.584C98.1535 225.174 100.443 225.731 102.702 226.382C103.117 226.501 103.411 226.998 103.761 227.321C103.27 227.352 102.748 227.502 102.294 227.394C99.9466 226.836 97.5959 226.276 95.2871 225.592C93.0217 224.921 90.8047 224.102 88.568 223.344C88.4613 223.307 88.3727 223.226 88.2703 223.175C87.7227 222.903 87.1393 222.627 87.5707 221.897C87.9685 221.224 88.5876 221.241 89.2004 221.585C90.0991 222.089 90.9265 222.725 91.8625 223.148C93.0984 223.706 94.4099 224.113 95.7817 224.584Z" fill="#E7EAEE"/>
<path fill-rule="evenodd" clip-rule="evenodd" d="M98.8795 217.65C99.8434 218.202 100.768 218.694 101.671 219.223C101.863 219.335 101.977 219.583 102.127 219.769C101.807 219.896 101.418 220.21 101.178 220.119C99.2611 219.393 97.3668 218.604 95.477 217.806C94.4388 217.368 93.4126 216.897 92.4007 216.401C91.8345 216.122 91.1894 215.831 91.6796 214.97C91.9856 214.433 92.7113 214.3 93.3864 214.666C95.1995 215.649 97.0169 216.624 98.8795 217.65Z" fill="#E7EAEE"/>
<path fill-rule="evenodd" clip-rule="evenodd" d="M93.549 207.447C93.5116 206.125 94.3647 205.567 95.4725 206.219C97.3562 207.328 99.1916 208.52 101.032 209.701C101.581 210.053 102.099 210.461 102.588 210.893C102.77 211.054 102.829 211.356 102.944 211.594C102.625 211.588 102.262 211.679 101.994 211.559C100.419 210.853 98.8596 210.108 97.3059 209.354C96.0612 208.75 94.8319 208.115 93.549 207.447Z" fill="#E7EAEE"/>
<path fill-rule="evenodd" clip-rule="evenodd" d="M99.9358 198.243C101.554 198.264 102.412 199.333 103.337 200.279C103.602 200.551 103.817 200.89 103.977 201.234C104.135 201.574 104.348 202.039 103.909 202.269C103.711 202.373 103.274 202.168 103.01 202.004C102.251 201.534 101.535 200.998 100.78 200.522C100.508 200.352 100.129 200.336 99.8733 200.151C99.5 199.882 99.194 199.524 98.8594 199.205C99.1883 198.884 99.5172 198.564 99.9358 198.243Z" fill="#E7EAEE"/>
<path fill-rule="evenodd" clip-rule="evenodd" d="M105.11 172.142C106.446 174.892 107.516 177.73 107.873 180.79C108.065 182.431 108.284 184.07 108.415 185.716C108.533 187.211 108.625 188.715 108.591 190.212C108.551 192.003 108.356 193.79 108.246 195.58C108.169 196.825 108.156 198.074 108.05 199.316C107.9 201.062 107.661 202.802 107.516 204.549C107.406 205.871 107.333 207.201 107.336 208.528C107.339 210.037 107.448 211.547 107.505 213.056C107.571 214.779 107.424 216.54 107.738 218.216C108.209 220.724 108.854 223.223 109.691 225.635C110.922 229.181 113.052 232.263 115.401 235.164C116.852 236.956 118.527 238.547 120.886 239.165C120.916 239.173 120.943 239.455 120.882 239.508C120.012 240.263 118.93 239.956 118.012 239.834C115.96 239.562 113.931 239.081 111.916 238.592C106.795 237.349 101.681 236.076 96.5758 234.77C94.0885 234.135 91.6285 233.394 89.1514 232.718C88.7869 232.618 88.317 232.453 88.0308 232.592C86.5866 233.295 85.4709 232.523 84.4093 231.808C82.0826 230.243 80.763 227.968 80.0787 225.296C79.1346 221.61 79.8935 218.092 81.2634 214.683C82.1668 212.435 83.2441 210.251 84.326 208.079C85.424 205.875 86.8022 203.838 88.473 202.016C89.0375 201.401 89.7236 200.897 90.3369 200.324C91.1783 199.537 91.2224 198.459 91.2917 197.431C91.372 196.241 91.1903 195.022 91.3624 193.85C91.9472 189.868 93.7169 186.292 95.578 182.792C96.5059 181.047 97.6845 179.388 98.9932 177.903C99.964 176.8 101.241 175.908 102.744 175.485C103.205 175.356 103.336 175.251 102.992 174.68C102.494 173.853 101.794 172.893 102.674 171.786C103.727 170.74 104.487 170.858 105.11 172.142ZM106.51 180.446C106.474 180.481 106.414 180.512 106.406 180.553C106.338 180.903 106.33 181.272 106.209 181.602C105.677 183.059 105.266 184.586 104.529 185.935C103.052 188.643 101.167 191.081 98.9398 193.24C96.9981 195.121 95.0283 196.975 93.1028 198.873C92.0051 199.955 90.8757 201.027 89.9302 202.235C88.4134 204.172 86.8199 206.102 85.6589 208.248C84.3102 210.742 83.2992 213.432 82.3229 216.102C81.7097 217.779 81.2939 219.557 81.037 221.326C80.7611 223.226 81.13 225.121 81.9955 226.853C82.6336 228.13 83.532 229.188 85.0037 229.649C86.7636 230.199 88.4917 230.849 90.2476 231.413C94.1439 232.665 98.0269 233.966 101.958 235.102C104.901 235.952 107.902 236.609 110.893 237.287C112.587 237.671 114.309 237.931 116.023 238.223C116.158 238.246 116.326 238.085 116.478 238.009C116.401 237.902 116.335 237.785 116.246 237.687C115.621 236.999 114.923 236.363 114.374 235.619C112.862 233.57 111.206 231.59 109.983 229.377C107.812 225.451 106.357 221.241 106.03 216.712C105.93 215.318 105.788 213.927 105.666 212.351C105.666 210.603 105.595 208.851 105.687 207.108C105.767 205.613 106.038 204.128 106.217 202.639C106.346 201.562 106.389 200.469 106.602 199.41C107.008 197.385 106.817 196.567 105.082 195.412C104.276 194.875 103.263 194.358 103.224 193.233C103.207 192.757 103.591 192.193 103.953 191.825C104.062 191.714 104.836 192.023 105.088 192.322C105.659 192.998 106.091 193.789 106.59 194.526C106.671 194.645 106.809 194.725 106.921 194.823C106.993 194.7 107.118 194.582 107.13 194.454C107.207 193.597 107.314 192.737 107.309 191.879C107.302 190.776 107.192 189.674 107.14 188.571C107.071 187.093 107.022 185.613 106.952 184.135C106.902 183.082 106.842 182.03 106.76 180.98C106.745 180.796 106.597 180.623 106.51 180.446ZM102.72 176.68C100.748 177.355 99.3905 178.794 98.3229 180.457C96.1924 183.778 94.4959 187.328 93.3882 191.113C92.8722 192.876 92.6523 194.73 93.3435 196.541C93.3841 196.647 93.6681 196.78 93.6883 196.759C96.33 193.987 98.9836 191.225 101.579 188.411C104.227 185.539 105.227 182.112 104.732 178.272C104.508 176.53 104.384 176.485 102.72 176.68ZM244.564 142.395C245.394 142.483 246.342 142.909 246.934 143.489C248.429 144.954 249.754 146.591 251.143 148.162C251.995 149.125 252.848 150.088 253.686 151.063C255.453 153.118 257.207 155.184 258.975 157.237C259.524 157.875 260.112 158.48 260.663 159.116C260.821 159.299 260.914 159.537 261.037 159.75C260.863 159.609 260.675 159.481 260.517 159.324C256.339 155.171 252.177 151.001 247.981 146.866C246.607 145.512 245.045 144.366 243.16 143.832C241.174 143.27 239.15 143.079 237.068 143.418C236.02 143.588 234.919 143.412 233.844 143.455C231.452 143.55 229.063 143.706 226.67 143.793C225.269 143.844 223.862 143.763 222.462 143.828C220.963 143.896 219.469 144.065 217.973 144.192C216.597 144.31 215.221 144.42 213.846 144.553C212.758 144.659 211.673 144.807 210.585 144.914C209.201 145.049 207.812 145.131 206.432 145.294C205.262 145.432 204.103 145.66 202.937 145.834C201.641 146.027 200.341 146.195 199.044 146.389C197.049 146.688 195.054 146.995 193.062 147.32C192.989 147.332 192.866 147.618 192.908 147.678C193.277 148.206 193.657 148.73 194.073 149.221C196.153 151.673 198.26 154.101 200.328 156.563C202.673 159.354 204.943 162.208 207.328 164.965C209.002 166.899 210.651 168.894 213.013 170.087C213.089 170.125 213.156 170.179 213.227 170.226C213.141 170.24 213.046 170.286 212.97 170.264C211.527 169.844 210.022 169.672 208.968 168.317C207.023 165.816 204.928 163.431 202.928 160.972C200.452 157.929 198.098 154.783 195.157 152.148C194.918 151.934 194.668 151.711 194.383 151.57C193.753 151.258 193.174 151.154 192.683 151.894C191.705 153.366 190.637 154.781 189.66 156.254C189.008 157.237 189.22 157.719 190.399 158.515C193.502 160.612 196.873 162.104 200.48 163.121C201.981 163.545 203.471 164.082 204.538 165.337C204.613 165.426 204.694 165.511 204.773 165.597C204.646 165.585 204.51 165.598 204.394 165.557C199.537 163.852 194.675 162.162 189.834 160.412C189.039 160.124 188.307 159.615 187.612 159.116C187.169 158.798 187.189 158.321 187.479 157.809C188.474 156.049 189.425 154.266 190.383 152.487C190.448 152.366 190.477 152.087 190.454 152.079C190.21 151.996 189.94 151.875 189.7 151.912C188.695 152.063 187.683 152.207 186.701 152.461C184.486 153.036 182.286 153.67 180.084 154.297C179.956 154.334 179.871 154.525 179.767 154.645C180.323 155.076 180.88 155.508 181.483 155.986C183.816 158.001 186.104 159.969 188.388 161.941C189.611 162.998 190.827 164.064 192.046 165.125C192.096 165.169 192.148 165.21 192.199 165.252C192.084 165.271 191.959 165.329 191.855 165.303C190.374 164.931 188.923 164.557 187.711 163.497C184.818 160.965 181.854 158.512 178.935 156.009C178.334 155.494 177.751 154.941 177.258 154.327C176.638 153.558 176.779 153.027 177.758 152.652C178.53 152.357 179.374 152.221 180.198 152.09C182.655 151.7 185.117 151.335 187.581 150.985C188.664 150.831 189.755 150.741 190.841 150.607C191.035 150.583 191.22 150.486 191.409 150.424C191.315 150.272 191.243 150.1 191.124 149.972C190.173 148.953 189.213 147.942 188.256 146.929C188.172 146.839 188.082 146.755 187.995 146.668C188.132 146.636 188.266 146.592 188.404 146.572C190.926 146.202 193.449 145.831 195.972 145.47C197.63 145.233 199.286 144.988 200.949 144.794C202.65 144.596 204.356 144.435 206.063 144.295C207.59 144.17 209.123 144.117 210.65 143.991C211.627 143.91 212.596 143.719 213.574 143.64C214.797 143.542 216.026 143.526 217.251 143.443C218.78 143.339 220.306 143.186 221.836 143.085C223.121 143 224.411 142.977 225.697 142.89C226.734 142.821 227.766 142.669 228.803 142.607C229.817 142.546 230.834 142.552 231.85 142.529C234.48 142.468 237.11 142.393 239.74 142.35C241.35 142.324 242.973 142.224 244.564 142.395ZM91.5829 136.231C92.2847 136.303 93.0019 136.209 93.7086 136.25C95.4318 136.352 97.1519 136.509 98.8754 136.605C100.48 136.694 102.091 136.676 103.691 136.811C105.329 136.948 106.309 137.628 106.204 139.577C106.11 141.334 106.077 143.095 106.014 144.855C105.956 146.492 105.892 148.129 105.834 149.767C105.826 150.009 105.835 150.252 105.85 150.494C105.864 150.704 105.899 150.912 105.924 151.121C105.864 151.121 105.757 151.139 105.749 151.119C105.663 150.893 105.55 150.666 105.523 150.43C105.427 149.604 105.365 148.774 105.285 147.946C105.165 146.711 105.045 145.475 104.919 144.241C104.856 143.616 104.784 142.993 104.71 142.369C104.664 141.982 104.619 141.594 104.55 141.21C104.521 141.047 104.43 140.895 104.367 140.737C104.238 140.81 104.083 140.858 103.984 140.96C102.775 142.207 101.949 143.662 101.632 145.393C101.597 145.582 101.482 145.757 101.404 145.939C101.339 145.778 101.286 145.612 101.209 145.458C99.7967 142.652 97.5722 140.788 94.5344 140.15C93.146 139.859 91.6474 140.107 90.1988 140.098C89.4696 140.094 89.3489 140.51 89.4123 141.128C89.5504 142.473 89.6543 143.822 89.7838 145.168C89.9599 147 90.1494 148.831 90.3286 150.662C90.4543 151.947 90.5569 153.235 90.7042 154.518C90.7456 154.879 90.911 155.225 91.0147 155.579C91.0632 155.744 91.1003 155.914 91.1425 156.081C90.9573 155.953 90.656 155.86 90.6065 155.692C90.3564 154.843 90.1729 153.974 89.9644 153.112C89.7222 152.112 89.4782 151.112 89.235 150.02C88.9919 148.316 88.6572 146.712 88.5274 145.09C88.344 142.799 87.9911 140.483 88.5051 138.202C88.796 136.91 90.2803 136.096 91.5829 136.231ZM86.6366 140.732C87.016 140.865 87.3024 141.267 87.6293 141.552C87.4037 141.812 87.2159 142.125 86.9446 142.322C86.3504 142.753 85.6422 143.045 85.109 143.536C83.8422 144.7 84.4415 147.015 85.7561 147.627C86.3626 147.909 86.9683 148.196 87.5539 148.518C87.7658 148.635 87.9183 148.861 88.0979 149.037C87.8793 149.042 87.6608 149.048 87.4423 149.054C86.039 149.09 84.9865 148.446 84.2002 147.326C83.0156 145.638 83.6445 143.987 85.0392 142.666C85.1706 142.542 85.2896 142.404 85.4239 142.283C85.597 142.127 85.7796 141.982 85.9582 141.832C85.6111 141.788 85.2283 141.627 84.9233 141.721C83.7847 142.072 83.1385 143.017 82.7927 144.051C81.6054 147.6 84.412 150.475 87.5961 150.105C87.9323 150.066 88.2956 150.262 88.6463 150.349C88.5619 150.402 88.4839 150.474 88.3922 150.504C85.7263 151.367 83.4551 150.389 82.1673 147.832C82.0784 147.655 81.9568 147.496 81.8505 147.237C81.2344 144.102 82.5502 141.763 85.4377 140.828C85.816 140.706 86.2879 140.61 86.6366 140.732ZM89.8828 137.174C89.3177 137.302 89.1192 137.908 89.4183 138.446C89.8277 139.183 90.4588 139.21 91.2198 139.136C92.4203 139.018 93.6434 138.926 94.8399 139.027C96.3571 139.156 97.8499 139.567 99.3669 139.709C100.63 139.828 101.913 139.734 103.279 139.642C103.813 139.611 104.346 139.571 104.88 139.552C105.522 139.529 105.888 139.019 105.543 138.473C105.331 138.138 104.893 137.789 104.52 137.743C102.961 137.55 101.389 137.436 99.8192 137.357C98.709 137.3 97.5916 137.39 96.4812 137.335C94.8001 137.253 93.1235 137.078 91.4425 136.992C90.9259 136.965 90.3915 137.058 89.8828 137.174ZM173.083 130.544C174.94 130.58 176.792 130.879 178.645 131.069C178.784 131.084 178.933 131.127 179.048 131.202C179.29 131.358 179.513 131.545 179.744 131.72C179.449 131.749 179.155 131.785 178.86 131.805C177.011 131.931 175.163 132.064 173.313 132.166C173.006 132.182 172.687 131.986 172.38 132.002C170.468 132.104 168.56 132.254 166.648 132.35C166.218 132.371 165.777 132.167 165.347 132.189C163.497 132.284 161.65 132.436 159.8 132.536C159.462 132.554 159.112 132.355 158.774 132.373C156.863 132.473 154.954 132.623 153.043 132.72C152.644 132.741 152.233 132.538 151.834 132.559C149.983 132.655 148.136 132.808 146.286 132.906C145.918 132.925 145.538 132.725 145.169 132.744C143.257 132.842 141.349 132.991 139.438 133.091C139.099 133.109 138.75 132.911 138.412 132.929C136.501 133.029 134.592 133.175 132.681 133.277C132.373 133.293 132.055 133.097 131.747 133.114C129.836 133.215 127.927 133.365 126.016 133.461C125.586 133.482 125.145 133.278 124.715 133.3C122.864 133.395 121.017 133.547 119.167 133.647C118.829 133.665 118.48 133.467 118.142 133.484C116.23 133.584 114.322 133.733 112.41 133.832C112.042 133.851 111.662 133.651 111.293 133.67C109.412 133.768 107.534 133.919 105.654 134.017C105.285 134.036 104.905 133.836 104.536 133.855C102.625 133.953 100.716 134.104 98.805 134.202C98.4362 134.221 98.0562 134.021 97.6875 134.04C95.8375 134.138 93.9901 134.288 92.1401 134.388C91.8021 134.406 91.4527 134.207 91.1145 134.225C89.2033 134.325 87.2945 134.47 85.3834 134.573C85.1065 134.588 84.8179 134.393 84.5417 134.41C82.9654 134.506 81.3923 134.653 79.8161 134.75C78.7433 134.817 77.6636 134.788 76.5936 134.88C75.0649 135.012 73.5329 135.157 72.0201 135.406C70.8366 135.601 69.6899 136.025 68.5057 136.211C68.172 136.263 67.6804 135.905 67.4297 135.596C67.3237 135.465 67.5624 134.864 67.8 134.67C68.7743 133.874 69.9467 133.739 71.2519 133.843C72.0643 133.782 72.785 133.724 73.505 133.657C74.813 133.537 76.1184 133.373 77.4288 133.297C79.1581 133.197 80.8914 133.107 82.6225 133.116C85.5289 133.13 88.4347 133.266 91.341 133.274C93.5012 133.28 95.6618 133.168 97.822 133.101C99.6455 133.045 101.469 132.978 103.292 132.918C105.207 132.855 107.123 132.795 109.038 132.732C110.861 132.672 112.685 132.628 114.508 132.542C116.674 132.44 118.838 132.285 121.005 132.189C121.466 132.168 121.937 132.368 122.399 132.351C125.147 132.25 127.894 132.112 130.642 131.995C131.142 131.973 131.645 132.02 132.144 131.986C133.779 131.877 135.412 131.729 137.048 131.633C137.416 131.612 137.797 131.815 138.165 131.794C139.831 131.698 141.495 131.547 143.161 131.447C143.468 131.429 143.788 131.628 144.095 131.61C145.73 131.511 147.363 131.358 148.999 131.263C149.367 131.242 149.748 131.445 150.116 131.424C151.782 131.328 153.446 131.173 155.112 131.078C155.48 131.057 155.861 131.26 156.229 131.238C157.835 131.144 159.436 130.986 161.042 130.893C161.44 130.87 161.852 131.076 162.251 131.053C163.856 130.96 165.458 130.807 167.063 130.706C167.339 130.689 167.628 130.886 167.905 130.869C169.632 130.768 171.36 130.51 173.083 130.544ZM173.052 39.7863C177.1 40.158 180.914 41.4459 184.425 43.4356C186.488 44.6049 188.407 46.0511 190.286 47.5048C193.201 49.7599 195.49 52.5854 197.467 55.6664C198.942 57.9641 200.231 60.3638 200.996 62.9766C201.692 65.352 202.315 67.7669 202.703 70.2058C202.984 71.9673 202.818 73.7971 202.87 75.5959C202.923 77.4342 202.729 79.2473 202.532 81.0761C202.051 85.5399 201.207 89.913 199.944 94.2264C199.396 96.0981 199.792 98.0349 200.151 99.9301C200.466 101.59 201.046 103.142 201.936 104.584C202.043 104.758 202.035 105.002 202.08 105.213C201.852 105.199 201.611 105.225 201.397 105.163C199.854 104.715 199.353 103.465 198.985 102.097C198.721 101.115 198.482 100.113 198.079 99.185C197.618 98.1236 197.439 98.2245 196.427 98.7248C194.343 99.7548 192.225 100.733 190.062 101.587C187.132 102.744 184.051 103.344 180.934 103.829C179.242 104.092 177.534 104.604 176.26 105.83C175.667 106.4 175.208 107.209 174.956 107.994C174.64 108.976 174.568 110.012 175.156 111.029C175.505 111.632 175.871 111.734 176.451 111.576C179.267 110.807 182.062 109.953 184.904 109.298C187.087 108.794 189.337 108.583 191.542 108.163C193.83 107.728 196.134 107.621 198.452 107.631C198.626 107.632 198.8 107.677 198.974 107.702C198.816 107.738 198.659 107.778 198.501 107.81C196.346 108.248 194.19 108.677 192.037 109.123C190.087 109.528 188.141 109.957 186.191 110.363C184.011 110.817 181.823 111.235 179.648 111.711C178.586 111.943 177.525 112.211 176.502 112.569C175.074 113.069 174.625 113.948 174.547 115.555C174.459 117.364 174.773 119.058 175.212 120.737C175.999 123.751 177.347 126.499 179.529 128.824C181.362 130.777 183.429 132.36 186.057 133.034C187.474 133.397 188.956 133.626 190.417 133.681C192.24 133.75 194.012 133.411 195.74 132.69C197.906 131.786 199.579 130.365 200.82 128.465C202.183 126.377 203.08 124.068 203.404 121.595C203.672 119.542 203.952 117.468 203.936 115.406C203.913 112.433 203.292 109.531 202.134 106.763C202.062 106.591 201.781 106.348 202.333 106.332C203.794 106.29 205.244 107.612 205.263 109.119C205.28 110.498 205.327 111.88 205.253 113.255C205.12 115.747 207.801 119.004 210.01 119.566C210.493 119.688 210.537 119.519 210.418 119.271C209.072 116.442 209.898 113.676 210.698 110.943C212.243 105.665 214.36 100.594 216.48 95.5223C218.553 90.5629 220.544 85.5696 222.557 80.5857C224.264 76.3583 225.944 72.1201 227.65 67.8922C229.293 63.8211 230.954 59.757 232.609 55.6906C232.662 55.5605 232.749 55.4436 232.801 55.3131C232.899 55.0656 232.983 54.8127 233.073 54.562C232.816 54.7347 232.498 54.8585 232.311 55.0873C230.1 57.795 228.041 60.6383 225.675 63.205C223.146 65.9481 220.401 68.5085 217.62 71.0072C215.633 72.7922 213.434 74.3455 211.325 75.9969C211.127 76.1514 210.899 76.2677 210.686 76.4017C210.706 76.1548 210.751 75.907 210.743 75.6609C210.678 73.7736 212.444 73.6039 213.506 72.7797C215.105 71.5386 216.767 70.3723 218.312 69.0701C221.192 66.6439 223.484 63.6828 225.819 60.7656C226.45 59.977 227.126 59.2234 227.828 58.4081C229.875 56.2017 231.801 53.9667 233.899 51.9024C235.739 50.0922 237.784 48.5096 240.367 47.7647C241.519 47.4325 243.612 48.1948 244.387 49.4003C245.196 50.6581 245.517 52.0374 245.513 53.537C245.505 56.6498 244.866 59.6656 244.204 62.6803C243.48 65.9697 242.779 69.265 241.974 72.535C241.501 74.4531 240.946 76.364 240.25 78.2129C238.595 82.6109 236.914 87.0035 235.084 91.3321C234.043 93.7953 232.755 96.1658 231.446 98.5055C230.72 99.8026 229.647 100.791 227.922 100.713C227.215 100.681 226.761 101.498 226.663 102.494C226.522 103.943 226.402 105.405 226.101 106.826C225.491 109.703 224.191 112.318 222.633 114.796C221.456 116.669 220.148 118.46 218.933 120.31C218.092 121.591 216.977 122.625 215.451 122.705C214.495 122.755 213.5 122.153 212.53 121.823C212.372 121.769 212.233 121.624 212.117 121.492C211.642 120.952 211.276 120.154 210.683 119.925C210.128 119.711 209.321 120.25 208.653 120.184C207.512 120.07 206.557 119.482 205.859 118.535C205.723 118.351 205.568 117.921 205.42 118.627C205.018 120.543 204.509 122.439 203.965 124.322C202.975 127.752 201.142 130.702 198.341 132.947C196.605 134.339 194.604 135.261 192.26 135.389C189.883 135.518 187.751 134.879 185.624 133.94C182.614 132.612 179.968 130.802 177.496 128.653C173.95 125.571 171.262 121.879 169.416 117.641C168.384 115.27 167.778 112.71 167.079 110.208C166.375 107.686 165.488 105.268 164.031 103.057C162.711 101.054 161.748 98.8636 161.383 96.4921C161.261 95.7015 161.532 94.8222 161.749 94.0165C162.181 92.4131 162.42 90.7949 162.054 89.1714C161.873 88.3625 161.374 87.6284 161.085 86.8368C159.927 83.6612 158.708 80.5031 157.681 77.2855C156.973 75.0668 156.484 72.7732 156.013 70.4896C155.711 69.0274 155.617 67.523 155.439 66.0365C155.308 64.9521 155.149 63.8689 155.078 62.7803C154.977 61.2162 154.998 59.6435 154.87 58.0823C154.705 56.0685 155.006 54.0743 155.505 52.1816C155.993 50.3305 156.946 48.5754 157.86 46.864C158.918 44.8811 160.368 43.1788 162.329 41.9734C164.08 40.8969 165.949 40.0972 168.026 39.9458C169.698 39.824 171.395 39.6341 173.052 39.7863ZM159.727 88.3784C159.61 88.5688 159.54 88.8426 159.37 88.936C158.375 89.4823 157.379 90.0373 156.341 90.4933C154.578 91.2671 152.785 91.9695 150.912 92.702C147.986 93.9957 145.093 95.1785 142.333 96.6144C139.584 98.0446 137.029 99.7997 134.643 101.808C131.15 104.748 128.332 108.198 126.511 112.363C125.768 114.065 125.258 115.929 125.009 117.769C124.681 120.203 124.721 122.685 124.588 125.146C124.477 127.211 124.354 129.276 124.218 131.34C124.167 132.118 123.557 131.541 123.237 131.682C123.211 131.693 122.946 131.38 122.962 131.236C123.116 129.863 123.393 128.499 123.464 127.123C123.555 125.389 123.472 123.647 123.489 121.908C123.522 118.577 124.161 115.378 125.557 112.329C126.857 109.49 128.611 106.975 130.692 104.648C133.833 101.135 137.593 98.4463 141.693 96.1815C145.571 94.0392 149.59 92.2095 153.752 90.6765C155.557 90.0114 157.315 89.2191 159.099 88.496C159.292 88.4177 159.517 88.4157 159.727 88.3784ZM208.956 128.7C210.55 128.923 212.137 129.199 213.73 129.437C214.701 129.581 215.674 129.762 216.652 129.805C218.084 129.867 219.522 129.797 220.956 129.829C222.007 129.852 223.057 129.941 224.107 130.014C224.851 130.065 225.593 130.181 226.336 130.193C228.057 130.22 229.779 130.22 231.5 130.198C235.532 130.146 239.564 130.034 243.596 130.04C244.626 130.041 245.656 130.393 246.687 130.582C246.746 130.592 246.834 130.556 246.867 130.587C247.103 130.81 247.328 131.045 247.556 131.276C247.258 131.299 246.96 131.341 246.661 131.342C244.622 131.348 242.583 131.363 240.544 131.336C239.739 131.326 238.936 131.182 238.13 131.161C235.174 131.081 232.218 131.022 229.262 130.967C228.207 130.948 227.151 130.964 226.003 130.964C224.681 130.964 223.451 130.987 222.222 130.959C220.342 130.915 218.462 130.806 216.581 130.781C214.204 130.749 211.825 130.818 209.45 130.754C208.337 130.723 207.226 130.509 206.123 130.324C205.506 130.221 205.362 129.654 205.567 129.192C205.708 128.874 206.181 128.54 206.52 128.523C207.328 128.481 208.149 128.588 208.956 128.7ZM161.769 90.4785C161.704 90.5145 161.619 90.5351 161.576 90.5889C160.233 92.2727 158.74 93.8632 157.594 95.6699C156.055 98.0973 154.783 100.697 154.023 103.491C153.611 105.002 153.314 106.543 152.957 108.068C152.722 109.068 152.191 109.895 151.32 110.449C150.164 111.185 148.939 111.817 147.8 112.577C144.964 114.469 143.168 117.147 142.121 120.324C141.535 122.101 141.165 123.921 141.504 125.825C141.71 126.982 141.796 128.16 141.925 129.331C141.946 129.517 141.907 129.71 141.895 129.899C141.646 129.877 141.278 129.948 141.171 129.814C140.879 129.448 140.563 129.015 140.496 128.573C140.297 127.253 140.219 125.916 140.08 124.587C140.051 124.31 139.968 124.038 139.909 123.764C139.661 124.038 139.377 124.287 139.171 124.589C137.794 126.603 136.438 128.632 135.058 130.644C134.958 130.792 134.721 130.848 134.548 130.946C134.503 130.638 134.32 130.26 134.438 130.036C134.875 129.206 135.353 128.384 135.921 127.638C137.25 125.893 138.757 124.269 139.964 122.449C140.76 121.248 141.191 119.802 141.731 118.445C142.284 117.055 143.157 115.918 144.285 114.95C145.708 113.73 147.125 112.502 148.59 111.232C149.586 110.184 150.652 109.264 151.458 108.158C152.521 106.7 152.899 104.923 153.329 103.193C154.239 99.532 155.859 96.2133 158.25 93.2742C158.846 92.5421 159.411 91.7734 160.09 91.1249C160.459 90.7725 161.037 90.6322 161.528 90.4113C161.586 90.385 161.688 90.4538 161.769 90.4785ZM28.6096 58.027C29.6392 58.2915 29.7881 59.18 29.0005 59.8586C27.2124 61.3994 26.3615 63.3665 26.2304 65.651C26.158 66.9128 26.2771 68.1853 26.2065 69.4473C25.974 73.6076 27.1975 77.4371 29.0095 81.0901C30.7419 84.5826 33.2644 87.4588 36.8839 89.1391C38.9607 90.1032 41.1817 90.7797 43.3688 91.493C45.2686 92.1125 47.2152 92.5909 49.1352 93.1514C51.0188 93.7012 52.8742 94.1999 54.87 93.5391C55.8938 93.2001 56.662 94.1093 56.2699 95.0945C54.7873 98.82 53.524 102.687 50.9197 105.828C49.3575 107.712 47.5501 109.456 45.6167 110.969C42.7782 113.19 39.5144 114.774 36.2543 116.334C33.0745 117.855 29.9663 119.524 26.7725 121.015C23.1744 122.695 19.5282 124.276 15.8795 125.847C12.9359 127.114 9.96432 128.32 6.98974 129.515C6.27846 129.801 5.51657 130.001 4.75853 130.126C3.99901 130.251 2.33043 129.069 2.03235 128.287C1.2759 126.304 0.7617 124.264 0.549348 122.15C0.420118 120.864 0.246174 119.582 0.0461582 118.298C1.11759e-08 118.207 -1.11759e-08 118.116 0.0461577 117.979C0.123087 116.22 0.155352 114.506 0.176785 112.792C0.177375 112.745 0.0615431 112.696 0 112.648V111.965C0.0307653 111.919 0.0885055 111.919 0.0885055 111.919C0.146656 110.333 0.196092 108.746 0.258132 107.16C0.278177 106.647 0.336559 106.136 0.368428 105.624C0.633054 101.371 1.14199 97.1449 2.23823 93.0217C3.11303 89.7313 4.26815 86.5309 5.67209 83.4048C7.27355 79.8389 9.22057 76.4857 11.464 73.2974C12.6069 71.6731 13.8553 70.1076 15.1836 68.6271C16.7817 66.8457 18.4238 65.0819 20.2148 63.4953C22.2595 61.684 24.4569 60.0332 26.6635 58.413C27.1548 58.0522 28.0233 57.8763 28.6096 58.027ZM25.9264 60.5268C25.8228 60.573 25.7055 60.6016 25.6174 60.668C22.843 62.756 20.0853 64.8651 17.7879 67.485C16.3608 69.1125 14.9019 70.7172 13.5544 72.4077C10.2796 76.5162 7.74539 81.0443 5.81584 86.0408C5.75034 86.227 5.67432 86.4102 5.62091 86.5997C4.79178 89.5408 3.91448 92.4701 3.1621 95.4303C2.82832 96.7434 2.7325 98.1175 2.55739 99.4675C2.36469 100.953 2.15006 102.439 2.04803 103.932C1.96398 105.162 2.07722 106.404 2.01825 107.637C1.94501 109.168 1.73175 110.694 1.68006 112.225C1.64515 113.259 1.81332 114.299 1.83896 115.338C1.86994 116.592 1.8227 117.849 1.85367 119.104C1.87906 120.133 1.90393 121.169 2.04765 122.186C2.22365 123.432 2.53718 124.657 2.76614 125.896C3.09674 127.684 3.83682 128.377 5.60064 128.504C6.83683 128.592 7.77637 127.867 7.94941 126.717C7.97044 126.577 8.19207 126.334 8.22089 126.348C9.77931 127.074 11.1321 126.342 12.4978 125.767C15.4 124.544 18.3151 123.349 21.1881 122.063C25.4629 120.149 29.72 118.194 33.9562 116.199C35.9381 115.265 37.8845 114.247 39.7924 113.173C43.5158 111.076 46.9195 108.59 49.6761 105.283C51.8126 102.721 53.1332 99.8079 53.8986 96.6202C54.0439 96.0148 53.8298 95.4892 53.1009 95.3339C51.1248 94.9127 49.1534 94.4695 47.1743 94.0627C43.1519 93.236 39.2636 92.0841 35.6486 90.068C31.0069 87.4792 28.0334 83.5696 26.2477 78.74C25.4006 76.4488 24.7202 74.0745 24.7378 71.5795C24.751 69.7063 24.5849 67.8165 24.7859 65.9645C24.9718 64.2528 25.5415 62.5819 25.9353 60.8915C25.962 60.7767 25.9307 60.6487 25.9264 60.5268ZM103.326 87.5996C104.426 88.3499 105.514 89.1189 106.58 89.9163C106.869 90.1324 106.891 90.3473 107.023 89.7818C107.227 88.898 108.494 88.6511 109.253 89.2793C110.992 90.7196 111.87 92.6565 112.506 94.7624C113.059 96.5892 112.84 98.446 112.893 100.292C112.928 101.476 114.045 102.37 115.218 102.417C116.085 102.453 116.997 102.831 117.778 103.258C119.665 104.292 120.879 105.923 121.475 107.977C122.118 110.19 121.52 112.16 120.228 113.998C119.054 115.67 117.984 117.421 116.279 118.647C115.336 119.326 114.249 119.888 113.511 120.745C112.718 121.665 111.808 122.265 110.728 122.678C108.069 123.697 105.163 122.376 103.86 120.174C102.687 118.19 99.8614 118.626 98.7665 120.234C98.289 120.935 98.1577 121.861 97.8008 122.655C97.5818 123.142 97.7942 123.068 98.1224 123.02C99.7478 122.78 101.375 122.55 103.002 122.322C103.085 122.31 103.175 122.343 103.262 122.354C103.197 122.403 103.138 122.461 103.068 122.5C101.454 123.405 99.7078 123.917 97.8816 124.133C96.4978 124.297 95.0833 124.559 93.7192 124.42C92.6443 124.311 91.5505 123.781 90.601 123.213C89.4813 122.544 89.145 121.407 89.1667 120.079C89.2087 117.5 90.2052 115.324 91.8504 113.437C92.3243 112.894 93.161 112.665 93.8269 112.284C94.0798 112.14 94.4483 112.121 94.0009 111.655C92.0471 109.617 90.3117 107.41 89.1244 104.826C88.9369 104.418 88.7436 103.998 88.6616 103.563C88.6113 103.296 88.6863 102.914 88.8608 102.73C88.9705 102.614 89.4073 102.697 89.6282 102.817C89.9593 102.997 90.2217 103.297 90.5274 103.528C91.0485 103.921 91.3378 103.754 91.1966 103.141C90.7955 101.397 91.1641 99.7429 91.7816 98.1438C92.1146 97.2815 92.6564 96.4947 93.1592 95.7088C93.207 95.6341 93.6907 95.7471 93.9012 95.8822C94.2916 96.1328 94.6296 96.464 94.9894 96.7617C95.0136 96.2853 95.0212 95.8073 95.0682 95.3332C95.0962 95.0515 95.1659 94.7695 95.252 94.4986C95.6831 93.1411 95.9143 93.0725 97.0554 93.9236C97.2085 94.0378 97.3917 94.1122 97.5609 94.205L97.6103 93.8596C97.6178 93.802 97.6245 93.7443 97.6294 93.6864C97.7553 92.1946 97.4546 90.841 96.3561 89.7333C96.3431 89.7202 96.5815 89.3308 96.7186 89.3201C98.3008 89.1967 99.8833 89.1316 101.331 89.9709C101.627 90.1425 101.922 90.3152 102.263 90.533C102.401 90.4089 102.555 90.2457 102.574 90.0682C102.659 89.2649 102.698 88.4565 102.791 87.6543C102.796 87.6111 103.207 87.5189 103.326 87.5996ZM92.7838 113.578C92.7481 113.645 92.7253 113.723 92.675 113.776C90.8749 115.663 90.0353 117.904 90.1019 120.503C90.1381 121.915 90.8959 122.954 92.3178 123.212C93.2215 123.375 94.1589 123.368 95.0824 123.393C95.194 123.396 95.376 123.138 95.4187 122.973C95.6909 121.923 95.6715 120.752 96.8049 119.948C97.1212 119.826 97.4378 119.705 97.7535 119.582C97.897 119.526 98.1514 119.475 98.1576 119.405C98.1708 119.255 98.0986 119.023 97.9825 118.952C97.6726 118.761 97.3331 118.551 96.9839 118.503C95.3734 118.281 94.2309 117.438 93.5754 115.988C93.2637 115.298 93.0942 114.545 92.8604 113.82C92.8344 113.74 92.8093 113.659 92.7838 113.578ZM97.0801 120.586C96.9578 121.046 96.8178 121.502 96.7306 121.968C96.7161 122.046 96.963 122.271 97.0347 122.249C97.3272 122.161 97.421 120.766 97.0801 120.586ZM103.756 88.5923C103.855 88.9272 103.994 89.2564 104.044 89.5983C104.156 90.3741 104.089 91.116 103.321 91.573C102.708 91.9382 102.248 91.4994 101.831 91.1788C100.884 90.4511 99.7642 90.3563 98.6519 90.2177C98.0447 90.1421 98.0168 90.3901 98.2153 90.9092C98.5073 91.6726 98.8707 92.4836 98.8479 93.2641C98.8336 93.7536 98.2032 94.2586 97.783 94.6934C97.3911 95.0989 97.0155 94.9071 96.7054 94.5068C96.6578 94.4454 96.5046 94.4649 96.4002 94.447C96.4074 94.6115 96.3858 94.7836 96.4267 94.9395C96.6699 95.8668 96.3213 96.7628 95.3422 97.2958C94.6643 97.6649 94.1866 97.102 93.7746 96.6661C93.4645 96.3381 93.4362 96.5373 93.3049 96.7869C92.1607 98.9606 92.0296 101.234 92.6369 103.57C92.7879 104.151 92.519 104.44 92.036 104.418C91.4735 104.392 90.9218 104.173 90.3607 104.061C90.1009 104.009 89.8298 104.013 89.5638 103.992C89.636 104.246 89.6693 104.52 89.7866 104.752C90.7574 106.669 92.0056 108.404 93.6255 109.814C94.5812 110.645 95.1676 111.374 95.139 112.809C95.1017 114.683 96.1061 116.215 97.848 117.234C99.2357 118.046 100.711 117.876 102.175 117.926C102.924 117.952 103.469 118.209 103.914 118.798L104.092 119.034C105.006 120.251 105.91 121.464 107.546 121.89C109.391 122.369 111.077 122.178 112.5 120.887C112.796 120.618 112.799 119.975 112.812 119.501C112.814 119.415 112.214 119.263 111.882 119.227C110.557 119.08 109.225 119.413 107.887 119.054C105.998 118.546 104.261 117.799 102.829 116.445C102.559 116.19 102.332 115.889 102.085 115.61C102.52 115.712 102.957 115.81 103.391 115.918C103.499 115.945 103.623 115.977 103.701 116.048C105.726 117.901 108.102 118.708 110.849 118.493C113.636 118.275 115.072 116.822 115.215 114.393C115.364 111.885 114.876 109.455 113.714 107.181C113.545 106.852 113.547 106.396 113.588 106.011C113.745 104.515 114.124 103.005 112.506 101.941C112.235 101.762 112.159 101.164 112.141 100.753C112.086 99.5341 111.699 99.0792 110.501 98.9688C109.77 98.9014 109.36 98.467 109.193 97.7858C109.145 97.5883 109.147 97.3785 109.126 97.1744C108.932 97.3486 108.685 97.4904 108.551 97.7026C107.873 98.7798 106.862 99.4461 105.799 100.091C105.261 100.417 105.087 100.38 104.953 99.775C104.891 99.4904 104.658 99.2429 104.502 98.9785C104.352 99.1903 104.196 99.3985 104.053 99.6148C103.864 99.9003 103.731 100.238 103.493 100.473C102.645 101.311 101.788 102.145 100.873 102.908C100.674 103.074 100.076 103.077 99.9248 102.914C99.7252 102.699 99.7518 102.247 99.7424 101.896C99.7329 101.546 99.8199 101.194 99.8218 100.842C99.8225 100.705 99.7132 100.456 99.6425 100.452C99.4908 100.443 99.2569 100.516 99.1876 100.633L98.828 101.235C98.4683 101.837 98.1151 102.444 97.8259 103.079C97.0508 104.781 96.7332 106.589 96.6906 108.456C96.6846 108.719 96.402 109.002 96.1895 109.22C96.1168 109.294 95.7415 109.239 95.7187 109.171C95.6193 108.876 95.5419 108.552 95.5627 108.245C95.5958 107.759 95.7224 107.28 95.7944 106.795C96.2293 103.87 97.5044 101.383 99.7053 99.3826C99.786 99.3092 100.068 99.3038 100.072 99.3201C100.272 99.9982 100.459 100.681 100.627 101.367C100.665 101.522 100.63 101.695 100.629 101.86C100.776 101.793 100.941 101.75 101.069 101.656C102.461 100.633 103.575 99.3734 104.374 97.8383C104.566 97.4683 104.836 97.138 105.07 96.7894L105.48 97.5319C105.617 97.7797 105.751 98.0285 105.88 98.2802C105.929 98.3769 105.851 98.5367 105.898 98.6358C105.934 98.7094 106.139 98.7925 106.163 98.7686C106.874 98.0395 107.557 97.283 108.279 96.5651C108.556 96.29 109.077 95.8366 109.209 95.9168C109.639 96.1778 109.954 96.6362 110.279 97.0457C110.353 97.1393 110.233 97.3762 110.302 97.4853C110.428 97.6847 110.696 98.0145 110.785 97.9805C111.231 97.809 111.68 97.5849 112.04 97.2778C112.184 97.1551 112.103 96.7718 112.033 96.416C111.662 94.0903 110.738 92.0341 109.05 90.3492C108.943 90.2431 108.834 90.1405 108.726 90.0363C108.697 90.1763 108.668 90.3164 108.639 90.4564C108.478 91.2284 107.641 91.6934 107.037 91.2259C106.275 90.6361 105.671 89.8494 104.943 89.2107C104.617 88.9254 104.156 88.7937 103.756 88.5923ZM168.249 107.642C168.184 107.707 168.073 107.764 168.061 107.837C168.018 108.099 167.954 108.374 167.996 108.628C168.223 110.021 168.508 111.404 168.718 112.799C169.085 115.231 169.699 117.593 170.964 119.722C171.413 120.477 172.142 121.07 172.753 121.728C172.822 121.803 172.958 121.817 173.063 121.859C173.059 121.795 173.061 121.729 173.048 121.666C172.9 120.906 172.842 120.114 172.582 119.393C171.962 117.673 171.247 115.987 170.478 114.197C170.017 112.956 169.529 111.725 169.103 110.473C168.81 109.611 168.603 108.72 168.354 107.844C168.334 107.773 168.284 107.709 168.249 107.642ZM217.619 103.557C217.616 103.64 217.441 103.709 217.36 103.798C217.138 104.038 216.88 104.26 216.715 104.535C214.898 107.563 213.943 110.897 213.204 114.305C213.008 115.209 212.833 116.118 212.648 117.207C212.587 117.729 212.463 118.253 212.48 118.772C212.5 119.375 212.494 120.051 212.762 120.561C213.512 121.99 215.524 121.95 216.758 121.197C217.901 120.5 218.45 119.377 219.068 118.317C220.123 116.51 221.003 114.601 222.099 112.821C223.589 110.399 225.059 107.987 225.73 105.19C225.932 104.349 225.501 103.775 224.596 103.801C222.468 103.862 220.399 103.445 218.327 103.059C217.631 102.93 217.647 102.894 217.619 103.557ZM114.668 103.178C114.3 104.751 114.536 106.252 114.992 107.736C115.656 109.899 116.38 112.045 116.158 114.355C116.002 115.973 115.271 117.249 113.872 118.142C113.657 118.279 113.56 118.6 113.409 118.836C113.692 118.894 113.978 119.003 114.258 118.993C114.431 118.986 114.618 118.819 114.763 118.686C115.798 117.731 116.958 116.869 117.814 115.775C118.676 114.674 119.232 113.337 120.014 112.013C120.193 111.165 120.405 110.324 120.545 109.47C120.859 107.556 119.893 105.713 118.134 105.063C116.982 104.637 115.72 104.478 115.231 103.089C115.151 102.862 114.853 102.386 114.668 103.178ZM58.9391 61.6465C61.1878 61.9117 63.4522 62.3255 65.6096 62.9962C67.9219 63.715 69.9478 65.0829 71.5874 66.8849C73.8226 69.3415 75.2809 72.1966 75.9289 75.4756C76.2033 76.8642 76.2896 78.2426 76.2632 79.6382C76.2464 80.524 76.1544 81.4087 76.0869 82.2932C75.9427 84.1847 76.4208 85.9844 76.8936 87.7866C77.3778 89.6327 77.2015 91.4833 77.0309 93.3578C76.7789 96.1279 75.7294 98.634 74.5908 101.098C73.8578 102.685 72.8653 104.157 71.9404 105.651C71.1579 106.915 70.3053 108.136 69.4379 109.422C68.2679 111.25 67.1259 113.022 66.0279 114.821C65.5439 115.614 65.15 116.461 64.7129 117.282C64.6595 117.382 64.6062 117.489 64.5279 117.569C64.2566 117.844 63.9743 118.109 63.6962 118.378C63.6699 117.986 63.5136 117.546 63.6379 117.207C64.633 114.5 66.1665 112.083 67.8293 109.738C69.8427 106.898 71.982 104.135 73.4096 100.929C74.3475 98.8229 75.0877 96.6561 75.3489 94.3559C75.5003 93.0235 75.6701 91.6867 75.701 90.349C75.7317 89.0205 75.6006 87.6883 75.5323 86.3582C75.5289 86.2922 75.4132 86.1713 75.4068 86.175C75.2571 86.26 75.0848 86.3329 74.977 86.459C74.4041 87.129 73.8573 87.821 73.2838 88.4904C71.8264 90.1913 70.0519 91.3358 67.8123 91.831C65.6 92.3202 63.7401 91.6809 62.1684 90.2493C60.1766 88.4352 60.2066 86.2165 61.577 84.1163C62.8306 82.1951 64.6472 81.1762 66.9838 80.85C69.2682 80.531 71.342 81.1611 73.416 81.8331C74.1822 82.0814 74.6542 82.3481 74.6906 81.2718C74.7319 80.053 74.656 78.8181 74.8314 77.6191C75.057 76.0776 74.5158 74.7317 74.078 73.3323C73.2118 70.5633 71.5382 68.396 69.299 66.5625C67.5811 65.1558 65.6538 64.1889 63.5523 63.6221C61.3828 63.0369 59.181 62.7689 56.8731 63.0014C53.134 63.378 49.885 64.799 46.9329 66.9722C44.8417 68.5117 43.2143 70.5051 41.772 72.6499C41.5571 72.9696 41.2022 73.1963 40.9133 73.4672C40.5524 73.8058 40.0709 73.9033 39.8132 73.5074C39.6175 73.2068 39.5464 72.5657 39.7379 72.321L40.1828 71.7513C41.0745 70.6105 41.984 69.4709 43.0434 68.5001C44.3411 67.3109 45.8284 66.3099 47.3018 65.3287C49.7646 63.6886 52.4631 62.5851 55.4132 62.1368C56.5911 61.9578 57.7995 61.5121 58.9391 61.6465ZM94.3708 114.889C94.3566 115.004 94.3184 115.123 94.3318 115.235C94.4566 116.281 95.1466 116.974 95.9278 117.554C96.1892 117.748 96.647 117.68 97.015 117.732C96.8209 117.435 96.6393 117.129 96.4281 116.845C96.3026 116.676 96.1305 116.541 95.9793 116.208C95.5295 115.822 95.0811 115.434 94.6285 115.05C94.5519 114.986 94.4571 114.942 94.3708 114.889ZM239.425 50.0517C238.44 50.8656 237.46 51.6895 236.525 52.5583C234.992 53.9836 234.02 55.8075 233.217 57.676C231.528 61.6049 229.967 65.5877 228.368 69.5544C226.013 75.4004 223.67 81.2516 221.322 87.2831C221.199 87.4763 221.041 87.656 220.959 87.8648C219.465 91.6317 217.987 95.4041 216.494 99.1711C215.343 102.075 214.122 104.952 213.034 107.878C212.027 110.584 211.376 113.392 210.997 116.254C210.96 116.53 211.054 116.823 211.088 117.108C211.116 116.866 211.106 116.61 211.185 116.386C211.239 116.235 211.483 116.148 211.532 115.998C212.467 113.127 213.326 110.229 214.33 107.382C215.021 105.422 215.89 103.522 216.717 101.611C217.104 100.719 217.448 100.633 218.317 101.059C218.903 101.348 219.5 101.617 220.073 101.929C220.98 102.423 221.94 102.61 222.964 102.52C223.694 102.455 224.607 101.619 224.624 100.84C224.642 100.079 224.301 99.4684 223.413 99.388C222.857 99.3377 222.288 99.3648 221.744 99.2599C221.343 99.1824 220.973 98.9477 220.589 98.7831C220.839 98.5933 221.072 98.3708 221.346 98.2258C221.516 98.1361 221.75 98.1634 221.955 98.1399C223.329 97.9822 224.495 98.6349 225.703 99.1021C227.878 99.9435 229.105 99.7833 230.21 98.3424C230.804 97.5682 231.202 96.6295 231.595 95.7253C233.377 91.6212 235.269 87.5557 236.848 83.3753C238.481 79.0507 240.003 74.6632 241.199 70.205C242.485 65.4088 243.895 60.6058 244.144 55.5931C244.213 54.2128 244.094 52.8766 243.696 51.5135C243.056 49.3193 240.969 48.7752 239.425 50.0517ZM163.793 93.9836C163.715 94.1337 163.615 94.2767 163.561 94.435C162.87 96.4678 162.978 98.5033 163.934 100.386C164.936 102.356 166.162 104.216 167.301 106.117C167.349 106.198 167.511 106.212 167.619 106.258C167.654 106.111 167.752 105.946 167.715 105.82C167.388 104.71 167.017 103.613 166.712 102.498C166.649 102.268 166.717 101.884 166.879 101.741C167.119 101.529 167.52 101.324 167.81 101.372C168.645 101.511 169.339 102.497 169.421 103.481C169.557 105.106 169.605 106.744 169.853 108.353C170.251 110.94 171.279 113.336 172.42 115.681C172.482 115.808 172.602 115.907 172.696 116.019C172.787 115.874 172.921 115.74 172.962 115.582C173.105 115.03 173.131 114.434 173.354 113.919C174.138 112.104 174.126 110.36 173.166 108.602C172.64 107.641 172.231 106.617 171.678 105.53C171.287 104.414 171.102 103.161 170.458 102.213C169.466 100.751 168.129 99.5216 166.996 98.1469C165.996 96.9334 165.075 95.6561 164.119 94.4071L163.793 93.9836ZM111.409 111.304C111.62 111.661 111.782 111.992 112.049 112.185C113.051 112.912 112.939 114.871 111.952 115.474C111.731 115.61 111.35 115.496 111.043 115.496C111.043 115.249 110.967 114.971 111.055 114.759C111.68 113.267 111.032 112.045 109.396 111.654C109.14 111.592 108.907 111.438 108.663 111.326C108.887 111.19 109.106 111.045 109.336 110.918C109.581 110.783 109.836 110.664 110.088 110.539C111.034 110.071 111.186 110.148 111.409 111.304ZM113.066 103.504C113.215 104.353 113.169 105.27 113.015 106.124C112.896 106.79 111.136 107.156 110.179 107.032C109.169 106.902 108.547 106.303 107.919 105.665C107.372 105.108 106.748 104.671 105.976 104.98C105.192 105.294 105.162 106.067 105.199 106.89C104.979 108.337 104.556 109.508 103.283 110.365C101.599 111.499 99.6575 110.668 98.9004 109.293C98.8149 109.138 98.6632 109.018 98.5421 108.882C98.4505 109.015 98.3302 109.138 98.2718 109.284C97.8171 110.425 97.3231 111.555 96.9464 112.721C96.7116 113.448 97.0462 113.779 97.7944 113.771C98.2945 113.766 98.795 113.762 99.2948 113.776C99.4258 113.779 99.5549 113.851 99.6848 113.891C99.6126 114.013 99.5684 114.201 99.4632 114.244C98.9913 114.437 98.4322 114.824 98.0326 114.709C96.984 114.407 96.0651 113.837 96.0053 112.547C95.9078 110.445 97.0439 108.859 98.2526 107.313C99.6288 105.553 101.66 104.931 103.709 104.355C106.282 103.632 108.854 102.905 111.427 102.184C111.963 102.034 112.919 102.666 113.066 103.504ZM103.227 105.139C102.309 105.5 101.402 105.898 100.525 106.347C99.0104 107.121 98.8514 108.489 100.112 109.574C101.423 110.703 103.106 110.32 103.601 108.708C103.879 107.803 103.938 106.834 104.096 105.713C104.139 105.035 103.708 104.949 103.227 105.139ZM107.029 105.811C107.11 105.843 107.188 105.884 107.271 105.905C108.517 106.221 109.485 108.234 108.893 109.324C108.776 109.54 108.537 109.686 108.354 109.865C108.308 109.687 108.258 109.511 108.218 109.332C108.101 108.801 107.989 108.27 107.831 107.696C107.548 107.117 107.304 106.582 107.068 106.045C107.037 105.975 107.041 105.889 107.029 105.811ZM110.9 102.744C109.867 103.102 108.874 103.571 107.68 103.993C107.65 104.131 107.552 104.298 107.599 104.401C108.194 105.697 110.429 106.611 111.768 106.122C112.558 105.835 112.996 104.84 112.735 103.924C112.555 103.289 111.495 102.538 110.9 102.744ZM205.801 71.3604C207.58 71.5325 209 72.3041 210.083 73.8242C210.677 74.6593 210.225 75.3515 210.085 76.0529C209.581 78.5818 208.972 81.0894 208.394 83.603C207.918 85.6727 207.433 87.7403 206.946 89.8074C206.296 92.5619 205.644 95.3157 204.987 98.0683C204.514 100.049 204.036 102.028 203.548 104.005C203.497 104.212 203.367 104.398 203.274 104.595C203.188 104.389 203.013 104.175 203.03 103.978C203.165 102.417 203.301 100.855 203.506 99.3033C203.721 97.6697 203.984 96.0412 204.278 94.4201C204.629 92.4854 204.997 90.5526 205.424 88.6339C206.389 84.2895 207.636 80.0281 209.063 75.8134C209.629 74.1392 208.019 73.0339 206.717 73.0628C205.885 73.0814 205.167 73.27 204.403 73.4554C204.277 73.4861 204.078 73.2083 203.912 72.9822C203.912 72.8307 203.893 72.7614 203.915 72.711C204.092 72.3109 203.449 71.5779 204.397 71.4903C204.866 71.447 205.342 71.316 205.801 71.3604ZM114.553 95.676C115.669 95.6927 116.785 95.8401 117.9 95.8296C119.495 95.8144 121.017 96.1517 122.441 96.7749C123.694 97.323 124.851 98.0809 126.097 98.7915C127.55 100.076 128.656 101.513 129.081 103.354C129.137 103.595 128.869 103.909 128.751 104.189C128.56 104.02 128.25 103.882 128.197 103.678C127.184 99.7819 124.334 97.8857 120.611 96.9345C118.577 96.4148 116.519 96.543 114.455 96.7257C114.187 96.7493 113.588 97.1004 113.566 96.4009C113.545 95.758 114.093 95.6691 114.553 95.676ZM167.619 41.0754C163.993 41.5864 161.31 43.6526 159.278 46.619C157.063 49.852 156.322 53.5264 156.225 57.3022C156.155 59.9981 156.48 62.7117 156.75 65.4055C156.952 67.4181 157.239 69.4357 157.684 71.4077C158.246 73.8933 159.019 76.3316 159.679 78.796C160.783 82.9164 162.174 86.9403 163.936 90.8284C165.815 94.9727 168.285 98.7273 171.756 101.764C172.876 102.744 174.175 103.452 175.685 103.601C177.566 103.786 179.394 103.434 181.193 102.888C185.041 101.719 188.93 100.669 192.74 99.3887C196.219 98.2197 198.386 95.7129 199.159 92.1537C199.738 89.4848 200.227 86.7923 200.632 84.0921C200.977 81.7945 201.257 79.4755 201.354 77.1573C201.429 75.3845 201.195 73.5966 201.06 71.8183C200.956 70.4629 200.79 69.1122 200.653 67.5769C200.204 64.8793 199.39 62.2975 198.319 59.773C196.691 55.9373 194.448 52.5625 191.416 49.6502C188.11 46.4755 184.16 44.4561 179.863 43.0671C177.439 42.2832 174.929 41.7064 172.418 41.252C170.855 40.9691 169.183 40.855 167.619 41.0754ZM59.6422 65.7616C59.5343 65.9289 59.4383 66.1053 59.3168 66.2622C57.0607 69.1753 54.6721 71.9974 52.5768 75.0205C50.1045 78.5873 48.0387 82.4077 46.435 86.5205C45.8104 87.8096 45.2388 89.0567 44.6497 90.2956C44.3378 90.9515 43.6894 90.8692 43.2474 90.6579C42.7688 90.4291 42.8279 89.9448 43.1145 89.4355C45.4758 85.2394 47.7423 80.9895 50.1583 76.8251C51.6402 74.2709 53.2412 71.7718 54.9706 69.3777C55.8957 68.097 57.2005 67.0855 58.3497 65.9685C58.5024 65.8201 58.7407 65.7153 58.9534 65.6835C59.1741 65.6505 59.4119 65.7308 59.6422 65.7616ZM65.6957 82.5105C63.1659 83.1768 61.9084 85.0155 62.1275 87.4335C62.2656 88.9575 62.8731 89.933 64.3281 90.344C65.996 90.815 67.6612 90.5991 69.2318 89.9721C71.4847 89.0727 73.3275 87.7126 73.8866 84.9831C73.9451 84.2479 73.7319 83.7103 73.072 83.2314C70.7336 81.5341 68.2654 81.8337 65.6957 82.5105ZM118.432 34.6378C118.371 34.7139 118.309 34.7443 118.247 34.8203C118.05 34.9088 117.805 34.8923 117.662 35.0035C114.085 37.778 111.841 41.4026 110.663 45.7092C110.103 47.7544 109.849 49.8401 109.942 51.944C110.105 55.6465 111.276 59.0303 113.396 62.1097C115.714 65.474 118.792 67.9498 122.468 69.6869C124.574 70.6824 126.81 71.3989 129.178 71.5241C130.244 71.5804 131.334 71.4064 132.38 71.5609C134.388 71.8575 136.256 71.3209 138.111 70.7852C141.847 69.7063 145.134 67.8426 147.95 65.1488C150.028 63.1614 151.824 61.0009 153.011 58.3801C153.034 58.3287 153.063 58.2798 153.09 58.2298C153.125 58.2977 153.198 58.3705 153.19 58.4328C153.013 59.7632 153.099 61.1105 152.146 62.2979C149.196 65.9732 145.775 69.0694 141.343 70.8674C139.447 71.6366 137.423 72.1306 135.42 72.5988C134.216 72.8804 132.938 73.0002 131.699 72.9678C128.565 72.886 125.542 72.2293 122.648 70.9932C119.559 69.6736 116.855 67.8201 114.55 65.413C111.87 62.6134 109.999 59.3549 109.208 55.5664C108.893 54.0574 108.643 52.4976 108.664 50.9649C108.731 46.177 110.149 41.7628 112.957 37.8435C113.722 36.7755 114.751 35.8882 115.685 34.9426C116.125 34.497 118.079 34.2821 118.432 34.6378ZM122.373 34.6841C122.42 34.6894 122.46 34.7458 122.504 34.7784C122.424 34.8066 122.345 34.8382 122.264 34.8627C119.116 35.8167 116.875 37.8682 115.377 40.7086C114.459 42.4494 113.962 44.341 113.682 46.314C113.112 50.3247 114.044 54.0174 115.984 57.4588C118.38 61.7106 121.768 64.9463 126.458 66.6215C127.953 67.1557 129.499 67.7292 131.06 67.8692C134.807 68.2054 138.406 67.5386 141.742 65.6743C144.229 64.2846 146.272 62.4248 148.105 60.266C150.231 57.7619 151.44 54.8434 152.191 51.7241C152.455 50.6306 152.342 49.448 152.411 48.3066C152.424 48.0928 152.484 47.8817 152.522 47.6694C152.774 47.7985 153.163 47.8666 153.253 48.0677C153.576 48.7846 154.074 49.5754 154 50.2856C153.847 51.7459 153.478 53.2099 153.001 54.6052C151.761 58.2264 149.57 61.2471 146.726 63.7905C144.081 66.1569 141.031 67.8102 137.56 68.6398C136.385 68.9207 135.196 69.2434 134 69.312C132.892 69.3754 131.757 69.183 130.652 68.9981C129.179 68.7518 127.675 68.5465 126.27 68.072C122.389 66.7616 119.134 64.5348 116.509 61.3418C114.413 58.7907 113.201 55.8925 112.62 52.7141C111.937 48.9743 112.549 45.3507 113.943 41.8523C114.886 39.485 116.261 37.3873 118.145 35.6387C118.288 35.5064 118.366 35.3059 118.475 35.0458C118.536 34.9241 118.597 34.8936 118.658 34.8632C119.866 34.179 121.125 34.54 122.373 34.6841ZM260.684 67.2973C261.946 67.3107 263.206 67.481 264.468 67.5793C266.003 67.6988 267.538 67.849 269.076 67.9078C270.548 67.964 272.025 67.8841 273.497 67.9352C274.223 67.9603 274.962 68.0877 275.652 68.2914C275.886 68.3607 275.989 68.8051 276.152 69.0781C275.928 69.1442 275.708 69.2291 275.478 69.2715C275.212 69.3208 274.938 69.3329 274.621 69.3188C271.56 69.2199 268.546 69.1411 265.531 69.1178C264.31 69.1083 263.087 69.2644 261.866 69.2574C261.268 69.254 260.668 69.06 260.073 68.9346C259.453 68.804 259.267 68.293 259.498 67.9199C259.697 67.5993 260.277 67.293 260.684 67.2973ZM131.461 37.2115C132.151 40.4782 132.79 43.7561 133.466 47.0258C133.814 48.7045 133.401 49.4012 131.947 50.2163C130.026 51.2931 128.168 52.4927 126.332 53.7162C125.412 54.329 124.658 54.5423 124.154 54.0581C123.678 53.6009 123.6 53.1983 124.235 52.7694C126.221 51.4271 128.216 50.0942 130.136 48.6588C130.554 48.3462 130.93 47.6001 130.887 47.0922C130.73 45.2374 130.397 43.3973 130.109 41.555C129.989 40.7862 129.816 40.026 129.668 39.1699C129.597 38.4147 129.393 37.7274 129.503 37.0969C129.573 36.7018 130.074 36.1622 130.452 36.0946C131.122 35.9746 131.349 36.6796 131.461 37.2115ZM258.047 29.5786C258.159 29.6948 258.22 30.0113 258.142 30.1269C257.763 30.681 257.329 31.1978 256.868 31.7735C255.382 33.7853 253.96 35.765 252.48 37.7011C252.286 37.9546 251.659 38.1962 251.461 38.0766C250.958 37.7722 251.411 37.4476 251.62 37.1027C253.003 34.8139 254.342 32.499 255.713 30.2029C256.345 29.1457 257.371 28.8773 258.047 29.5786ZM215.885 0.000724069C216.128 0.0208563 216.4 0.311085 216.563 0.550496C217.162 1.42886 216.847 2.41621 216.728 3.32874C216.52 4.92092 216.143 6.49035 215.849 8.07169C215.712 8.81022 215.605 9.55431 215.484 10.3874C215.242 11.6268 214.978 12.7707 214.762 13.9236C214.369 16.0177 214.019 18.1198 213.624 20.2135C213.295 21.9602 212.94 23.702 212.577 25.4419C211.98 28.2984 211.388 31.1562 210.751 34.0035C210.576 34.7846 209.963 35.0773 209.46 34.7035C209.291 34.5774 209.122 34.2544 209.162 34.0673C210.102 29.712 211.109 25.3713 212.022 21.0102C212.692 17.8039 213.172 14.5563 213.871 11.357C214.537 8.30908 214.88 5.25347 214.782 2.13449C214.765 1.595 215.019 1.02523 215.24 0.509459C215.341 0.275807 215.678 -0.0164638 215.885 0.000724069ZM166.095 21.6298C166.272 21.9265 166.453 22.2202 166.632 22.6085C166.931 24.1864 167.24 25.6691 167.525 27.1565C167.669 27.9062 167.78 28.6633 167.888 29.4197C167.915 29.6077 167.872 29.8063 167.861 30C167.598 29.9561 167.172 30.0007 167.098 29.8534C166.714 29.0947 166.368 28.3047 166.108 27.4914C165.81 26.5598 165.685 25.5647 165.349 24.6513C165.165 24.1514 164.664 23.7874 164.373 23.3175C164.12 22.9112 163.824 22.446 163.812 21.9992C163.804 21.7124 164.236 21.2306 164.543 21.1571C165.078 21.0287 165.715 20.9931 166.095 21.6298Z" fill="#4F2608"/>
<path d="M104.993 112.675C106.083 112.385 106.872 111.8 106.755 111.367C106.638 110.934 105.66 110.819 104.571 111.109C103.481 111.399 102.692 111.984 102.809 112.417C102.926 112.849 103.904 112.965 104.993 112.675Z" fill="#FFB61D"/>
<path fill-rule="evenodd" clip-rule="evenodd" d="M112.493 109.158C113.271 108.869 113.72 108.283 113.559 107.851C113.409 107.418 112.833 107.302 112.21 107.592C111.524 107.882 110.914 108.467 110.91 108.9C110.916 109.332 111.654 109.448 112.493 109.158Z" fill="#FFB61D"/>
</svg>
