<svg id="Layer_1" data-name="Layer 1" xmlns="http://www.w3.org/2000/svg" viewBox="0 0 180 180"><defs><style>.cls-1{fill:#fff;}.cls-2{fill:#603913;}.cls-3{fill:#412312;}.cls-3,.cls-4{stroke:#010101;stroke-width:0.25px;}.cls-3,.cls-4,.cls-5{stroke-miterlimit:10;}.cls-4{fill:#1b3b1c;}.cls-5{fill:none;stroke:#fff;}</style></defs><circle class="cls-1" cx="90" cy="90" r="88.5"/><path class="cls-2" d="M360,272.77a87.1,87.1,0,0,1,87,87c0,21.63-9.65,43.69-26.48,60.52S381.63,446.77,360,446.77a87,87,0,0,1,0-174m0-3a90,90,0,0,0,0,180c47,0,90-43,90-90a90,90,0,0,0-90-90Z" transform="translate(-270 -269.77)"/><path class="cls-3" d="M332.61,419.31q-31.55-35.54,1.72-71.07Q314.67,383.78,332.61,419.31Z" transform="translate(-270 -269.77)"/><path class="cls-3" d="M342.7,419.31q33.32-34,1.61-68C357.81,375.2,355.43,397.71,342.7,419.31Z" transform="translate(-270 -269.77)"/><path class="cls-3" d="M349.37,341.53l-8,13.75c9.86,25.78,7.88,47.72-3.9,66.51-10.67-22.58-11.2-44.68,0-66.2l3.9-8.58.81-1.73" transform="translate(-270 -269.77)"/><path class="cls-4" d="M319.13,329.85c15.35-14.14,31.63-18.88,49-12.25C353.32,327.56,336.88,331.27,319.13,329.85Z" transform="translate(-270 -269.77)"/><path class="cls-3" d="M390.34,400.93c-21.89-15.32-32.73-36.27-30.77-63.72C349.61,369.87,361,390.5,390.34,400.93Z" transform="translate(-270 -269.77)"/><path class="cls-3" d="M398.78,396.07Q401,359.35,369.37,336C397.41,346.07,408.56,365.36,398.78,396.07Z" transform="translate(-270 -269.77)"/><path class="cls-3" d="M369.86,326.56l-6.61,7c.16,32.8,12.71,53.82,33.08,67.4.31-22.74-8.66-42.67-28.18-59.4a34.9,34.9,0,0,1,1.71-15q13.29-11.9,28.92-14.78v-4c-14.4-6.78-23.67-1.25-30.63,9.8C356.62,343.54,337.57,351.77,313,347" transform="translate(-270 -269.77)"/><path class="cls-3" d="M438,345.79" transform="translate(-270 -269.77)"/><line class="cls-5" x1="98.15" y1="46.6" x2="49.13" y2="58.86"/></svg>