<?xml version="1.0" standalone="no"?>
<!DOCTYPE svg PUBLIC "-//W3C//DTD SVG 20010904//EN"
 "http://www.w3.org/TR/2001/REC-SVG-20010904/DTD/svg10.dtd">
<svg version="1.0" xmlns="http://www.w3.org/2000/svg"
 width="700.000000pt" height="700.000000pt" viewBox="0 0 700.000000 700.000000"
 preserveAspectRatio="xMidYMid meet">
<metadata>
Created by potrace 1.14, written by Peter Selinger 2001-2017
</metadata>
<g transform="translate(0.000000,700.000000) scale(0.100000,-0.100000)"
fill="#000000" stroke="none">
<path d="M3131 6985 c-815 -93 -1534 -437 -2106 -1010 -576 -575 -924 -1307
-1010 -2119 -19 -188 -19 -524 0 -712 86 -813 434 -1545 1009 -2119 594 -592
1354 -946 2184 -1016 196 -16 557 -7 727 19 635 98 1219 365 1742 796 139 115
384 360 499 499 431 523 698 1107 796 1742 26 170 35 531 19 727 -70 830 -425
1593 -1016 2183 -552 553 -1229 887 -2026 1001 -160 22 -650 28 -818 9z m624
-115 c693 -58 1317 -305 1860 -736 146 -116 428 -400 539 -544 401 -517 628
-1074 708 -1740 20 -162 16 -558 -6 -715 -80 -572 -294 -1093 -644 -1565 -721
-973 -1855 -1528 -2947 -1441 -701 56 -1301 287 -1855 715 -140 108 -464 432
-574 576 -385 500 -613 1054 -693 1680 -24 188 -23 624 0 805 84 631 309 1176
693 1675 111 144 433 468 575 578 547 423 1194 671 1864 715 117 8 369 6 480
-3z"/>
<path d="M4490 5643 c-118 -13 -230 -53 -335 -121 -88 -56 -216 -186 -286
-290 -44 -65 -58 -80 -74 -76 -12 3 -434 -98 -938 -224 -868 -217 -968 -246
-952 -272 2 -4 75 -10 162 -14 575 -24 1162 123 1628 407 50 30 92 53 94 51 6
-6 -127 -254 -184 -340 -40 -61 -64 -89 -88 -99 -18 -7 -435 -158 -926 -335
-492 -176 -900 -324 -909 -329 -20 -12 -5 -16 123 -36 197 -31 584 -30 690 2
13 4 -2 -18 -40 -58 -307 -328 -516 -708 -596 -1079 -33 -152 -33 -448 0 -600
60 -280 193 -564 384 -823 75 -101 199 -248 205 -243 2 3 -21 58 -51 123 -136
289 -220 567 -263 868 -22 147 -25 514 -6 655 33 249 103 514 194 739 43 107
169 369 195 408 5 7 53 24 107 38 53 14 113 32 131 39 l34 15 -23 -52 c-75
-168 -126 -279 -191 -417 -125 -266 -197 -485 -242 -740 -30 -175 -43 -518
-24 -690 35 -325 124 -653 260 -960 25 -58 51 -104 56 -104 16 3 138 225 190
347 276 644 285 1300 29 2073 l-57 171 46 78 45 77 47 -87 c148 -272 261 -623
295 -920 15 -133 12 -407 -5 -542 -47 -358 -158 -667 -385 -1078 l-33 -60 37
35 c60 55 213 235 294 345 201 273 325 567 363 860 18 138 2 357 -36 509 -3
11 10 -10 28 -49 160 -333 431 -594 827 -795 132 -67 389 -174 397 -166 2 2
-29 27 -69 56 -628 455 -1006 1040 -1118 1731 -27 172 -42 405 -35 589 l5 155
-20 -60 c-125 -375 -165 -878 -94 -1180 20 -88 17 -88 -21 -2 -69 157 -215
380 -355 542 -41 48 -84 98 -94 110 l-19 24 102 174 c98 169 104 177 178 232
110 84 223 195 320 315 58 72 94 109 116 116 18 7 83 30 145 52 l113 41 -122
-127 -121 -127 6 -175 c24 -742 239 -1377 632 -1870 93 -116 308 -330 424
-421 105 -83 224 -169 234 -169 11 0 6 220 -9 366 -63 599 -297 1122 -712
1594 -102 115 -153 167 -317 320 l-59 54 6 161 c6 150 24 270 58 372 7 22 41
57 111 114 304 248 627 404 1006 485 21 4 22 9 22 88 l0 84 -77 32 c-143 60
-340 96 -453 83z"/>
<path d="M2956 5240 c-208 -38 -447 -133 -641 -255 -92 -57 -319 -225 -313
-231 3 -3 1669 411 1698 422 21 8 -36 28 -162 55 -150 32 -430 36 -582 9z"/>
<path d="M3850 4427 c8 -8 71 -58 140 -113 142 -113 352 -319 453 -444 268
-332 443 -708 517 -1105 32 -173 40 -274 41 -505 l1 -215 24 75 c101 315 146
689 115 947 -66 535 -367 931 -921 1212 -117 60 -355 161 -377 161 -4 0 -1 -6
7 -13z"/>
</g>
</svg>
